<svg xmlns="http://www.w3.org/2000/svg" width="40.847" height="32.422" viewBox="0 0 40.847 32.422">
  <path id="Path_515" data-name="Path 515" d="M1260.789,71.448h-32.677a4.1,4.1,0,0,0-4.085,4.085V91.871a4.1,4.1,0,0,0,4.085,4.085h4.757l-2.638,7.453c-.149.424.045.585.433.358l13.356-7.811h16.769a4.1,4.1,0,0,0,4.085-4.085V75.533A4.1,4.1,0,0,0,1260.789,71.448ZM1244.45,89.613a.408.408,0,0,1-.408.408H1232.65a.409.409,0,0,1-.409-.408V87.979a.411.411,0,0,1,.409-.409h11.392a.41.41,0,0,1,.408.409Zm12.211-5.106a.41.41,0,0,1-.409.408h-23.6a.409.409,0,0,1-.409-.408V82.873a.41.41,0,0,1,.409-.408h23.6a.411.411,0,0,1,.409.408Zm0-5.106a.411.411,0,0,1-.409.409h-23.6a.41.41,0,0,1-.409-.409V77.767a.41.41,0,0,1,.409-.408h23.6a.411.411,0,0,1,.409.408Z" transform="translate(-1224.027 -71.448)" fill="#ccc"/>
</svg>
