<svg xmlns="http://www.w3.org/2000/svg" width="28.952" height="28.952" viewBox="0 0 28.952 28.952">
  <g id="Group_538" data-name="Group 538" transform="translate(-1530.923 -8.863)">
    <path id="Path_523" data-name="Path 523" d="M1559.875,23.339A14.476,14.476,0,1,1,1545.4,8.863,14.478,14.478,0,0,1,1559.875,23.339Z" fill="#fff"/>
    <path id="Path_524" data-name="Path 524" d="M1548.88,23.7a3.437,3.437,0,0,1-6.874.01c0-.107.007-.213.017-.317h-4.314q0,2.495,0,4.991a3.022,3.022,0,0,0,3,3q4.69,0,9.381,0a3.021,3.021,0,0,0,2.994-2.986q0-2.5,0-5h-4.225C1548.872,23.494,1548.879,23.6,1548.88,23.7Z" fill="#7badd3"/>
    <path id="Path_525" data-name="Path 525" d="M1553.087,20.87c0-.681.021-1.364,0-2.045a3.013,3.013,0,0,0-3.021-2.9h-6.332v3.782h-.8V15.926h-.554v3.782h-.738v-3.78H1541v3.779h-.808V15.981a4.05,4.05,0,0,0-1.26.546,2.855,2.855,0,0,0-1.194,2.123c-.051.7-.025,3.137-.025,3.137v.157h4.792a3.431,3.431,0,0,1,5.887,0h4.7V20.87Zm-1.393-1.188a.563.563,0,0,1-.609.618q-.924,0-1.846,0a.552.552,0,0,1-.6-.582q-.006-.966,0-1.932a.547.547,0,0,1,.552-.586c.652-.013,1.3-.014,1.955,0a.55.55,0,0,1,.546.593c0,.322,0,.644,0,.966S1551.7,19.375,1551.694,19.682Z" fill="#7badd3"/>
  </g>
</svg>
