<svg xmlns="http://www.w3.org/2000/svg" width="70.573" height="61.943" viewBox="0 0 70.573 61.943">
  <g id="Group_388" data-name="Group 388" transform="translate(-331.67 -53.169)">
    <path id="Path_424" data-name="Path 424" d="M360.579,78.7"/>
    <g id="Group_383" data-name="Group 383">
      <path id="Path_425" data-name="Path 425" d="M356.436,75.025a15.813,15.813,0,0,1,25.827-.071l1.458,0a17.027,17.027,0,0,0-28.744.079Z" fill="#7badd3"/>
      <path id="Path_426" data-name="Path 426" d="M380.107,95.774a15.8,15.8,0,0,1-21.4.058l-1.714,0a17.009,17.009,0,0,0,24.836-.068Z" fill="#7badd3"/>
    </g>
    <g id="Group_384" data-name="Group 384">
      <path id="Path_427" data-name="Path 427" d="M335.47,80.265a.761.761,0,0,0,.76-.76V67.346a.76.76,0,0,0-1.52,0V79.5a.76.76,0,0,0,.76.76Zm0,0" fill="#194f90"/>
      <path id="Path_428" data-name="Path 428" d="M338.51,80.265a.76.76,0,0,0,.759-.76V67.346a.76.76,0,1,0-1.519,0V79.5a.76.76,0,0,0,.76.76Zm0,0" fill="#194f90"/>
      <path id="Path_429" data-name="Path 429" d="M339.269,87.484a.759.759,0,0,0-.759.76V109.9a.713.713,0,0,1-.76.76h-1.52a.761.761,0,0,1-.76-.76V85.05a.759.759,0,0,0-.435-.685,3.623,3.623,0,0,1-1.845-3.341V67.346a.76.76,0,1,0-1.52,0V81.024a5.13,5.13,0,0,0,2.28,4.464V109.9a2.283,2.283,0,0,0,2.28,2.28h1.52a2.23,2.23,0,0,0,2.279-2.28V88.244a.76.76,0,0,0-.76-.76Zm0,0" fill="#194f90"/>
      <path id="Path_430" data-name="Path 430" d="M341.549,66.586a.76.76,0,0,0-.76.76V81.024a3.588,3.588,0,0,1-3.144,3.754.76.76,0,0,0,.107,1.512.813.813,0,0,0,.11-.008,5.1,5.1,0,0,0,4.447-5.258V67.346a.76.76,0,0,0-.76-.76Zm0,0" fill="#194f90"/>
    </g>
    <path id="Path_431" data-name="Path 431" d="M401.782,66.64" fill="#7badd3"/>
    <path id="Path_432" data-name="Path 432" d="M401.2,66.64c-.33.132-8.077,3.358-8.077,14.385V93.183a.76.76,0,0,0,.76.76h4.56a.759.759,0,0,0,0-1.519h-3.8v-11.4c0-7.712,4.1-11.188,6.079-12.42v41.3a.761.761,0,0,1-.759.76h-1.52a.712.712,0,0,1-.76-.76V96.223a.76.76,0,1,0-1.52,0V109.9a2.23,2.23,0,0,0,2.28,2.28h1.52a2.282,2.282,0,0,0,2.279-2.28V67.346a.76.76,0,0,0-1.042-.706Z" fill="#194f90"/>
    <path id="Path_433" data-name="Path 433" d="M376.892,75.88a17.276,17.276,0,0,0-4.726-.033c-.606.08-1.207.2-1.8.327a19.146,19.146,0,0,0-10.946,6.782.651.651,0,0,1-1.042,0,12.2,12.2,0,0,0-8.9-5.081.68.68,0,0,0-.7.7v.05a.683.683,0,0,0,.555.685c2.273.378,3.493,3.059,3.493,5.593s-1.22,5.217-3.494,5.593a.683.683,0,0,0-.554.684v.383c0,.252.131.388.291.384a12.119,12.119,0,0,0,9.311-5.1.65.65,0,0,1,1.042,0,19.16,19.16,0,0,0,17.834,7.015c5.073-.65,9.836-4.151,12.572-8.577l0,0a.724.724,0,0,0,0-.757l0,0a19.312,19.312,0,0,0-4.236-4.85,18.043,18.043,0,0,0-6.235-3.243A17.257,17.257,0,0,0,376.892,75.88ZM353.3,89.416a.157.157,0,0,1-.2-.225,9.172,9.172,0,0,0,0-8.587.157.157,0,0,1,.2-.225,12.941,12.941,0,0,1,4.717,4.424.175.175,0,0,1,0,.189A12.949,12.949,0,0,1,353.3,89.416Zm21.1,3.093a17.352,17.352,0,0,1-14.171-7.214.7.7,0,0,1,0-.795A17.353,17.353,0,0,1,374.4,77.285a16.394,16.394,0,0,1,4.3.571,15.306,15.306,0,0,1,1.464.475,16.493,16.493,0,0,1,7.752,6.172.7.7,0,0,1,0,.789A16.18,16.18,0,0,1,374.4,92.509Z" fill="#194f90"/>
    <g id="Group_385" data-name="Group 385">
      <path id="Path_434" data-name="Path 434" d="M396.164,97.115a29.764,29.764,0,0,1-56.235-8.659v5.271a30.96,30.96,0,0,0,57.558,3.388Z" fill="#194f90"/>
      <path id="Path_435" data-name="Path 435" d="M342.013,72.421a29.768,29.768,0,0,1,54.26-1.023,10.414,10.414,0,0,1,.824-1.044,30.953,30.953,0,0,0-55.084-.7Z" fill="#194f90"/>
    </g>
    <path id="Path_436" data-name="Path 436" d="M366.438,88.174l6.254-6.963,1.176,1.152-6.254,6.962Zm0,0" fill="#194f90"/>
    <path id="Path_437" data-name="Path 437" d="M370.874,88.034l6.254-6.962,1.175,1.151-6.253,6.963Zm0,0" fill="#194f90"/>
    <path id="Path_438" data-name="Path 438" d="M375.31,87.865l6.253-6.962,1.176,1.151-6.253,6.963Zm0,0" fill="#194f90"/>
    <g id="Group_386" data-name="Group 386">
      <path id="Path_439" data-name="Path 439" d="M351.022,67.614a3.593,3.593,0,0,0-1.381.88c-.174.219-.227.418-.066.546.239.189.546-.092,1.133-.488.935-.635,1.656-.935,2.514-.254,1.1.875.751,2.046.075,2.9a5.379,5.379,0,0,1-2.116,1.567l-.672-1.416a4.117,4.117,0,0,0,1.669-1.071c.215-.271.214-.429.092-.527-.265-.21-.7.215-1.318.615-.91.591-1.534.674-2.2.142a1.991,1.991,0,0,1-.191-2.936,5.077,5.077,0,0,1,1.857-1.322Z" fill="#194f90"/>
      <path id="Path_440" data-name="Path 440" d="M358.338,64.821l.816,1.137-3.385,2.429-3.408-4.749,3.325-2.386.816,1.137-2.02,1.45.48.669,1.726-1.239.758,1.057-1.726,1.238.538.75Z" fill="#194f90"/>
      <path id="Path_441" data-name="Path 441" d="M359.985,65.425l.151-6.236,1.229-.425,3.963,4.812-1.6.554-.708-.966-1.47.509.047,1.194Zm1.311-4.87.128,2.029,1-.347Z" fill="#194f90"/>
      <path id="Path_442" data-name="Path 442" d="M366.586,63.481l-.3-5.839,4.005-.2.071,1.4-2.4.121.049.971,1.957-.1.066,1.3-1.957.1.11,2.171Z" fill="#194f90"/>
      <path id="Path_443" data-name="Path 443" d="M372.268,60.43a2.806,2.806,0,1,1,2.021,3.546A2.886,2.886,0,0,1,372.268,60.43Zm2.368,2.165c.792.189,1.32-.5,1.5-1.241.184-.769-.022-1.571-.791-1.755s-1.316.481-1.494,1.226S373.859,62.409,374.636,62.6Z" fill="#194f90"/>
      <path id="Path_444" data-name="Path 444" d="M379.615,62.528a2.808,2.808,0,1,1,.789,4.006A2.886,2.886,0,0,1,379.615,62.528Zm1.557,2.807c.692.432,1.41-.051,1.816-.7a1.32,1.32,0,0,0-.192-1.916c-.684-.427-1.4.038-1.807.687C380.575,64.069,380.495,64.912,381.172,65.335Z" fill="#194f90"/>
      <path id="Path_445" data-name="Path 445" d="M383.86,68.968l4.493-3.741,1.438,1.728a2.923,2.923,0,1,1-4.492,3.74Zm4.855-1.118-.411-.493-2.341,1.949.412.494a1.348,1.348,0,0,0,2.019.032A1.331,1.331,0,0,0,388.715,67.85Z" fill="#194f90"/>
    </g>
    <g id="Group_387" data-name="Group 387">
      <path id="Path_446" data-name="Path 446" d="M348.175,99.154,354,96.919l.861.975-2.941,5.5-1.122-1.27.623-1.023-1.03-1.165-1.086.5Zm5-.641-1.828.89.7.8Z" fill="#194f90"/>
      <path id="Path_447" data-name="Path 447" d="M359.85,103.484l-1.406-.917-2.428,3.722-1.345-.877,2.429-3.722-1.413-.922.764-1.173,4.164,2.717Z" fill="#194f90"/>
      <path id="Path_448" data-name="Path 448" d="M369.3,104.353l-.784,5.791-1.59-.216.307-2.267-1.941-.263-.307,2.268-1.591-.216.784-5.79,1.591.215-.29,2.137,1.942.263.288-2.137Z" fill="#194f90"/>
      <path id="Path_449" data-name="Path 449" d="M371.021,107.219a2.808,2.808,0,1,1,3.3,2.408A2.888,2.888,0,0,1,371.021,107.219Zm3.048,1c.8-.152,1-.994.859-1.746-.148-.777-.664-1.424-1.441-1.277s-1,.978-.861,1.731S373.285,108.373,374.069,108.224Z" fill="#194f90"/>
      <path id="Path_450" data-name="Path 450" d="M383.827,105.729l-1.566-2.651.258,2.363-.738.435-1.945-1.366,1.566,2.651-1.383.817-2.973-5.034,1.511-.892,2.483,1.727-.307-3.012,1.5-.888,2.973,5.034Z" fill="#194f90"/>
      <path id="Path_451" data-name="Path 451" d="M389.369,98.569l1.055.92-2.739,3.14-4.406-3.842,2.69-3.084,1.055.92L385.39,98.5l.62.541,1.4-1.6.981.855-1.4,1.6.7.606Z" fill="#194f90"/>
    </g>
  </g>
</svg>
