<svg xmlns="http://www.w3.org/2000/svg" width="29.333" height="29.333" viewBox="0 0 29.333 29.333">
  <g id="Group_537" data-name="Group 537" transform="translate(-1413.171 -9.357)">
    <circle id="Ellipse_143" data-name="Ellipse 143" cx="14.476" cy="14.476" r="14.476" transform="translate(1413.171 38.306) rotate(-89.241)" fill="#fff"/>
    <path id="Path_522" data-name="Path 522" d="M1426.873,26.885a2.418,2.418,0,0,0,1.556,1.178,4.84,4.84,0,0,0,4.9-1.614,8.331,8.331,0,0,0,1.512-7.285,6.449,6.449,0,0,0-4.943-4.115c-2.429-.509-6.588.407-8.2,3.533a5.7,5.7,0,0,0-.131,5.657,3.4,3.4,0,0,0,1.5,1.323.314.314,0,0,0,.494-.2c.116-.334.233-.814.262-.915s.145-.219-.1-.524a3.531,3.531,0,0,1-.7-2.981,5,5,0,0,1,3.621-4.013,5.121,5.121,0,0,1,4.639.843c.93.814,1.425,1.832,1.236,4a5.64,5.64,0,0,1-2.05,4.261,2.016,2.016,0,0,1-2.473-.073,1.721,1.721,0,0,1-.494-1.44c.116-.479.7-2.355.858-3.039a2.4,2.4,0,0,0-.059-1.672,1.386,1.386,0,0,0-1.483-.756,2.364,2.364,0,0,0-1.658,1.628,4.517,4.517,0,0,0,.189,2.749c-.189.93-1.134,4.871-1.279,5.482a8.577,8.577,0,0,0-.247,1.425c-.015.32-.019,1.115.011,1.543s.121,1.207.133,1.334a.144.144,0,0,0,.26.061,23.1,23.1,0,0,0,1.382-2.161,6,6,0,0,0,.633-1.721C1426.4,28.785,1426.873,26.885,1426.873,26.885Z" fill="#7badd3"/>
  </g>
</svg>
