<svg xmlns="http://www.w3.org/2000/svg" width="29.333" height="29.333" viewBox="0 0 29.333 29.333">
  <g id="Group_317" data-name="Group 317" transform="translate(-3021.656 -204.802)">
    <circle id="Ellipse_108" data-name="Ellipse 108" cx="14.476" cy="14.476" r="14.476" transform="translate(3021.656 233.751) rotate(-89.241)" fill="#7badd3"/>
    <path id="Path_381" data-name="Path 381" d="M3035.358,222.33a2.419,2.419,0,0,0,1.556,1.178,4.84,4.84,0,0,0,4.9-1.614,8.331,8.331,0,0,0,1.512-7.285,6.453,6.453,0,0,0-4.944-4.116c-2.428-.508-6.588.408-8.2,3.534a5.7,5.7,0,0,0-.131,5.657,3.4,3.4,0,0,0,1.5,1.323.314.314,0,0,0,.494-.2c.116-.334.233-.814.262-.915s.145-.219-.1-.524a3.529,3.529,0,0,1-.7-2.981,5,5,0,0,1,3.621-4.013,5.117,5.117,0,0,1,4.639.843c.93.814,1.425,1.832,1.236,4a5.636,5.636,0,0,1-2.05,4.26,2.015,2.015,0,0,1-2.473-.072,1.72,1.72,0,0,1-.494-1.44c.116-.479.7-2.355.858-3.039a2.409,2.409,0,0,0-.059-1.672,1.387,1.387,0,0,0-1.483-.756,2.364,2.364,0,0,0-1.658,1.628,4.516,4.516,0,0,0,.189,2.749c-.189.93-1.134,4.871-1.279,5.482a8.573,8.573,0,0,0-.247,1.425c-.015.32-.019,1.115.011,1.543s.121,1.207.133,1.334a.145.145,0,0,0,.26.061,23.013,23.013,0,0,0,1.382-2.162,6.01,6.01,0,0,0,.633-1.72C3034.881,224.23,3035.358,222.33,3035.358,222.33Z" fill="#fff"/>
  </g>
</svg>
