<svg xmlns="http://www.w3.org/2000/svg" width="16.139" height="15" viewBox="0 0 16.139 15">
  <g id="Group_352" data-name="Group 352" transform="translate(-2665.924 -213.149)">
    <g id="Group_347" data-name="Group 347">
      <g id="Group_346" data-name="Group 346">
        <path id="Path_401" data-name="Path 401" d="M2680.808,216.8H2679.1v-3.113a.538.538,0,0,0-.538-.538h-9.129a.538.538,0,0,0-.538.538V216.8h-1.712a1.256,1.256,0,0,0-1.255,1.255v5.413a1.256,1.256,0,0,0,1.255,1.255h1.712v2.888a.538.538,0,0,0,.538.538h9.129a.538.538,0,0,0,.538-.538v-2.888h1.712a1.256,1.256,0,0,0,1.255-1.255v-5.413A1.256,1.256,0,0,0,2680.808,216.8Zm-10.841-2.575h8.053V216.8h-8.053Zm8.053,12.848h-8.053v-4.4h8.053Zm.538-7.114h-1.369a.538.538,0,1,1,0-1.076h1.369a.538.538,0,0,1,0,1.076Z" fill="#fff"/>
      </g>
    </g>
    <g id="Group_349" data-name="Group 349">
      <g id="Group_348" data-name="Group 348">
        <path id="Path_402" data-name="Path 402" d="M2676.025,225.143h-4.063a.468.468,0,0,0,0,.937h4.063a.468.468,0,1,0,0-.937Z" fill="#fff"/>
      </g>
    </g>
    <g id="Group_351" data-name="Group 351">
      <g id="Group_350" data-name="Group 350">
        <path id="Path_403" data-name="Path 403" d="M2676.025,223.664h-4.063a.469.469,0,0,0,0,.938h4.063a.469.469,0,0,0,0-.938Z" fill="#fff"/>
      </g>
    </g>
  </g>
</svg>
