<?xml version="1.0" encoding="UTF-8"?>
<svg width="180px" height="180px" viewBox="0 0 180 180" version="1.1" xmlns="http://www.w3.org/2000/svg" xmlns:xlink="http://www.w3.org/1999/xlink">
    <title>Hover</title>
    <g id="Page-1" stroke="none" stroke-width="1" fill="none" fill-rule="evenodd">
        <g id="Hover">
            <circle id="Oval" fill="#7BADD3" cx="90" cy="90" r="90"></circle>
            <path d="M66,70 L66,82 L62,82 L62,122 L126,122 L126,74 L109.8,74 L102.48,66 L78,66 L78,70 L66,70 Z M94,78 C105.04,78 114,86.96 114,98 C114,109.04 105.04,118 94,118 C82.96,118 74,109.04 74,98 C74,86.96 82.96,78 94,78 Z" id="Shape" fill="#000000" fill-rule="nonzero" opacity="0.3"></path>
            <path d="M126,66 L113.32,66 L106,58 L78,58 L78,66 L102.48,66 L109.8,74 L126,74 L126,122 L62,122 L62,82 L54,82 L54,122 C54,126.4 57.6,130 62,130 L126,130 C130.4,130 134,126.4 134,122 L134,74 C134,69.6 130.4,66 126,66 Z M74,98 C74,109.04 82.96,118 94,118 C105.04,118 114,109.04 114,98 C114,86.96 105.04,78 94,78 C82.96,78 74,86.96 74,98 Z M94,86 C100.6,86 106,91.4 106,98 C106,104.6 100.6,110 94,110 C87.4,110 82,104.6 82,98 C82,91.4 87.4,86 94,86 Z M62,78 L62,66 L74,66 L74,58 L62,58 L62,46 L54,46 L54,58 L42,58 L42,66 L54,66 L54,78 L62,78 Z" id="Shape" fill="#000000" fill-rule="nonzero"></path>
        </g>
    </g>
</svg>