<?xml version="1.0" encoding="UTF-8"?>
<svg width="180px" height="180px" viewBox="0 0 180 180" version="1.1" xmlns="http://www.w3.org/2000/svg" xmlns:xlink="http://www.w3.org/1999/xlink">
    <title>Normal</title>
    <g id="Page-1" stroke="none" stroke-width="1" fill="none" fill-rule="evenodd">
        <g id="Normal">
            <circle id="Oval" fill="#194F90" cx="90" cy="90" r="90"></circle>
            <path d="M66,70 L66,82 L62,82 L62,122 L126,122 L126,74 L109.8,74 L102.48,66 L78,66 L78,70 L66,70 Z M94,78 C105.04,78 114,86.96 114,98 C114,109.04 105.04,118 94,118 C82.96,118 74,109.04 74,98 C74,86.96 82.96,78 94,78 Z" id="Shape" fill="#FFFFFF" fill-rule="nonzero" opacity="0.3"></path>
            <path d="M106.033033,57.925 L77.925,57.925 L77.925,66.075 L102.446967,66.075 L109.766967,74.075 L125.925,74.075 L125.925,121.925 L62.075,121.925 L62.075,81.925 L53.925,81.925 L53.925,122 C53.925,124.220625 54.8333568,126.239423 56.296967,127.703033 C57.7605772,129.166643 59.779375,130.075 62,130.075 L126,130.075 C128.220625,130.075 130.239423,129.166643 131.703033,127.703033 C133.166643,126.239423 134.075,124.220625 134.075,122 L134.075,74 C134.075,71.779375 133.166643,69.7605772 131.703033,68.296967 C130.239423,66.8333568 128.220625,65.925 126,65.925 L113.353033,65.925 L106.033033,57.925 Z M94,77.925 C99.5407,77.925 104.559456,80.1733899 108.193033,83.806967 C111.82661,87.440544 114.075,92.4593 114.075,98 C114.075,103.5407 111.82661,108.559456 108.193033,112.193033 C104.559456,115.82661 99.5407,118.075 94,118.075 C88.4593,118.075 83.440544,115.82661 79.806967,112.193033 C76.1733899,108.559456 73.925,103.5407 73.925,98 C73.925,92.4593 76.1733899,87.440544 79.806967,83.806967 C83.440544,80.1733899 88.4593,77.925 94,77.925 Z M94,86.075 C90.720625,86.075 87.7394228,87.4166432 85.578033,89.578033 C83.4166432,91.7394228 82.075,94.720625 82.075,98 C82.075,101.279375 83.4166432,104.260577 85.578033,106.421967 C87.7394228,108.583357 90.720625,109.925 94,109.925 C97.279375,109.925 100.260577,108.583357 102.421967,106.421967 C104.583357,104.260577 105.925,101.279375 105.925,98 C105.925,94.720625 104.583357,91.7394228 102.421967,89.578033 C100.260577,87.4166432 97.279375,86.075 94,86.075 Z M62.075,45.925 L53.925,45.925 L53.925,57.925 L41.925,57.925 L41.925,66.075 L53.925,66.075 L53.925,78.075 L62.075,78.075 L62.075,66.075 L74.075,66.075 L74.075,57.925 L62.075,57.925 L62.075,45.925 Z" id="Shape" stroke="#FFFFFF" stroke-width="0.15" fill="#000000" fill-rule="nonzero"></path>
        </g>
    </g>
</svg>