<svg xmlns="http://www.w3.org/2000/svg" width="28.952" height="28.952" viewBox="0 0 28.952 28.952">
  <g id="Group_316" data-name="Group 316" transform="translate(-3139.408 -204.601)">
    <path id="Path_379" data-name="Path 379" d="M3168.36,219.077a14.476,14.476,0,1,1-14.476-14.476A14.476,14.476,0,0,1,3168.36,219.077Z" fill="#7badd3"/>
    <g id="Group_315" data-name="Group 315">
      <g id="Group_314" data-name="Group 314">
        <path id="Path_380" data-name="Path 380" d="M3162.051,211.53h-16.334a1.744,1.744,0,0,0-1.742,1.741v11.612a1.745,1.745,0,0,0,1.742,1.742h16.334a1.744,1.744,0,0,0,1.741-1.742V213.271A1.744,1.744,0,0,0,3162.051,211.53Zm-.241,1.161-7.889,7.889-7.958-7.889Zm-16.674,11.952V213.506l5.592,5.545Zm.821.821,5.6-5.6,1.961,1.944a.58.58,0,0,0,.819,0l1.912-1.912,5.565,5.566Zm16.674-.821-5.565-5.566,5.565-5.565Z" fill="#fff"/>
      </g>
    </g>
  </g>
</svg>
