<svg xmlns="http://www.w3.org/2000/svg" width="28.952" height="28.952" viewBox="0 0 28.952 28.952">
  <g id="Group_540" data-name="Group 540" transform="translate(-1570.11 -9.156)">
    <path id="Path_527" data-name="Path 527" d="M1599.062,23.632a14.476,14.476,0,1,1-14.476-14.476A14.476,14.476,0,0,1,1599.062,23.632Z" fill="#fff"/>
    <path id="Path_528" data-name="Path 528" d="M1576.726,29.231a6.705,6.705,0,0,0,3.05,1.361,7.843,7.843,0,0,0,5.866-.986,9.092,9.092,0,0,0,4.739-5.068,7.984,7.984,0,0,0,.563-4.035,5.3,5.3,0,0,0,.891-.562,3.6,3.6,0,0,0,.61-.751s-.61.141-.984.188a1.972,1.972,0,0,1-.705-.047,4.9,4.9,0,0,0,.61-.423,3.033,3.033,0,0,0,.563-.7,1.275,1.275,0,0,0,.141-.517,8.848,8.848,0,0,1-1.126.469,3.46,3.46,0,0,1-.891.141,2.9,2.9,0,0,0-3.238-.891c-2.6.719-2.394,3.988-2.394,3.988a11.273,11.273,0,0,1-3.987-1.032,13.77,13.77,0,0,1-2.91-2.393,3.152,3.152,0,0,0-.375,2.2,3.12,3.12,0,0,0,1.408,2.159,2.338,2.338,0,0,1-.845,0,3.44,3.44,0,0,1-.657-.282,2.452,2.452,0,0,0,.751,2.018,5.5,5.5,0,0,0,1.925,1.267l-1.455.14a3.153,3.153,0,0,0,1.266,1.5,5.735,5.735,0,0,0,1.689.7,12.575,12.575,0,0,1-2.112,1.173A11.432,11.432,0,0,1,1576.726,29.231Z" fill="#7badd3"/>
  </g>
</svg>
