<svg xmlns="http://www.w3.org/2000/svg" width="28.952" height="28.952" viewBox="0 0 28.952 28.952">
  <g id="Group_312" data-name="Group 312" transform="translate(-3100.221 -204.308)">
    <path id="Path_376" data-name="Path 376" d="M3129.173,218.784a14.476,14.476,0,1,1-14.477-14.476A14.478,14.478,0,0,1,3129.173,218.784Z" fill="#7badd3"/>
    <path id="Path_377" data-name="Path 377" d="M3106.837,223.99a6.7,6.7,0,0,0,3.05,1.36,7.837,7.837,0,0,0,5.866-.985,9.1,9.1,0,0,0,4.739-5.068,7.976,7.976,0,0,0,.562-4.035,5.327,5.327,0,0,0,.892-.563,3.619,3.619,0,0,0,.61-.75s-.61.14-.985.187a1.965,1.965,0,0,1-.7-.047,4.946,4.946,0,0,0,.61-.422,3.048,3.048,0,0,0,.563-.7,1.274,1.274,0,0,0,.141-.516,8.982,8.982,0,0,1-1.127.469,3.454,3.454,0,0,1-.891.141,2.9,2.9,0,0,0-3.238-.892c-2.6.719-2.393,3.989-2.393,3.989a11.28,11.28,0,0,1-3.988-1.032,13.781,13.781,0,0,1-2.909-2.393,3.152,3.152,0,0,0-.375,2.205,3.117,3.117,0,0,0,1.408,2.158,2.338,2.338,0,0,1-.845,0,3.466,3.466,0,0,1-.657-.281,2.447,2.447,0,0,0,.75,2.017,5.5,5.5,0,0,0,1.925,1.268l-1.455.14a3.148,3.148,0,0,0,1.267,1.5,5.7,5.7,0,0,0,1.689.7,12.5,12.5,0,0,1-2.112,1.173A11.4,11.4,0,0,1,3106.837,223.99Z" fill="#fff"/>
  </g>
</svg>
