<svg xmlns="http://www.w3.org/2000/svg" width="20.648" height="23.135" viewBox="0 0 20.648 23.135">
  <path id="Path_512" data-name="Path 512" d="M1373.963,95.369a11.172,11.172,0,0,0-.517-4.046c-.062-.182-.111-1.4-2.129-2.191-1.482-.58-3.48-.481-4.956-1.486a2.691,2.691,0,0,1-.117-.586q-.047-.529-.082-1.061a15.531,15.531,0,0,0,.744-1.6,14.405,14.405,0,0,0,.487-1.406.268.268,0,0,0,.137.052l.135.013c.162.015.3-.116.32-.328l.145-1.864a.305.305,0,0,0-.27-.31h-.017a6.8,6.8,0,0,0-.222-2.841,4.12,4.12,0,0,0-3.011-2.36,5.526,5.526,0,0,0-.964-.1h-.012a5.525,5.525,0,0,0-.964.1,4.12,4.12,0,0,0-3.011,2.36,6.8,6.8,0,0,0-.222,2.841h-.017a.305.305,0,0,0-.27.31l.145,1.864c.017.212.159.343.32.328l.135-.013a.264.264,0,0,0,.137-.052,14.44,14.44,0,0,0,.487,1.406,15.313,15.313,0,0,0,.745,1.6c-.025.354-.051.708-.083,1.061a2.691,2.691,0,0,1-.117.586c-1.476,1-3.473.906-4.956,1.486-2.018.789-2.066,2.009-2.128,2.191a11.157,11.157,0,0,0-.518,4.046c-.009.389,0,.977,1.163,1.488a31.9,31.9,0,0,0,9.01,1.523h.3a31.9,31.9,0,0,0,9.01-1.523C1373.963,96.346,1373.972,95.758,1373.963,95.369Z" transform="translate(-1353.316 -75.246)" fill="#fff"/>
</svg>
