<svg xmlns="http://www.w3.org/2000/svg" width="177.43" height="41.812" viewBox="0 0 177.43 41.812">
  <g id="Group_224" data-name="Group 224" transform="translate(-5286.027 -368.416)">
    <g id="Group_219" data-name="Group 219">
      <path id="Path_263" data-name="Path 263" d="M5388.75,390.58c0-4.131-1.764-7.764-7.726-7.764a14.134,14.134,0,0,0-6.818,1.625l.971,3.32a9.992,9.992,0,0,1,4.971-1.4c3.024-.008,3.521,1.712,3.521,2.814v.261c-6.595-.01-10.761,2.272-10.761,6.925a5.489,5.489,0,0,0,5.811,5.5,6.6,6.6,0,0,0,5.3-2.357h.112s.754,3.151,4.905,1.946a26.612,26.612,0,0,1-.289-4.393Zm-4.922,4.363a3.226,3.226,0,0,1-3.448,3.317,2.249,2.249,0,0,1-2.447-2.411c0-2.5,2.757-3.2,5.9-3.18Z" fill="#007dc2"/>
      <path id="Path_264" data-name="Path 264" d="M5286.027,377.191s4.308,17.653,5,20.519c.8,3.344,2.249,4.575,6.417,3.745l2.691-10.946c.681-2.719,1.139-4.657,1.577-7.422h.077a72.433,72.433,0,0,0,1.308,7.432s1.1,4.968,1.656,7.578,2.126,4.253,6.21,3.358l6.41-24.264h-5.175L5310,387.681c-.588,3.054-1.121,5.44-1.533,8.233h-.074c-.374-2.766-.85-5.057-1.448-8.032l-2.279-10.691h-5.391l-2.438,10.422c-.69,3.167-1.336,5.724-1.747,8.422h-.074c-.42-2.541-.981-5.755-1.587-8.82,0,0-1.448-7.455-1.956-10.024Z" fill="#007dc2"/>
      <path id="Path_265" data-name="Path 265" d="M5332.075,390.58c0-4.131-1.764-7.764-7.725-7.764a14.126,14.126,0,0,0-6.818,1.625l.969,3.32a10,10,0,0,1,4.972-1.4c3.027-.008,3.522,1.712,3.522,2.814v.261c-6.6-.01-10.762,2.272-10.762,6.925a5.488,5.488,0,0,0,5.809,5.5,6.609,6.609,0,0,0,5.306-2.357h.111s.754,3.151,4.9,1.946a26.67,26.67,0,0,1-.289-4.393Zm-4.922,4.363a3.222,3.222,0,0,1-3.447,3.317,2.249,2.249,0,0,1-2.447-2.411c0-2.5,2.756-3.2,5.894-3.18Z" fill="#007dc2"/>
      <path id="Path_266" data-name="Path 266" d="M5340.289,396.3V377.191h-4.927v24.264h4.927Z" fill="#007dc2"/>
      <path id="Path_267" data-name="Path 267" d="M5404.755,377.191v17.9c0,2.467.465,4.2,1.459,5.252a5.46,5.46,0,0,0,4.011,1.523,11.7,11.7,0,0,0,3.566-.529l-.064-3.85a7.467,7.467,0,0,1-1.872.223c-1.678,0-2.241-1.075-2.241-3.291v-6.848h4.291v-4.642h-4.291v-5.738Z" fill="#007dc2"/>
      <path id="Path_268" data-name="Path 268" d="M5392.036,383.227v18.228h5.083v-9.334a6.9,6.9,0,0,1,.11-1.345,3.838,3.838,0,0,1,4.018-3.2,9.309,9.309,0,0,1,1.467.13v-4.772a4.859,4.859,0,0,0-1.12-.113,5.365,5.365,0,0,0-4.961,3.849h-.138v-3.438Z" fill="#007dc2"/>
      <path id="Path_269" data-name="Path 269" d="M5343.74,383.227v18.228h4.953v-10.69a4.282,4.282,0,0,1,.232-1.492,3.355,3.355,0,0,1,3.011-2.335c2,0,2.934,1.69,2.934,4.128v10.389h4.948V390.636a5.059,5.059,0,0,1,.206-1.478,3.124,3.124,0,0,1,2.972-2.22c2.026,0,3,1.66,3,4.529v9.988h4.951V390.719c0-5.661-2.874-7.9-6.12-7.9a6.6,6.6,0,0,0-3.6.99,7.677,7.677,0,0,0-2.309,2.27h-.073a5.2,5.2,0,0,0-5.023-3.26,5.734,5.734,0,0,0-5.309,2.888h-.073v-2.477Z" fill="#007dc2"/>
    </g>
    <g id="Group_223" data-name="Group 223">
      <g id="Group_220" data-name="Group 220">
        <path id="Path_270" data-name="Path 270" d="M5440.542,382.492a1.79,1.79,0,0,0,1.9-1.167l.968-10.939c0-1.081-1.266-1.97-2.86-1.97s-2.855.889-2.855,1.97l.966,10.939a1.786,1.786,0,0,0,1.89,1.167Z" fill="#fcba30"/>
        <path id="Path_271" data-name="Path 271" d="M5434.63,385.91a1.786,1.786,0,0,0-.064-2.224l-8.992-6.306c-.934-.541-2.336.11-3.132,1.49s-.656,2.917.277,3.457l9.955,4.636a1.8,1.8,0,0,0,1.959-1.059Z" fill="#fcba30"/>
        <path id="Path_272" data-name="Path 272" d="M5446.459,385.9a1.8,1.8,0,0,0,1.958,1.059l9.957-4.636c.937-.54,1.072-2.079.279-3.457s-2.2-2.031-3.135-1.49l-8.992,6.306a1.794,1.794,0,0,0-.063,2.224Z" fill="#fcba30"/>
      </g>
      <g id="Group_221" data-name="Group 221">
        <path id="Path_273" data-name="Path 273" d="M5440.542,396.156a1.789,1.789,0,0,1,1.9,1.164l.968,10.939c0,1.083-1.266,1.969-2.86,1.969s-2.855-.886-2.855-1.969l.966-10.939a1.785,1.785,0,0,1,1.89-1.164Z" fill="#fcba30"/>
        <path id="Path_274" data-name="Path 274" d="M5446.459,392.74a1.789,1.789,0,0,1,1.958-1.055l9.957,4.63c.937.542,1.072,2.083.279,3.462s-2.2,2.028-3.135,1.489l-8.992-6.3a1.8,1.8,0,0,1-.063-2.227Z" fill="#fcba30"/>
        <path id="Path_275" data-name="Path 275" d="M5434.63,392.738a1.792,1.792,0,0,1-.064,2.227l-8.992,6.3c-.934.539-2.336-.114-3.132-1.489s-.656-2.92.277-3.462l9.955-4.63a1.79,1.79,0,0,1,1.96,1.055Z" fill="#fcba30"/>
      </g>
      <g id="Group_222" data-name="Group 222">
        <path id="Path_276" data-name="Path 276" d="M5461.879,399.034a1.6,1.6,0,1,1-.009,0Zm-.019.274a1.289,1.289,0,0,0,.019,2.576,1.225,1.225,0,0,0,1.225-1.282,1.243,1.243,0,0,0-1.234-1.294Zm-.275,2.146h-.3v-1.636a3.169,3.169,0,0,1,.568-.049.809.809,0,0,1,.518.127.413.413,0,0,1-.156.735v.02a.489.489,0,0,1,.275.392,1.225,1.225,0,0,0,.117.411h-.313a1.14,1.14,0,0,1-.128-.431c-.038-.176-.147-.254-.382-.254h-.2Zm0-.921h.206c.225,0,.421-.069.421-.264,0-.157-.1-.265-.392-.265a1.137,1.137,0,0,0-.235.02Z" fill="#fcba30"/>
      </g>
    </g>
  </g>
</svg>
