<svg xmlns="http://www.w3.org/2000/svg" width="34.852" height="34.852" viewBox="0 0 34.852 34.852">
  <g id="Group_536" data-name="Group 536" transform="translate(-1449.598 -6.206)">
    <circle id="Ellipse_142" data-name="Ellipse 142" cx="14.476" cy="14.476" r="14.476" transform="translate(1449.598 34.376) rotate(-76.656)" fill="#fff"/>
    <path id="Path_516" data-name="Path 516" d="M1464.17,19.183l1.38-4.6h-1.219l-.744,3.29-.851-3.29h-1.179l1.406,4.646v3.116h1.206Z" fill="#7badd3"/>
    <path id="Path_517" data-name="Path 517" d="M1467.532,17.871V21.08a.476.476,0,0,1-.462.457.444.444,0,0,1-.462-.389V17.817c0-.161.228-.321.462-.321A.41.41,0,0,1,1467.532,17.871Zm1.059.041a1.434,1.434,0,0,0-1.527-1.411c-.6,0-1.514.377-1.514,1.223v3.437a1.453,1.453,0,0,0,1.514,1.383,1.394,1.394,0,0,0,1.527-1.37Z" fill="#7badd3"/>
    <path id="Path_518" data-name="Path 518" d="M1472.556,16.649h-1.072s.014,4.123,0,4.378a1.273,1.273,0,0,1-.642.4c-.134,0-.269-.053-.269-.281v-4.5h-1.044v4.888c0,.067-.055.926.683.926a1.841,1.841,0,0,0,1.272-.7v.578h1.072Z" fill="#7badd3"/>
    <path id="Path_519" data-name="Path 519" d="M1468.458,26.42c-.145,0-.322.2-.322.2v2.692a.417.417,0,0,0,.322.188.287.287,0,0,0,.348-.315V26.761A.331.331,0,0,0,1468.458,26.42Z" fill="#7badd3"/>
    <path id="Path_520" data-name="Path 520" d="M1471.44,26.42s-.348.076-.348.315v.645h.695v-.645A.3.3,0,0,0,1471.44,26.42Z" fill="#7badd3"/>
    <path id="Path_521" data-name="Path 521" d="M1473.5,24.425a1.964,1.964,0,0,0-1.711-1.479c-.671-.062-3.289-.087-4.754-.087,0,0-3.474,0-4.665.087a1.958,1.958,0,0,0-1.812,1.579c-.074.535-.1,4.2,0,5.324a1.836,1.836,0,0,0,1.539,1.765c.658.075,3.735.125,4.938.125s3.9-.062,4.642-.1A1.79,1.79,0,0,0,1473.5,30.1,34.515,34.515,0,0,0,1473.5,24.425Zm-10.243,5.735h-.921V25.068h-.948v-.884h2.8v.9h-.935Zm3.247,0h-.808l-.013-.493a1.4,1.4,0,0,1-.909.556s-.582-.038-.582-.569V25.725H1465v3.423c0,.33.126.266.19.266a1.208,1.208,0,0,0,.492-.328c-.013-.24,0-3.361,0-3.361h.821Zm3.108-.721a.747.747,0,0,1-.682.784,1.082,1.082,0,0,1-.8-.4v.342h-.834V24.184h.834V26.1a.849.849,0,0,1,.733-.379.754.754,0,0,1,.745.8Zm3.007-1.377h-1.541v1.012a.4.4,0,0,0,.366.432.386.386,0,0,0,.354-.407v-.543h.821v.631a1.088,1.088,0,0,1-1.162,1.086,1.154,1.154,0,0,1-1.2-1.2V26.748a1.19,1.19,0,0,1,1.251-1.1,1.031,1.031,0,0,1,1.112,1Z" fill="#7badd3"/>
  </g>
</svg>
