<svg xmlns="http://www.w3.org/2000/svg" viewBox="0 0 211.39 211.39"><defs><style>.cls-1{fill:#194f90;}.cls-2{fill:#fff;}</style></defs><g id="Layer_2" data-name="Layer 2"><g id="Layer_1-2" data-name="Layer 1"><circle class="cls-1" cx="105.69" cy="105.69" r="105.69"/><path class="cls-2" d="M203.32,114.15c-.29,0-.32-.06-.25-.28s.1-.52.48-.45c.1,0,.14-.08.13-.16a.76.76,0,0,1,.46-.71,1.73,1.73,0,0,0,.76-1.26,1.55,1.55,0,0,0-.1-.74.3.3,0,0,0-.23-.19,3.88,3.88,0,0,0-1.37-.3c-1.35,0-2.69-.11-4-.08-.49,0-1,.1-1.45.08a12,12,0,0,0-1.34-.08c-.09,0-.19,0-.22-.13s0-.15.1-.2c.7-.44,1.26-1.06,2-1.51s1.44-1,2.23-1.49a6.33,6.33,0,0,0,.8-.59c.52-.38,1-.78,1.57-1.12a.84.84,0,0,0,.05-1.38,3.2,3.2,0,0,0-1.62-.86,9.13,9.13,0,0,1-1.49-.53c-.61-.22-1.23-.46-1.82-.73-.79-.34-1.57-.7-2.38-1s-1.35-.46-2-.68c-.84-.28-1.66-.62-2.49-.92q-.78-.28-1.56-.54c-.88-.28-1.74-.6-2.61-.89-1.53-.51-3.06-1-4.57-1.56-.8-.29-1.6-.56-2.4-.87a.88.88,0,0,0-.23-.07c-.84-.16-1.65-.49-2.48-.7-.44-.11-.87-.3-1.31-.42s-1.09-.27-1.63-.44c-.89-.27-1.78-.54-2.65-.86a15.22,15.22,0,0,0-1.69-.47c-.59-.15-1.19-.29-1.78-.42s-1.21-.29-1.81-.44L163,90.38a19.64,19.64,0,0,0-2.17-.36c-.66-.09-1.31-.25-2-.34s-1.6-.3-2.41-.35-1.54-.25-2.32-.33a1,1,0,0,1-.83-.53,6.56,6.56,0,0,0-1-1.22,14.18,14.18,0,0,1-1.18-1.48c-.54-.71-1.1-1.41-1.69-2.08a7.54,7.54,0,0,1-1-1.19,3.28,3.28,0,0,0-.43-.49c-.69-.71-1.35-1.45-2.06-2.13-.54-.52-1-1.11-1.49-1.67a11.8,11.8,0,0,0-1.61-1.55,9.39,9.39,0,0,1-1.05-.94c-.4-.39-.86-.73-1.23-1.14a.72.72,0,0,0-.24-.14,1,1,0,0,1-.33-.25,9.62,9.62,0,0,0-2.47-2.06c-.24-.13-.47-.28-.7-.43a.56.56,0,0,0-.56-.06.53.53,0,0,1-.17,0,1.39,1.39,0,0,0-1.14.84,2.6,2.6,0,0,0-.4,1.15,3.69,3.69,0,0,1-.29,1.21,3,3,0,0,0-.2.73c-.22,1.11-.44,2.23-.65,3.34-.07.41-.1.82-.14,1.23a11.52,11.52,0,0,1-.56,2.59c-.22.71-.46,1.42-.72,2.11a7.22,7.22,0,0,0-.32,1.52c-.09.53-.14,1.07-.2,1.6a.73.73,0,0,0,.22.66c.22.22.43.45.64.67,0,0,.12.09.08.17s-.09.07-.15.07c-.22,0-.43.05-.65.06-1.07,0-2.15.17-3.23.16a9.88,9.88,0,0,0-1.71.15c-.59.09-1.19.09-1.78.18l-1.44.18-.37,0a1.19,1.19,0,0,1-1-.41c-.61-.65-1.27-1.23-1.93-1.82a4.41,4.41,0,0,1-.46-.51c-.47-.54-.93-1.08-1.42-1.6a20.59,20.59,0,0,0-1.84-1.9c-.66-.55-1.31-1.11-1.95-1.69s-1.07-.87-1.6-1.31c-.81-.67-1.66-1.29-2.47-2a14.59,14.59,0,0,0-2.82-1.85,6,6,0,0,0-1.84-.52,2.34,2.34,0,0,0-.79.08,12,12,0,0,0-1.65.49,4.82,4.82,0,0,0-1.8,1.18c-.38.37-.74.75-1.1,1.14-.66.7-1.33,1.39-2.06,2a6.27,6.27,0,0,0-1,1,9.39,9.39,0,0,1-.86,1c-.73.77-1.4,1.58-2.07,2.4a10.22,10.22,0,0,1-1.75,1.79,3.25,3.25,0,0,0-.42.41c-.73.83-1.64,1.47-2.41,2.26a7.67,7.67,0,0,1-.77.84c-.5.4-.92.89-1.39,1.33-.24.23-.4.53-.66.74s-.12.31.06.48a3.82,3.82,0,0,0,.64.48c.13.08.35.13.33.3s-.25.15-.4.19c-.6.17-1.22.16-1.83.27-.81.15-1.62.21-2.43.29a7.94,7.94,0,0,0-.85.15c-.79.15-1.59.19-2.39.31a11.34,11.34,0,0,1-1.3.08,8.65,8.65,0,0,0-.89.11,4.41,4.41,0,0,1-.52,0A.62.62,0,0,1,77,96,12.9,12.9,0,0,0,76,95a3.7,3.7,0,0,1-.49-.48,5,5,0,0,0-1-.88c-.12-.1-.26-.19-.37-.3-.72-.71-1.51-1.35-2.29-2l-2.61-2.15c-.19-.16-.4-.3-.6-.45-1.08-.81-2.18-1.57-3.3-2.32-.65-.44-1.3-.9-2-1.31a3.81,3.81,0,0,0-1.57-.47,3,3,0,0,0-2.26.72,9.81,9.81,0,0,1-1.72,1.2,3.17,3.17,0,0,0-.64.52c-.68.6-1.4,1.15-2,1.81a18,18,0,0,1-2,1.72,5.56,5.56,0,0,0-.51.47c-.46.46-1,.85-1.47,1.29a8.48,8.48,0,0,0-.93.87,2.93,2.93,0,0,1-.62.48c-.7.51-1.31,1.11-2,1.68s-1.15,1-1.76,1.49a9.92,9.92,0,0,0-1.94,1.89c-.16.2-.36.36-.53.54a.78.78,0,0,0,.21,1.27l.42.22a.21.21,0,0,1,.12.23c0,.11-.12.13-.22.14s-.5,0-.75,0c-.72.1-1.43.25-2.14.38-.95.17-1.9.32-2.86.42-.64.06-1.28,0-1.93.05a1,1,0,0,1-.3,0,19.53,19.53,0,0,1-3.27-1,22,22,0,0,1-3-1.41c-1.32-.83-2.77-1.44-4.09-2.29-.63-.4-1.3-.72-2-1.07-.93-.49-1.8-1.07-2.71-1.58s-1.61-1.06-2.5-1.45c-.63-.29-1.18-.72-1.78-1s-1.2-.68-1.8-1c-.8-.46-1.6-.93-2.42-1.39a20.68,20.68,0,0,0-2.41-1.18c-.34-.13-.72-.15-1.05-.31a2.41,2.41,0,0,0-.73-.2l-.44,0a.56.56,0,0,0-.55.32,3.9,3.9,0,0,0-.46,1.1.9.9,0,0,0,0,.7.41.41,0,0,1,0,.37,2.57,2.57,0,0,0-.29,1.49,4.4,4.4,0,0,1-.08.89,1.55,1.55,0,0,0,0,.48,3.39,3.39,0,0,1,0,.45,4.74,4.74,0,0,0,.06.75,9.65,9.65,0,0,1,.15,1.78,4,4,0,0,0,.1,1,2.1,2.1,0,0,1,0,.79,6.55,6.55,0,0,0,0,1A4.53,4.53,0,0,0,7,100.68a2.4,2.4,0,0,1-.07,1,4.16,4.16,0,0,0,0,1.27.71.71,0,0,1,0,.2c-.13.82.08,1.63,0,2.44a1.58,1.58,0,0,1,0,.38,2.17,2.17,0,0,0,0,1.16c.08.47,0,1,.11,1.44a1.47,1.47,0,0,1,0,.55,1.38,1.38,0,0,0,0,.64,1.14,1.14,0,0,1,0,.45,4.5,4.5,0,0,0,0,1.37A1,1,0,0,1,7,112a7,7,0,0,0-.11,2.5,1,1,0,0,1,0,.38,1.59,1.59,0,0,0,0,.75,2.26,2.26,0,0,1,0,.58,9.22,9.22,0,0,0,.1,2c0,.15,0,.31,0,.47a3.25,3.25,0,0,0,.23,1.07,1.86,1.86,0,0,1,.09.78,14.14,14.14,0,0,0,0,1.72,17.66,17.66,0,0,1,.16,2.3,7.64,7.64,0,0,0,.25,1.59.63.63,0,0,0,.55.47A1.2,1.2,0,0,0,9,126.5c.6-.34,1.25-.58,1.85-.92a5.05,5.05,0,0,1,.53-.24,21,21,0,0,0,2.85-1.61,7.21,7.21,0,0,1,.74-.36c.83-.43,1.68-.82,2.48-1.28,1.16-.68,2.37-1.27,3.53-1.94.65-.38,1.31-.72,2-1.07s1.48-.84,2.21-1.27c1-.6,2-1.19,3-1.78.41-.25.77-.58,1.21-.8a12.17,12.17,0,0,0,1.73-1.12,5.24,5.24,0,0,1,1.09-.65,13.35,13.35,0,0,0,1.56-.89A8.9,8.9,0,0,1,35,112a5.89,5.89,0,0,1,2-.58,9.52,9.52,0,0,1,2.2,0c.55.08,1.12.12,1.67.2a9.22,9.22,0,0,1,2.69.56c.23.1.47.17.71.25s.21.07.21.2-.11.19-.23.22a5.13,5.13,0,0,0-.78.27c-.2.08-.22.15-.12.34a.84.84,0,0,0,.15.18,15.59,15.59,0,0,0,1.23,1.06,7.29,7.29,0,0,0,1.5.82,4.43,4.43,0,0,1,1.11.75s.1.11.16.13c.69.31,1.2.88,1.88,1.2a4.19,4.19,0,0,1,.63.48c.59.47,1.2.93,1.77,1.42s1.3,1,1.87,1.63a.69.69,0,0,0,.13.11c.84.5,1.51,1.23,2.36,1.72l.14.11c.58.52,1.21,1,1.82,1.46a23.38,23.38,0,0,1,2.11,1.86,13.39,13.39,0,0,0,1.12,1,3.32,3.32,0,0,0,1.61.83,4,4,0,0,0,2.39-.29c.27-.14.56-.25.85-.37a.45.45,0,0,0,.12-.06c.41-.36.93-.53,1.36-.88.58-.46,1.21-.87,1.8-1.32a8.4,8.4,0,0,0,1-.83,18,18,0,0,1,2.36-2,.49.49,0,0,0,.14-.11,8.85,8.85,0,0,1,1.34-1.18c.28-.24.48-.55.74-.81s.88-.7,1.27-1.11a.35.35,0,0,1,.24-.12,4.87,4.87,0,0,1,.93-.08c.88.07,1.75.21,2.63.33a17.78,17.78,0,0,0,1.77.21c.4,0,.8.12,1.2.16.87.08,1.72.31,2.59.33a2,2,0,0,1,.55.08,6.48,6.48,0,0,0,1.58.29,6.35,6.35,0,0,1,1.07.09c.09,0,.21,0,.26.14s-.06.21-.14.29a.9.9,0,0,1-.18.16c-.41.24-.55.69-.8,1.06a.14.14,0,0,0,.08.22c.41.14.71.46,1.12.61a2.78,2.78,0,0,1,.47.28,17.59,17.59,0,0,0,1.78,1c.72.36,1.49.62,2.18,1a22.75,22.75,0,0,1,2.67,1.42,1.5,1.5,0,0,0,.39.22,1.39,1.39,0,0,1,.5.36,1.13,1.13,0,0,0,.57.35,2.79,2.79,0,0,1,.72.39,9.48,9.48,0,0,0,1.73.83.88.88,0,0,1,.22.1,14.33,14.33,0,0,0,1.74,1,9.24,9.24,0,0,1,1.41.61l1.84.77a1.82,1.82,0,0,1,.31.16,23.69,23.69,0,0,0,3,1.68,32.44,32.44,0,0,0,3.39,1.43,10.09,10.09,0,0,0,1.16.33,6.25,6.25,0,0,1,2.41,1,2.56,2.56,0,0,0,1.82.38c.23,0,.45-.07.68-.12a4.18,4.18,0,0,0,2.53-1.48,1,1,0,0,1,.14-.15,8.3,8.3,0,0,0,1.52-1.67c.36-.46.69-.93,1-1.41a11.9,11.9,0,0,0,.77-1.34,9.56,9.56,0,0,1,1.21-1.92c.15-.18.26-.38.39-.56a8.25,8.25,0,0,1,.92-1,.67.67,0,0,1,.52-.21c.53,0,1,.07,1.58.1l.85,0c.71,0,1.42.1,2.13.1a16.55,16.55,0,0,1,2.44.12c.1,0,.2,0,.31,0,.94,0,1.88,0,2.82,0,.67,0,1.33-.08,2-.06s1.14.07,1.72.07.94-.06,1.4-.1l.9-.05c.49,0,1-.07,1.47-.1a.52.52,0,0,1,.17,0,10.38,10.38,0,0,0,2.23,0,19.13,19.13,0,0,0,2-.1,10,10,0,0,1,1.23-.07c.89,0,1.77-.09,2.65-.11.55,0,1.1-.09,1.65-.14a4.38,4.38,0,0,1,.51,0c.62,0,1.24-.1,1.85-.12s1.19-.09,1.79-.16c.88-.11,1.78-.15,2.67-.25a8.93,8.93,0,0,1,1.37-.09,7.6,7.6,0,0,0,1.84-.23c.44-.1.88-.17,1.32-.25a1,1,0,0,1,.17,0c.07,0,.15,0,.18.09s0,.13-.07.18a1.94,1.94,0,0,1-.71.48c-1,.44-2.07.82-3.09,1.27-.67.3-1.36.55-2,.91a5.83,5.83,0,0,0-1.85,1.57,1.23,1.23,0,0,0-.25.6,4.19,4.19,0,0,1-.37,1.25c-.27.61-.52,1.23-.77,1.84a3.78,3.78,0,0,1-.3.51,13.28,13.28,0,0,1-1.41,1.78c-.55.58-1,1.23-1.62,1.78a6.57,6.57,0,0,0-1.32,1.92,2.83,2.83,0,0,0-.27.58,1.1,1.1,0,0,0,.55-.07,12.9,12.9,0,0,0,2-1c.43-.28.91-.48,1.35-.75l.47-.29c.62-.44,1.29-.8,1.89-1.26s1.52-1,2.23-1.61a1.44,1.44,0,0,1,.25-.18,16.42,16.42,0,0,0,2-1.47,4.24,4.24,0,0,1,.82-.56,1.5,1.5,0,0,0,.42-.29c.51-.5,1.11-.89,1.64-1.37l1.46-1.31c.52-.45,1-.91,1.56-1.35s1-.88,1.47-1.34,1.08-1,1.62-1.55.8-.85,1.21-1.27a3.64,3.64,0,0,1,1.42-1c.38-.13.77-.24,1.15-.35l2.86-.79c.31-.09.6-.21.91-.32,1.25-.42,2.51-.82,3.79-1.16.6-.16,1.18-.37,1.77-.58,1.73-.61,3.46-1.23,5.23-1.72a1.71,1.71,0,0,0,.57-.25,1.12,1.12,0,0,1,.22-.1c1.79-.56,3.52-1.26,5.3-1.85a19.78,19.78,0,0,0,2.27-.82c.69-.31,1.41-.54,2.09-.88.48-.25,1-.36,1.5-.61.18-.09.26,0,.29.16a1.35,1.35,0,0,1-.19.83c-.06.12-.23.28-.09.39s.23-.11.35-.18a1.09,1.09,0,0,0,.25-.23A4,4,0,0,0,203.32,114.15Z"/></g></g></svg>