<svg xmlns="http://www.w3.org/2000/svg" viewBox="0 0 211.39 211.39"><defs><style>.cls-1{fill:#194f90;}.cls-2{fill:#fff;}</style></defs><g id="Layer_2" data-name="Layer 2"><g id="Layer_1-2" data-name="Layer 1"><circle class="cls-1" cx="105.69" cy="105.69" r="105.69"/><path class="cls-2" d="M154.13,133.53a2.75,2.75,0,0,0,.81-.88c.1-.24.39-.42.53-.69a11,11,0,0,1,1-1.54c.82-1,1.54-2.15,2.25-3.27a28.64,28.64,0,0,0,2.15-3.57.77.77,0,0,1,.59-.45,11.34,11.34,0,0,0,2.5-.78,16.07,16.07,0,0,0,1.65-.57,12.34,12.34,0,0,1,1.3-.68c.83-.3,1.61-.72,2.44-1,1-.29,2-.54,3.08-.74.81-.15,1.63-.28,2.44-.44.49-.1,1-.27,1.48-.4.75-.2,1.43-.6,2.21-.74a8.72,8.72,0,0,0,1.21-.34c1.43-.44,2.81-1,4.24-1.49a16.35,16.35,0,0,0,2.84-1.1c.4-.22.85-.33,1.27-.52.63-.29,1.22-.65,1.82-1,1-.53,1.87-1.26,2.87-1.8.57-.32,1.11-.71,1.67-1.07s.56-.28.87.1a7.93,7.93,0,0,1,1.35,2.49,3.33,3.33,0,0,0,.4,1,.36.36,0,0,1,.05.25.93.93,0,0,0,.14.7c.12.14,0,.34,0,.52s0,.27.13.29.18-.13.2-.26a.67.67,0,0,0,0-.2c-.19-.57,0-1.18-.16-1.76a3,3,0,0,1,0-1,.77.77,0,0,0,0-.33,7.32,7.32,0,0,0-1-2.6.59.59,0,0,1-.07-.76,1.12,1.12,0,0,0-1-1.68c-.75,0-1.5.06-2.25,0-.39,0-.77.2-1.19.18H191c-.08,0-.19,0-.21-.12a.16.16,0,0,1,.12-.18,21.45,21.45,0,0,1,2-1.19,21.46,21.46,0,0,0,2.23-.87c.77-.43.95-1,.47-1.71a.29.29,0,0,1,0-.33,2.34,2.34,0,0,0-1-2.75,18.27,18.27,0,0,0-2.28-1c-1.59-.6-3.17-1.21-4.8-1.68-1.21-.36-2.4-.79-3.62-1.14-2-.58-3.93-1.17-5.9-1.74-1.74-.5-3.46-1-5.18-1.56-1.13-.34-2.23-.77-3.37-1.09-1.55-.44-3.08-1-4.65-1.35-1-.26-2.07-.53-3.09-.82q-3.66-1-7.37-1.84c-.86-.18-1.71-.41-2.56-.57-1.16-.22-2.32-.4-3.48-.59a.69.69,0,0,1-.51-.34c-.82-1.34-1.78-2.58-2.61-3.91s-1.79-2.1-2.58-3.22a12.78,12.78,0,0,0-1.29-1.55c-.48-.48-1-.93-1.47-1.42s-.9-1-1.34-1.47a8.89,8.89,0,0,0-1.12-1c-.53-.42-1.09-.8-1.63-1.2a.92.92,0,0,0-.49-.2,7.29,7.29,0,0,0-3.94.62,4,4,0,0,0-1.61,1.37c-.3.47-.67.91-.94,1.41a11.45,11.45,0,0,0-1,2.85c-.21.86-.34,1.73-.55,2.59a13.21,13.21,0,0,0-.52,3.31c0,.18,0,.35,0,.53a.33.33,0,0,1-.33.41,16.28,16.28,0,0,1-2.21.1l-.1,0c-.6.16-.9-.24-1.2-.64a21.74,21.74,0,0,0-2.35-2.72c-.51-.49-.87-1.11-1.39-1.59-.71-.67-1.44-1.32-2.13-2a26.05,26.05,0,0,0-2.5-2.2,13.91,13.91,0,0,1-1.16-.86,7.71,7.71,0,0,0-2.45-1.55,5.47,5.47,0,0,0-3.68,0c-1.27.38-2.45,1-3.67,1.49a10.37,10.37,0,0,1-1,.31,20.87,20.87,0,0,0-3.7,1.75,19.27,19.27,0,0,0-2.13,1.07c-1,.7-2.06,1.27-3.09,1.91a12.8,12.8,0,0,0-1,.79,1.54,1.54,0,0,1-.3.22,1.4,1.4,0,0,0-.91.94c-.14.51-.71.78-.87,1.3a12.8,12.8,0,0,1-.59,1.31A2,2,0,0,0,89.84,87a1.92,1.92,0,0,1,.09.59c0,.19-.12.27-.27.28-.65,0-1.29.2-1.94.22l-2.32.12a.54.54,0,0,1-.4-.13c-1.12-1-2.28-1.88-3.37-2.88-.75-.68-1.56-1.27-2.3-2a3.44,3.44,0,0,0-1-.7.86.86,0,0,1-.33-.23,7.67,7.67,0,0,0-1.6-1.29c-.56-.47-1.1-1-1.67-1.41a16.28,16.28,0,0,0-3.42-2.39A2.17,2.17,0,0,0,70,77.14a7.42,7.42,0,0,0-2.67,1.21c-1.12.75-2.33,1.38-3.47,2.1-.62.4-1.18.89-1.77,1.34s-1.2.87-1.79,1.32c-.77.59-1.6,1.11-2.36,1.72a12.24,12.24,0,0,1-1.24.84c-.5.31-.91.76-1.38,1.12s-.72.53-1.1.77a4.86,4.86,0,0,0-1,.8c-.37.4-.89.6-1.27,1a5.6,5.6,0,0,0-1.48,2.29.38.38,0,0,0,.26.53l.13,0c.15.06.33.11.29.31s-.21.22-.37.21c-.68,0-1.34.16-2,.18-.94,0-1.87.18-2.81.21-.6,0-1.18.11-1.77.19a1.1,1.1,0,0,1-.78-.11,11.57,11.57,0,0,0-1.86-.77,2.34,2.34,0,0,1-.63-.32,1,1,0,0,0-.68-.24.19.19,0,0,1-.16,0A7.35,7.35,0,0,0,38.23,91c-.51-.26-1.11-.4-1.61-.66-.92-.48-1.88-.86-2.81-1.33s-1.93-.94-2.9-1.41c-.8-.39-1.66-.66-2.47-1-.59-.28-1.15-.63-1.77-.88l-3.2-1.33c-.78-.33-1.59-.63-2.36-1-.6-.28-1.23-.45-1.83-.72-.78-.33-1.57-.66-2.37-.94a7.09,7.09,0,0,0-1.05-.31.56.56,0,0,0-.62.23,1.1,1.1,0,0,0-.32,1.08A3.16,3.16,0,0,1,14.81,84a6.84,6.84,0,0,0-.05,2.43,4.46,4.46,0,0,1,0,2.18,3.16,3.16,0,0,0,0,1.43A8.09,8.09,0,0,1,15,92.13a10.17,10.17,0,0,0,0,2.34,1.37,1.37,0,0,1,0,.87c-.1.21,0,.41.06.62a4.69,4.69,0,0,1-.11,1c0,.91-.18,1.82-.2,2.74s-.13,1.82-.16,2.74a12.76,12.76,0,0,1-.11,1.49,13.12,13.12,0,0,0-.14,1.66,1,1,0,0,1-.07.39c-.18.35,0,.71,0,1s0,.62-.06.94a17,17,0,0,0,0,1.89,4.87,4.87,0,0,1-.28,1.55,1.1,1.1,0,0,0,.42,1.12,4.14,4.14,0,0,0,1.61.43,13.63,13.63,0,0,0,3.76-.56c.93-.22,1.82-.56,2.74-.78A11.1,11.1,0,0,0,25,110.53c.58-.31,1.24-.44,1.84-.74s1.5-.66,2.24-1,1.26-.51,1.9-.75c.79-.29,1.53-.69,2.31-1,.37-.15.73-.34,1.1-.49.9-.37,1.78-.79,2.71-1.1a4.67,4.67,0,0,1,1.09-.31c.35,0,.61-.28.94-.35a14.23,14.23,0,0,0,2-.49,14.15,14.15,0,0,1,1.92-.47c.39-.08.79,0,1.17-.08.63-.14,1.27,0,1.89-.11a2.09,2.09,0,0,1,.89.07c.41.11.87.06,1.29.14,1,.19,1.95,0,2.91.28.15,0,.32,0,.4.2s-.1.26-.2.34a.71.71,0,0,0-.16,1,12.35,12.35,0,0,1,.46,1.25,5.1,5.1,0,0,0,1.06,1.34c.64.74,1.31,1.46,2,2.18.23.25.51.47.74.72s.43.65.69.93c.46.49.93,1,1.36,1.49.55.67,1.24,1.21,1.8,1.86a3.83,3.83,0,0,0,.29.28c.83.8,1.65,1.61,2.51,2.38.54.49,1,1,1.58,1.52.84.77,1.7,1.52,2.5,2.33a8.31,8.31,0,0,0,1.12.79,1.1,1.1,0,0,1,.14.09,2.47,2.47,0,0,0,2.35.58,1.18,1.18,0,0,1,.46,0,.27.27,0,0,0,.26,0c.24-.26.61-.28.87-.5s.56-.14.82-.26a7.33,7.33,0,0,0,1.23-.67c1.21-.81,2.51-1.47,3.73-2.25.82-.51,1.61-1.06,2.39-1.63.45-.34,1-.61,1.45-.91a16.26,16.26,0,0,0,1.57-1.31c.71-.56,1.39-1.16,2.07-1.76.23-.19.44-.41.66-.62a.81.81,0,0,1,.89-.17c.62.2,1.25.36,1.87.55a1.46,1.46,0,0,1,.72.34c.1.11.22.06.34.08s.35.06.37.23-.17.21-.3.27c-.35.16-.75.24-.87.7,0,0-.12.09-.19.12a.5.5,0,0,0-.2.77c.17.2.14.47.24.69a12.24,12.24,0,0,0,.67,1.36c.9,1.54,1.92,3,2.93,4.5.58.85,1.11,1.74,1.72,2.57a9.77,9.77,0,0,0,1.85,2.11c.16.12.27.3.42.43a13.89,13.89,0,0,0,1.69,1.56,3.54,3.54,0,0,1,.83.67c.21.25.54.35.79.56a12.08,12.08,0,0,0,1.53,1.13,9.76,9.76,0,0,1,1,.59.35.35,0,0,0,.26.06,10.56,10.56,0,0,0,2.59-.53c.77-.28,1.55-.56,2.3-.9a31.31,31.31,0,0,0,3.58-1.89c.88-.53,1.63-1.23,2.45-1.83s1.54-1.32,2.35-1.93c.46-.33.8-.81,1.27-1.14s.94-.6,1.37-1c.26-.23.57,0,.82.06a3.45,3.45,0,0,0,1.42.34,9,9,0,0,1,2.32.26,8.31,8.31,0,0,1,1.64.3,2.52,2.52,0,0,0,.64,0c.65.07,1.25.35,1.92.4a12.5,12.5,0,0,1,2.15.4,4.29,4.29,0,0,0,.8,0c.53,0,1.06.08,1.59.14a28.27,28.27,0,0,0,3.44.24c1.75,0,3.49.24,5.24.21.74,0,1.48,0,2.23,0,1.64-.06,3.28-.23,4.93-.3s3.12-.25,4.69-.38c.12,0,.26,0,.35.07s0,.25-.09.36a1.11,1.11,0,0,1-.22.3c-.46.39-.59,1-.93,1.45-.7,1-.92,2.14-1.58,3.11-.1.14-.06.3-.12.45a8.4,8.4,0,0,0-.41.87c-.17.61-.7,1.14-.52,1.85.05.16-.09.27-.17.39a.93.93,0,0,0-.26.76.71.71,0,0,1-.23.53.84.84,0,0,0-.21.55,2.67,2.67,0,0,1-.86,1.73c-.14.14-.29.28-.42.43a.47.47,0,0,0,0,.62c.08.11.27.22.34.12.16-.26.36-.18.58-.19a.49.49,0,0,0,.48-.36.36.36,0,0,1,.39-.3c.26,0,.42-.23.56-.38a8.56,8.56,0,0,1,1.22-.88,12.72,12.72,0,0,0,2.34-2.41c.75-1,1.53-1.89,2.31-2.83.17-.2.31-.43.61-.45s.27,0,.23.26a5.43,5.43,0,0,1-.69,1.69A1.87,1.87,0,0,0,154.13,133.53Z"/></g></g></svg>