<svg xmlns="http://www.w3.org/2000/svg" viewBox="0 0 211.39 211.39"><defs><style>.cls-1{fill:#194f90;}.cls-2{fill:#fff;}</style></defs><g id="Layer_2" data-name="Layer 2"><g id="Layer_1-2" data-name="Layer 1"><circle class="cls-1" cx="105.69" cy="105.69" r="105.69"/><path class="cls-2" d="M13.18,134.24a10.8,10.8,0,0,0,1.33-3.56c.1-.67.38-1.3.49-2,.14-1,.2-1.92.3-2.88a2.05,2.05,0,0,1,.1-.48c.48-1.47.9-3,1.45-4.41.49-1.28,1.14-2.5,1.69-3.76a7.75,7.75,0,0,0,.59-1.65,12,12,0,0,1,1.08-3.24,5.4,5.4,0,0,0,.5-1.75,7.7,7.7,0,0,0-.09-2.09,11.68,11.68,0,0,1,.07-3.59,1.27,1.27,0,0,0-.08-.54,19.71,19.71,0,0,1-.77-1.92,5.29,5.29,0,0,0-.71-2,9,9,0,0,1-.94-2,6.26,6.26,0,0,1-.25-1.14,8.06,8.06,0,0,0-.17-.88c-.27-.77-.59-1.53-.84-2.3-.15-.49-.18-1-.34-1.5-.23-.73-.6-1.43-.76-2.18s-.19-1.82-.32-2.73a6.74,6.74,0,0,1-.1-2.57.9.9,0,0,0-.09-.47c-.34-.93-.71-1.86-1.05-2.8-.24-.65,0-1,.64-1.08a2.27,2.27,0,0,1,.69,0c.46.08.92.2,1.38.29a17.64,17.64,0,0,1,5.78,2.51,46.59,46.59,0,0,1,4.17,2.93c1.76,1.37,3.46,2.81,5.17,4.23,1,.87,2.08,1.76,3.12,2.64,1.59,1.32,3.16,2.66,4.77,4,.89.71,1.86,1.33,2.78,2A5.71,5.71,0,0,1,44,100.44a1.87,1.87,0,0,0,1.31.79,10.91,10.91,0,0,0,2,.17c1-.05,1.92-.25,2.87-.38l6.23-.85c.31,0,.61-.11.91-.17v-.14c-.42-.14-.84-.29-1.27-.41-.71-.21-.89-.48-.56-1.15A11.21,11.21,0,0,1,57,95.94a3.37,3.37,0,0,1,3.28-1.32,14.31,14.31,0,0,1,3.45,1.27,3.4,3.4,0,0,0,1.92.67c1.61-.2,3.22-.4,4.83-.64s3.5-.56,5.25-.83c2.18-.33,4.36-.63,6.53-.94,1.48-.22,3-.46,4.44-.64,2.52-.29,5-.53,7.57-.8.19,0,.37-.08.63-.14a2,2,0,0,1-.44-.37.44.44,0,0,1,0-.37c.45-.69,1-1.35,1.36-2.07a18.35,18.35,0,0,0,1.15-2.46,27.25,27.25,0,0,0,.83-2.8c.1-.37,0-.79.08-1.17.16-.88.42-1.74.54-2.63a11.75,11.75,0,0,0,.07-4.14,1.07,1.07,0,0,1,1.12-1.37A4.36,4.36,0,0,1,102,76c1.27.76,2.48,1.62,3.69,2.46,1.81,1.26,3.64,2.48,5.36,3.84s3.11,2.76,4.68,4.11a19.52,19.52,0,0,0,2.4,1.77,9.2,9.2,0,0,0,3.39.84c.85.14,1.72.22,2.58.31,1.9.22,3.81.57,5.72.62a57.11,57.11,0,0,1,8.76.64c1.19.22,2.41.35,3.6.57,1.82.33,3.63.7,5.44,1.07,1.59.33,3.19.65,4.77,1,1.09.27,2.15.67,3.23,1l3.51,1.14c2,.64,4,1.3,5.94,1.92a45.44,45.44,0,0,0,4.69,1.33,98.77,98.77,0,0,0,10.94,1.73c1.7.13,3.39.22,5.09.33.7,0,1.4.07,2.1.14,1.34.14,2.69.27,4,.48a10.92,10.92,0,0,1,4.93,1.6,3.11,3.11,0,0,1,1.14,3.61.49.49,0,0,0,0,.21,1.55,1.55,0,0,1-.55,1.27h0c.1.54-.47,1-1.29,1a6.73,6.73,0,0,0,.4-.87,1.81,1.81,0,0,0,0-.56c-.14.11-.29.21-.42.33s-.41.4-.61.6l-.14-.1.09-.49a1.71,1.71,0,0,0-.33-1.45c-.16-.2-.31-.21-.4.07s-.16.39-.25.63c-.34-.26-.61-.48-.9-.67s-.36-.2-.49.08c0,.06-.1.16-.13.15-.42-.12-.71.15-1.06.31a5.07,5.07,0,0,1-.83.2.8.8,0,0,0-1,.66,11.53,11.53,0,0,0-1.16.72c-.84.69-1.67,1.4-2.47,2.14a9.73,9.73,0,0,0-1.58,1.63,18.92,18.92,0,0,1-2.67,3.18,4,4,0,0,0-.34.43,3.34,3.34,0,0,0,.89.18c.81,0,1.63-.08,2.43-.2,1.36-.21,2.71-.48,4.06-.75a3.75,3.75,0,0,0,.76-.3c.32-.13.65-.41.93-.37.44.06.63-.15.94-.32s.76-.2,1-.52c.72.16.9-.68,1.48-.79,0,0,.07-.24.06-.36,0-.45,0-.48.39-.31s.38,0,.36-.27-.06-.46-.1-.78c.23.08.4.14.56.21.37.15.67,0,.66-.43a1.52,1.52,0,0,0-.18-.57c-.11-.22-.25-.43-.44-.76l.75.08c0-.43.23-.36.49-.21a3.15,3.15,0,0,1,1.36,1.61,2.65,2.65,0,0,1-.24,2.54,12.08,12.08,0,0,1-3,2.9c-.84.72-1.74,1.39-2.64,2-1.12.82-2.27,1.61-3.42,2.39a9.64,9.64,0,0,1-1,.54c-1.13.62-2.23,1.31-3.4,1.85-1.46.68-3,1.25-4.46,1.87-1,.42-2,.93-3.09,1.28-2.11.7-4.24,1.37-6.38,2s-4.47,1.1-6.7,1.67c-1.4.37-2.77.83-4.18,1.17s-3.06.65-4.61.92c-1.82.3-3.65.55-5.48.82-1.43.21-2.86.45-4.31.6-1.29.14-2.6.16-3.9.26-1,.07-1.89.19-2.84.27-1.17.1-2.34.18-3.5.26a3.31,3.31,0,0,1-.44,0c-1.23,0-2.46-.1-3.68-.08-1.83,0-3.66.13-5.49.13-1.63,0-3.26-.1-4.88-.13-.68,0-1.35.08-2,.06-2.07-.07-4.13-.15-6.2-.26a37.91,37.91,0,0,0-6.55.6c-1.68.2-3.35.5-5,.71s-3.27.32-4.9.55A11.29,11.29,0,0,1,92,136a10.24,10.24,0,0,1-2.07-.79.55.55,0,0,1-.21-.48,1.89,1.89,0,0,1,.52-.7c1-.83,2.11-1.64,3.17-2.45.26-.19.55-.34.84-.51,0,0-.08-.06-.12-.06l-3.8-.71c-2.23-.42-4.47-.81-6.7-1.26-2-.4-4-.86-6-1.3a1,1,0,0,0-.92.07c-.33.27-.68.5-1,.77-1.22,1-2.4,2-3.64,2.91-.81.59-1.73,1-2.58,1.59a25.23,25.23,0,0,1-2.36,1.63,9.11,9.11,0,0,1-2.43,1.12.83.83,0,0,1-1.08-.65,2.31,2.31,0,0,0-.22-.51c-.19-.34-.38-.69-.58-1a6.77,6.77,0,0,0-.44-.69c-.15-.21-.39-.36-.49-.58-.34-.68-.62-1.39-.93-2.08-.1-.21-.26-.38-.38-.58-.34-.54-.71-1.07-1-1.63s-.42-1.09-.64-1.62-.52-1.18-.78-1.76a8,8,0,0,0-.56-1.18A2.53,2.53,0,0,1,57.1,122a1.11,1.11,0,0,0-.12-.55c-.37-.62-.8-1.21-1.14-1.85a15.07,15.07,0,0,1-.59-1.5c-.1-.27,0-.64-.43-.75a9.6,9.6,0,0,0-1.58-.39c-1.75-.15-3.5-.24-5.26-.37-.86-.06-1.71-.17-2.57-.24s-1.6-.22-2,.68a3.25,3.25,0,0,1-1.59,1.45,3.63,3.63,0,0,0-.47.33L39,120.51c-1.47,1.08-3,2.13-4.39,3.25s-2.94,2.52-4.48,3.69c-2.31,1.75-4.64,3.49-7.06,5.08a21.24,21.24,0,0,1-4.6,2.29,21.58,21.58,0,0,1-4.35.82A.88.88,0,0,1,13.18,134.24Z"/></g></g></svg>