<svg xmlns="http://www.w3.org/2000/svg" viewBox="0 0 211.39 211.39"><defs><style>.cls-1{fill:#194f90;}.cls-2{fill:#fff;}</style></defs><g id="Layer_2" data-name="Layer 2"><g id="Layer_1-2" data-name="Layer 1"><circle class="cls-1" cx="105.69" cy="105.69" r="105.69"/><path class="cls-2" d="M74.39,132.27l5.65.31.18-.57c-.43-.22-.86-.63-1.31-.65-3.44-.15-6.89-.16-10.32-.35-2.49-.14-5-.56-7.45-.69-1.25-.06-2.51.36-3.77.36a12.62,12.62,0,0,1-2.53-.51c-.79-.17-1.58-.32-2.36-.5-1.74-.39-3.48-.78-5.22-1.21a4.7,4.7,0,0,1-1-.52,9.48,9.48,0,0,0-1.86-1,22.88,22.88,0,0,1-8.62-4.54c-2.16-1.87-4.72-3.38-6.18-6.19s-2.86-5.33-3.36-8.36a13.82,13.82,0,0,1,0-1.82l.52-.08c.29.71.6,1.4.85,2.12a15.57,15.57,0,0,0,5.61,7.22,37.08,37.08,0,0,0,6.26,3.25c3.08,1.49,6.14,3,9.28,4.36a28.75,28.75,0,0,0,4.35,1.18c.27.07.64,0,.8.13,1.09,1,1.66.29,2.3-.75l-4.12-1.07c-1.49-.38-3-.52-4.08-2-.32-.44-1.18-.54-1.81-.7a15.39,15.39,0,0,1-9.35-6.93,35.78,35.78,0,0,0-4.26-4.64c-.65-.68-1.45-1.25-2-2-1.8-2.19-3.76-4.29-4.7-7.05a4.1,4.1,0,0,1-.18-1.52A39.76,39.76,0,0,0,26,93.39c-.07-2.41.8-4.53,1.52-6.75,1.37-4.22,4.21-7.46,6.89-10.82.23-.3.79-.33,1.19-.49l.25.35a19.64,19.64,0,0,0-1.61,3.25c-1.08,3.7-2,7.44-3,11.17-.24.91-.33,1.87-.58,2.78-.21.74.08,1,.73,1.24,2.78,1,4.64,3.15,6.54,5.24.37.4.73.81,1.37,1.52.22-3,.37-5.66.6-8.28.15-1.67.5-3.33.59-5A13.58,13.58,0,0,0,40.09,85c-.57-3.89-.83-7.75,1.08-11.41.48-.93.92-1.8,2.15-2.08.52-.12.86-1,1.3-1.52,2.42-2.8,5.63-4.27,9-5.47a28.93,28.93,0,0,1,12.62-1.41,5.67,5.67,0,0,1,.84.15,4.92,4.92,0,0,1,.68.39c-.51.2-.83.33-1.15.44a41.29,41.29,0,0,0-5.77,2c-3.2,1.65-6.23,3.62-9.36,5.39a9.46,9.46,0,0,1-2,.67,8.43,8.43,0,0,1,1.05,2.46c.16,3.69.24,7.39.22,11.09a33.22,33.22,0,0,1-.47,6.07,41.05,41.05,0,0,1-1.72,5.53c-.43,1.25-1,2.45-1.42,3.71-.45,1.5,0,2,1.62,1.86,3.68-.25,7.36-.48,11.05-.65,2.41-.12,2.42-.08,2.22-2.65l-2.49-.28c.3-.67.3-.67-1.75-1.35l1-.65-1.13-.56,1.23-1c-1.49-.54-1.44-1.51-1.45-2.82,0-.92-1.16-2-2.07-2.7A2.51,2.51,0,0,1,54.06,88c0-3.56,0-7.13,0-10.69a1,1,0,0,1,.21-.63c1.49-1.6,3-3.18,4.51-4.77.25-.27.48-.72.78-.77,2.73-.47,3.79-3,5.71-4.5,2.89-2.22,5.38-5.23,8.6-6.69,6-2.74,12.45-4.66,19.19-2.53A22.06,22.06,0,0,1,97.83,60c.39.24.47,1,.81,1.75-6-2.46-11.22-.94-16.3,1.43,2,0,4-.11,6,0a18.33,18.33,0,0,1,3.62.8,24.53,24.53,0,0,1,2.85,1,31,31,0,0,1,3.07,1.48.92.92,0,0,1,.19.86,3.07,3.07,0,0,1-1.39,1,30.82,30.82,0,0,1-4,.36,41.23,41.23,0,0,0-16,3.78,26.91,26.91,0,0,0-4.31,2.94c-1.9,1.42-3.69,3-5.61,4.35a11.94,11.94,0,0,0-4,5.52c-.14.33.35,1.31.62,1.33a22.91,22.91,0,0,0,5.84.15c1.05-.17,1.92-1.44,2.88-2.21a8.64,8.64,0,0,1,1.32-1,2.11,2.11,0,0,1,1-.08c1.57,0,2.76-.53,3.12-1.57,1.89-.52,3.43-1,5-1.35A3,3,0,0,1,84,80.34c1.1.35,1.51-.35,2.1-.7a6.43,6.43,0,0,1,1.76-.42,14.52,14.52,0,0,1,2.29.52c.6.14,1.45.54,1.77.29a5.58,5.58,0,0,1,4.46-.85,4.82,4.82,0,0,0,3.17-.92,3.46,3.46,0,0,1,1.79-.28c.79,0,1.57.63,2.38-.1.16-.14.68.1,1,.16.6.09,1.35.45,1.76.21,1.27-.72,2.28-.15,3.47.18,1.51.42,3.13.41,4.68.69.77.13,1.49.58,2.26.74a3.73,3.73,0,0,0,1.55-.12,27,27,0,0,1,2.86-.79c1.2-.15,2.28.19,2.47,1.14a12,12,0,0,1,3,.83c1.31.81,2.65.62,4,.62.19,0,.52-.09.54,0,.58,1.36,2,1.2,3,1.75,2.28,1.22,4.37,2.78,6.65,4a4.77,4.77,0,0,0,2.79.29,9.13,9.13,0,0,0,3-1.11,1.56,1.56,0,0,0,.28-1.49c-1.95-3.94-5.2-6.73-8.65-9.24-5.13-3.72-11.06-5.18-17.28-5.66-1.84-.14-3.69-.16-5.54-.29a6.52,6.52,0,0,1-2.07-.42c-.41-.18-.66-.73-1-1.1.33-.2.66-.41,1-.6.82-.45,1.64-.89,2.47-1.32a20.8,20.8,0,0,1,3.35-1.65,15.62,15.62,0,0,1,3.68-.5c1.4-.08,2.81,0,4.29,0-.57-1.57-2.09-2-7.42-2.36-3.38-.23-4.27,0-7.79,1.83a2.81,2.81,0,0,1,1.23-2.83c3.57-2.57,7.56-3.92,11.93-3.19a66,66,0,0,1,10.57,2.66c1.72.59,3.15,2.07,4.63,3.25a69.09,69.09,0,0,1,6.73,5.67,8.36,8.36,0,0,0,3.43,2.44c.81.28,1.29,1.44,2,2.1a12.58,12.58,0,0,1,3.81,14.16,8.91,8.91,0,0,1-1.62,2.48c-.73.93-1.56,1.78-2.31,2.69-.15.18-.14.5-.21.75.3,0,.64.2.89.11,1.91-.75,3.78-1.58,5.7-2.29a9.49,9.49,0,0,1,2.09-.26c1.15-.15,1.71-.73,1.44-1.95-.63-2.81-1.28-5.62-1.86-8.44a15.91,15.91,0,0,1-.26-2.68c-.13-4.27-.31-8.53-.32-12.8a20.3,20.3,0,0,1,.82-4c-5.13-1.12-10.47-2.73-16.08-2.49-.88,0-1.73.73-2.75,1.2l.25-.62-1.54-.51c1.16-.59,2.19-1.19,3.27-1.66a17.07,17.07,0,0,1,2.81-.91c5.62-1.27,11.26-1.77,16.78.36a19.34,19.34,0,0,1,3.72,2.49c.11.08.17.26.29.3,3.13,1,3.23,3.79,3.49,6.25a29,29,0,0,1-.24,7.38c-.27,1.77-1.22,3.43-1.82,5.16a5,5,0,0,0-.23,2.36A20.49,20.49,0,0,0,171,78.92a1.23,1.23,0,0,1,1.9-.28,20.42,20.42,0,0,1,7,7.15c1.92,3.21,3.78,6.47,3.53,10.45-.06.92.67,2,.38,2.78a28.25,28.25,0,0,1-2.65,5.12c-.84,1.35-1.68,3-2.95,3.7-1.88,1.11-2.91,2.82-4.24,4.32a56,56,0,0,1-3.61,4.31,16.14,16.14,0,0,1-8.53,4.15,1.07,1.07,0,0,0-.63.27c-1.18,1.63-2.88,1.8-4.68,1.72a2.35,2.35,0,0,0-.7.14,2.92,2.92,0,0,0-.48.32c.93,1.14,2.08.64,3.12.54a14.56,14.56,0,0,0,2.17-.41c1.24-.3,2.48-.59,3.69-1,3.45-1,6.88-2.14,10.33-3.2,1.54-.47,3.11-.84,4.65-1.33a1.86,1.86,0,0,0,.93-.78c2-3.38,4.18-6.7,4.63-10.8a6.81,6.81,0,0,1,.73,5.13,24.89,24.89,0,0,1-3.17,8.93c-1.08,1.82-2.81,2.45-4.44,3.36a24.83,24.83,0,0,1-2.91,1.57,31.29,31.29,0,0,1-5.78,2c-4.29.79-8.63,1.3-13,1.92-1.44.21-3,.77-4.31.51-4.18-.79-8.13,1.14-12.23.74a1.26,1.26,0,0,0-.55.15,2.5,2.5,0,0,0-.35.21l.07.42,8.49,0-.18.49c.55.7,1,1.66,1.67,2,4,2.12,4.7,5.8,3.82,9.9-.78,3.63-2.15,7-5.25,9.28a6.66,6.66,0,0,1-2.31,1.3,77.35,77.35,0,0,1-8.65,1.59c-1.47.15-3-.41-4.52-.64l-.05-.51c.62-.24,1.23-.51,1.86-.73l9-3.07c.21-.07.54-.23.56-.37.16-1.62.65-3.34.3-4.85-.68-2.93-.81-3.08,1.52-5a7.79,7.79,0,0,0,1.1-1.6c-.91,0-1.47,0-2,0-4.29.43-8.57,1-12.87,1.26a45.83,45.83,0,0,1-7.59-.22,22.61,22.61,0,0,1-4.32-1.26c-.36-.11-.7-.42-1-.41a15.76,15.76,0,0,1-6.17-1.19,4.12,4.12,0,0,0-2.37.13c-3.74,1-7.43.58-11.14-.08a8.27,8.27,0,0,0-2.45.25c-1.34.21-2.67.4-4,.71a5.05,5.05,0,0,0-2.25.89c-1.89,1.7-4.12,1.91-6.47,1.86a18.62,18.62,0,0,0-2.24,0c-1.59.18-3.16.57-4.75.63-2.92.11-5.85,0-9.23.05l1.81,2.69c1.5,2.23,3,4.46,4.51,6.68a1,1,0,0,0,.5.42c3.5.6,7,1.21,10.5,1.71.47.07,1-.43,1.71-.74l1.33,1.44a22,22,0,0,1-3.9,1.6,20.82,20.82,0,0,1-8.61.36,8.14,8.14,0,0,0-1.84-.17,6.28,6.28,0,0,1-4.18-1.56c-.59-.46-1.21-.89-1.8-1.35a4,4,0,0,1-1.55-1.77,7.56,7.56,0,0,0-1.83-2.24,20.31,20.31,0,0,1-5-7.36,4.83,4.83,0,0,1,.59-3.94,17.82,17.82,0,0,1,2.19-3.34,2.89,2.89,0,0,1,1.9-.77c3.24-.14,6.48-.13,9.72-.26C73.9,132.89,74.27,132.36,74.39,132.27Zm98.21-52.1a9.3,9.3,0,0,0-.65,2.74c.54,5.69-1.35,10.22-6.12,13.48-.3.2-.68.55-.69.83,0,2-1.55,3.15-2.87,4a107.32,107.32,0,0,1-11.8,6.8c-2.5,1.21-3.92,3.16-5.77,5.26,1.6.13,2.88.2,4.14.34,3.68.4,7.45.11,11,1.37a1.92,1.92,0,0,0,1.75-.48c1.23-1.75,2.9-3.09,3.72-5.27,1.24-3.3,5.76-8.55,8.5-11,.24-.22.23-.72.32-1,1.34-.78,2.74-1.53,4.05-2.4.24-.16.28-.87.17-1.25-.63-2.13-1.32-4.26-2-6.37A17.89,17.89,0,0,0,172.6,80.17Zm-50.75,53.41a16.88,16.88,0,0,0,2-.44c.55-.21,1-.62,1.61-.78.78-.23,1.58-.33,1.66-1.57a9,9,0,0,1-2.41.36C123,131,122.39,131.83,121.85,133.58Zm-76.06-22.4c.62,2.32,1.9,3.78,3.76,2.38Zm40.42,23.21.47-.34.13-2H84.53l-.22.36Z"/></g></g></svg>