<svg xmlns="http://www.w3.org/2000/svg" viewBox="0 0 211.39 211.39"><defs><style>.cls-1{fill:#194f90;}.cls-2{fill:#fff;}</style></defs><g id="Layer_2" data-name="Layer 2"><g id="Layer_1-2" data-name="Layer 1"><circle class="cls-1" cx="105.69" cy="105.69" r="105.69"/><path class="cls-2" d="M161.24,125.48l.53-.23a.84.84,0,0,0,.28-.15,4.86,4.86,0,0,1,1.44-.81c.44-.23.91-.43,1.33-.7A7.13,7.13,0,0,1,166,123c1-.43,2-1,3-1.38a5.81,5.81,0,0,0,.77-.43,4.3,4.3,0,0,1,.48-.24.73.73,0,0,0,.43-.38.55.55,0,0,1,.8-.24c0-.12-.08-.27.08-.35s.14-.11.23-.06,0,.14,0,.21.2,0,.29-.08l.5-.27a.47.47,0,0,0,.27-.25c0-.08.11-.11.18-.16.32-.25.71-.4,1-.66l.08,0a10.82,10.82,0,0,0,1.44-.53c.08.25.08.25-.13.32a.66.66,0,0,0-.34.25c1.66-.64,3.27-1.39,4.86-2.19-.21-.18-.21-.18,0-.32s.22-.24.4-.23.1,0,.12-.09c.15-.31.51-.19.73-.36,0,0,.08,0,.08,0,0,.23.12.12.22.08a1,1,0,0,0,.46-.31c.18-.19.45-.27.65-.45s.21-.13.31-.21a4.36,4.36,0,0,1,.83-.5c.67-.33,1.31-.71,2-1,.48-.24.94-.51,1.41-.76s1.16-.55,1.73-.84c.91-.48,1.83-.92,2.72-1.44a14.16,14.16,0,0,0,2.26-1.59,4.2,4.2,0,0,0,.75-.93,1.43,1.43,0,0,0,.14-1.06,2.3,2.3,0,0,1-.06-.28.61.61,0,0,0-.47-.56,1.58,1.58,0,0,0-1.05-.08c-.18.07-.26,0-.36-.16s-.05-.12-.08-.17-.08-.11-.15-.09-.08.06-.09.12a.28.28,0,0,1-.29.27.4.4,0,0,1-.39-.21c-.08-.14-.17-.27-.27-.42a.48.48,0,0,0,0,.38c0,.24,0,.33-.24.35s-.43.06-.65.09a.36.36,0,0,1-.39-.21l0-.05c-.06-.1-.11-.25-.24-.22s-.09.18-.11.29a.35.35,0,0,1-.09.23,1.06,1.06,0,0,1-1,.12,2.82,2.82,0,0,1-.29-.18c-.16-.09-.22-.08-.31.07a.61.61,0,0,0-.07.14.52.52,0,0,1-.5.3c-.1,0-.14-.09-.08-.18a.77.77,0,0,1,.19-.21,4.91,4.91,0,0,0,.63-.57A.8.8,0,0,1,189,105a.3.3,0,0,0,.31-.26,1,1,0,0,1,.43-.6,1.28,1.28,0,0,0,.28-.29c.1-.12.2-.17.35-.08s.25.07.35-.11a.72.72,0,0,0,.09-.27,1,1,0,0,1,.4-.61s.1-.09.17-.07.08.11.09.19-.05.14,0,.23a.48.48,0,0,0,.27-.54.78.78,0,0,1,.22-.66,4,4,0,0,0,.63-1.22.81.81,0,0,0-.4-1.07,11,11,0,0,0-1.73-.84,14.25,14.25,0,0,0-2.49-.65,18.15,18.15,0,0,1-1.91-.56l-2.49-.79a13.11,13.11,0,0,1-2.25-.8,1.06,1.06,0,0,1-.31-.21,2.5,2.5,0,0,0-1.12-.68,19.53,19.53,0,0,0-2.11-.61,2.6,2.6,0,0,0-.78-.09c-.16,0-.32,0-.47,0a4.06,4.06,0,0,1-2.05-.41c-.94-.43-1.91-.8-2.87-1.21s-1.63-.71-2.44-1.08c-.65-.3-1.34-.45-2-.69-.16,0-.32-.09-.48-.15-.9-.29-1.79-.59-2.7-.87-.58-.17-1.17-.3-1.77-.43-.83-.18-1.65-.43-2.47-.65l-1.33-.38c-1.68-.52-3.36-1.05-5-1.55a21.29,21.29,0,0,0-3.54-.78,36.35,36.35,0,0,1-4-.74c-.81-.2-1.64-.35-2.45-.57a14.94,14.94,0,0,1-1.83-.58,9.32,9.32,0,0,0-1-.33c-1-.3-2-.55-3-.82l-3.69-1c-.67-.19-1.35-.32-2-.51-1.18-.33-2.36-.67-3.53-1-.84-.27-1.68-.53-2.53-.78L123.36,79a16.45,16.45,0,0,0-2.76-.63c-.64-.07-1.26-.21-1.89-.32l-3.17-.54c-.4-.07-.8-.16-1.2-.24a1.8,1.8,0,0,1-.88-.47,5.57,5.57,0,0,0-2.67-1.27,11.53,11.53,0,0,0-1.43-.24.16.16,0,0,0-.16,0,.94.94,0,0,0,.29.42,19.83,19.83,0,0,1,1.35,1.54,8.53,8.53,0,0,1,.62.83.63.63,0,0,1,.16.38l-2.31-1.15c-.07.15,0,.23.06.33s0,.14,0,.2-.13,0-.2,0c-.82-.44-1.68-.81-2.47-1.32a1.49,1.49,0,0,0-.24-.14c-1.08-.53-2.14-1.09-3.23-1.58-.48-.21-1-.4-1.45-.6l-.12,0c-.08,0-.12,0-.1.11a.6.6,0,0,0,.06.11,21.89,21.89,0,0,0,1.33,1.87,4.51,4.51,0,0,0,.37.39s.14.1.11.22a1.15,1.15,0,0,1-.44-.15c-.5-.28-1-.56-1.5-.85a6.63,6.63,0,0,0-.6-.29c-.33-.17-.67-.34-1-.53-.6-.34-1.24-.61-1.86-.92-.38-.2-.77-.37-1.16-.56a1,1,0,0,0-.65-.08,2.38,2.38,0,0,1-1.42-.07c-.09,0-.18-.07-.29,0a1.59,1.59,0,0,0,.3.5,4.46,4.46,0,0,1,.7,1.26c.11.3,0,.49-.34.46a9.46,9.46,0,0,1-1.4-.21.91.91,0,0,1-.38-.22c-.23-.22-.43-.27-.68-.08a1.59,1.59,0,0,1-1.25.26l-.25,0c-.12,0-.17,0-.18.16A1.3,1.3,0,0,0,91,76c.07.23.13.46.19.7a1,1,0,0,1,.07.24c0,.12,0,.26-.09.33s-.22,0-.3-.09a9.37,9.37,0,0,0-2.41-1.53c-.29-.13-.33-.11-.46.17,0,.06,0,.13-.08.2a1.33,1.33,0,0,1-1.24.91h-.16c-.15,0-.2.08-.17.23a3.09,3.09,0,0,0,.26.74c.16.33.27.69.45,1,.33.6.51,1.28.88,1.87A1.73,1.73,0,0,1,88.29,82a1.55,1.55,0,0,0,.08.56,1.41,1.41,0,0,1-.13,1.12,1.29,1.29,0,0,0-.19.63,4.62,4.62,0,0,1-.21,1c-.13.38-.25.76-.37,1.14a1.21,1.21,0,0,1-.09.2.23.23,0,0,1-.33.1l-.16-.1a13.92,13.92,0,0,1-1.59-1.28,11.87,11.87,0,0,0-2.58-2.1,9.85,9.85,0,0,1-1.27-.87,4.93,4.93,0,0,0-1.67-.79.18.18,0,0,0-.1,0c0,.13.06.21.13.3a4.57,4.57,0,0,1,.82,1.79,4.93,4.93,0,0,0,.28.9.47.47,0,0,1,0,.46,15.44,15.44,0,0,1-1.58-.78c-.76-.44-1.54-.85-2.31-1.27a.7.7,0,0,0-.42-.11c-.2,0-.29.2-.14.33a.53.53,0,0,1,.12.14.27.27,0,0,1,0,.39.1.1,0,0,1-.05,0,1.43,1.43,0,0,0-.73.9.82.82,0,0,1-.72.53,2.64,2.64,0,0,0-.66.2,1,1,0,0,0-.63.64.63.63,0,0,1-.45.49.39.39,0,0,0-.14.12A12.65,12.65,0,0,0,71.94,88c-.29.38-.61.75-.91,1.12a6.64,6.64,0,0,1-.55.51c-.42.46-.89.86-1.29,1.34a2.75,2.75,0,0,1-1.63.89,5,5,0,0,0-.93.28,4.26,4.26,0,0,1-2,.37,1.15,1.15,0,0,0-.88.32,6.05,6.05,0,0,1-.77.56,1.12,1.12,0,0,1-1,.14.34.34,0,0,0-.42.11,3,3,0,0,0-.3.32,2.39,2.39,0,0,1-1.43.91l-.3.08a.27.27,0,0,0-.23.19.71.71,0,0,1-.46.4,7.14,7.14,0,0,1-1.77.42c-.93.09-1.85.27-2.77.42-1.09.18-2.17.36-3.26.52s-1.94.26-2.9.38h-.1c-.86,0-1.72.12-2.58.07-.43,0-.86-.07-1.28-.14s-.77,0-1.16-.09a19.42,19.42,0,0,1-2.27-.34c-.91-.21-1.82-.41-2.71-.71a13.11,13.11,0,0,0-1.74-.46,13,13,0,0,1-2.48-.79,13.26,13.26,0,0,1-1.47-.71c-.33-.18-.69-.32-1-.49-.88-.43-1.73-.93-2.6-1.41s-1.5-.89-2.29-1.25c-.54-.25-1.06-.56-1.58-.86A14.56,14.56,0,0,0,21,88.52c-.12,0-.25,0-.37-.07-.27-.08-.41,0-.56.26a8.6,8.6,0,0,0-.8,1.57,13.38,13.38,0,0,0-.77,1.89l-.09.34a.69.69,0,0,0,.11.6,2.89,2.89,0,0,0,.77.9l0,0c.07.08.13.15.08.26a.18.18,0,0,1-.24.1,3.18,3.18,0,0,0-1,0c-.14,0-.24.06-.22.23a2.76,2.76,0,0,1-.36,1.54c-.3.61-.59,1.23-.83,1.87a1.92,1.92,0,0,0-.11.71v1.57a2,2,0,0,1-.08.69c-.08.21.06.4.33.49a9.11,9.11,0,0,0,1.37.33c.47.08.93.15,1.4.2,0,0,.09,0,.1.06a.1.1,0,0,1-.11.08c-.44.08-.87.23-1.32.3a4.9,4.9,0,0,1-1.53,0l-.16,0c-.11,0-.16,0-.13.15a1.33,1.33,0,0,0,.13.35,1.58,1.58,0,0,1,.14,1.22c-.06.33-.16.65-.24,1a1.5,1.5,0,0,0,0,.56,8.44,8.44,0,0,1,.17,2.13,2.88,2.88,0,0,0,.15,1c.18.53.32,1.07.46,1.61s.15.51.75.61c.22,0,.46,0,.69,0l.26.06a.61.61,0,0,1-.23.29,3.81,3.81,0,0,1-1,.57c-.29.12-.32.19-.17.47a8.09,8.09,0,0,0,.44.69,2.46,2.46,0,0,1,.39,1.34c0,.11,0,.23,0,.34a1,1,0,0,0,.41.78,2,2,0,0,1,.55.86,15.72,15.72,0,0,1,.93,2.65,4,4,0,0,0,.33.85.74.74,0,0,0,.55.42,1.5,1.5,0,0,0,1-.1,16.77,16.77,0,0,0,2.76-1.8c.71-.58,1.44-1.13,2.13-1.73s1.74-1.28,2.58-2l1.25-1c.69-.56,1.39-1.11,2.12-1.63.95-.69,1.93-1.34,2.94-1.93a15,15,0,0,1,1.51-.73l1.16-.55A14.79,14.79,0,0,1,41.23,108c.41-.11.81-.27,1.22-.41a4.4,4.4,0,0,1,1.72-.34h.15c.52.11,1,.12,1.56.21.68.13,1.38.17,2.06.29l.21,0c.92.25,1.87.38,2.8.61s1.88.53,2.82.8c0,0,0,0,.08,0a16.53,16.53,0,0,1,2.17.68l.18.06a.24.24,0,0,1,.11.42c-.2.3-.41.59-.62.88s-.18.33.11.46a11.85,11.85,0,0,1,1.39.67,4.76,4.76,0,0,1,.87.62,2,2,0,0,1,.5.71.72.72,0,0,0,.64.44,1.79,1.79,0,0,0,.4,0c.22,0,.44,0,.66-.05a.88.88,0,0,1,.87.56,6.21,6.21,0,0,0,.39.65.85.85,0,0,0,.65.38,1.82,1.82,0,0,1,1.26.56.66.66,0,0,0,.64.16,3.8,3.8,0,0,1,1.77.14.79.79,0,0,1,.4.24.84.84,0,0,0,.65.27,2.33,2.33,0,0,1,1.62.73,4.91,4.91,0,0,1,.65.64.32.32,0,0,0,.24.13,4.34,4.34,0,0,0,.63.08,1.89,1.89,0,0,1,1.53.85c.25.32.18.56-.21.71a4.78,4.78,0,0,0-.79.38,1.67,1.67,0,0,0-.42.37c-.12.14-.1.23.07.28a4.63,4.63,0,0,0,.91.12l.4,0a1.7,1.7,0,0,1,1.42.91,3.07,3.07,0,0,1,.26.43.62.62,0,0,0,.55.36,14.2,14.2,0,0,0,2.26.1h.12c.13,0,.18.06.12.18a1.76,1.76,0,0,1-.27.34,1.62,1.62,0,0,0-.25.28c-.19.33-.13.66.34.94a5.23,5.23,0,0,0,2.1.74,2.31,2.31,0,0,1,1.51.75,2.41,2.41,0,0,1,.59,1.27.65.65,0,0,0,.49.61l1,.35c.32.11.4.25.32.58a1.92,1.92,0,0,1-.32.64c-.21.29-.2.3.1.51a14.87,14.87,0,0,1,1.37.85.27.27,0,0,0,.26,0,7.91,7.91,0,0,0,1.44-.33.27.27,0,0,1,.12,0c.12,0,.16.05.12.15a1.91,1.91,0,0,1-.4.6c-.33.35-.33.36,0,.7a.92.92,0,0,0,.22.17,4.8,4.8,0,0,1,1.61,1.43,2.55,2.55,0,0,0,.85.78c.32.16.59.42.91.6a.88.88,0,0,0,.67.11l1.29-.28c.07,0,.16-.07.24,0a.33.33,0,0,1-.14.26,6.35,6.35,0,0,1-.75.72l-.15.12a.17.17,0,0,0,0,.27,1.29,1.29,0,0,0,.38.28,5.47,5.47,0,0,0,1.94.51c.61,0,1.21.12,1.81.21.8.11,1.6.19,2.4.29s1.45.1,2.17.18a11.89,11.89,0,0,0,1.19,0c.74,0,1.48-.17,2.22-.16a11.72,11.72,0,0,0,1.57-.1l.19,0a21.16,21.16,0,0,0,2.51-.17c.38-.05.77-.07,1.16-.09.59,0,1.19-.1,1.78-.14.83-.07,1.64-.23,2.47-.3,1-.09,2-.22,2.94-.35,1.42-.19,2.84-.38,4.26-.59.73-.11,1.45-.28,2.18-.38.94-.13,1.84-.4,2.76-.62l3.13-.7c.36-.08.72-.17,1.07-.27.58-.18,1.17-.33,1.74-.55a8.48,8.48,0,0,1,1.64-.45,26.17,26.17,0,0,0,2.9-.73c.68-.2,1.38-.35,2.05-.6.42-.16.84-.34,1.26-.49a14.91,14.91,0,0,1,2.46-.67c1-.18,2-.46,3-.71.81-.21,1.64-.35,2.47-.51s1.54-.32,2.3-.51c.52-.12,1-.24,1.57-.34.84-.15,1.65-.42,2.48-.59s1.69-.49,2.55-.68c.61-.13,1.22-.21,1.83-.33.37-.07.74-.14,1.1-.24.53-.15,1.06-.27,1.59-.39a11.33,11.33,0,0,0,2-.56c.1,0,.18-.06.15-.22s.13-.25.26-.31.18,0,.19.12S161.19,125.4,161.24,125.48Z"/></g></g></svg>