<svg xmlns="http://www.w3.org/2000/svg" viewBox="0 0 211.39 211.39"><defs><style>.cls-1{fill:#194f90;}.cls-2{fill:#fff;}</style></defs><g id="Layer_2" data-name="Layer 2"><g id="Layer_1-2" data-name="Layer 1"><circle class="cls-1" cx="105.69" cy="105.69" r="105.69"/><path class="cls-2" d="M150.27,122.63l-2.05,1.2a9.52,9.52,0,0,0,1.6.32,20.36,20.36,0,0,0,10.72-2.65c6.29-3.83,13.26-5.5,20.28-7.16,4.29-1,8.51-2.36,12.78-3.47,1.2-.31,2.33-1.43,3.7-.49.65-.9,1.66-1.72,1.87-2.72.31-1.45-1.13-1.29-2.16-1.42a20.16,20.16,0,0,0,2.58-1.36c2.22-1.61,2.07-4.21-.42-5.36a89.42,89.42,0,0,0-8.43-3.33,136.86,136.86,0,0,0-39-7.17A13.65,13.65,0,0,1,144,86.6c-5.17-3.65-11.23-5.12-17.44-5.95a23.68,23.68,0,0,0-2.77-.3c-.58,0-1.39,0-1.67.4s0,1.15.31,1.64c.93,1.7,2,3.32,3,5,.84,1.48.55,1.94-1.17,1.74a6.1,6.1,0,0,1-2.29-1c-2.12-1.29-4.1-2.82-6.28-4-4.59-2.47-9-2.37-13.18,1.14C99.19,88.15,95,88.54,91,89.49c-2.63.62-5.36.81-8,1.36-3.39.71-6.58,1.78-8.42,5.16-.68,1.24-3.7,1.19-5.57.11q-2.4-1.41-4.79-2.86a6.12,6.12,0,0,0-6.38-.16c-3.2,1.57-6.57,2.76-9.83,4.2a6.38,6.38,0,0,0-2.82,1.88,1.74,1.74,0,0,1-2.71.64,36.42,36.42,0,0,1-4.31-2.73,28.21,28.21,0,0,0-8.52-4.66C26,91.24,22.31,90,18.6,88.9a10.52,10.52,0,0,0-3.21-.4c-1.92,0-2.68,1.14-2,3a9.54,9.54,0,0,0,1.89,2.87c3,3.33,3.06,3.29-1.13,5.21a16,16,0,0,0-3,1.68c-1.28,1-1.21,2.25.22,2.94,6.23,3,12.63,5.63,19.72,5.56,2.08,0,4.14-.59,6.23-.69a41,41,0,0,1,5.3.28c.16,0,.44.62.38.87-.49,1.81-.33,2.55,1.35,3.37,3.62,1.75,7.29,3.42,11,5a8.23,8.23,0,0,0,8.95-1.25c1.88-1.5,3.89-2.25,6.22-1.38a5.52,5.52,0,0,1,2.21,1.46c1.1,1.29,2,2.73,3,4.12a8.85,8.85,0,0,0,5.5,3.63q13.41,2.86,26.84,5.62c3.89.79,7.39-.2,9.88-3.25,2.35-2.88,5.1-3.57,8.7-3.61,7.28-.08,14.54-.78,21.81-1.22.61,0,1.23,0,1.85,0l.26-.26.09.19Z"/></g></g></svg>