<svg xmlns="http://www.w3.org/2000/svg" viewBox="0 0 211.39 211.39"><defs><style>.cls-1{fill:#194f90;}.cls-2{fill:#fff;}</style></defs><g id="Layer_2" data-name="Layer 2"><g id="Layer_1-2" data-name="Layer 1"><circle class="cls-1" cx="105.69" cy="105.69" r="105.69"/><path class="cls-2" d="M141.58,139.49a.18.18,0,0,1-.06-.19c0-.2-.07-.22-.24-.22a.82.82,0,0,0-.66.34,7.05,7.05,0,0,1-.47.61c-.18.18-.28.16-.37-.11s-.16-.21-.31-.16a1.58,1.58,0,0,0-.85.54,2.3,2.3,0,0,1-.78.74.21.21,0,0,1-.24,0c-.08-.25.26-.37.18-.66a1.52,1.52,0,0,0-1,.6,4.08,4.08,0,0,1-.25.33c-.07.08-.18.18-.26.14-.47-.26-.74.17-1.1.29a1.88,1.88,0,0,0-.5.35c-.16.12-.29.34-.45,0-.07-.15-.62,0-.84.18a6.44,6.44,0,0,0-.8.85c-.06,0-.11,0-.11-.07-.07-.46-.07-.45-.5-.38a1.51,1.51,0,0,0-.89.65c-.19.22-.31.5-.64.64-.09-.54-.49-.56-.91-.54a.48.48,0,0,0-.37.15c-.25.32-.67.43-.89.77-.07.1-.18.2-.31.12s0-.21,0-.32a.37.37,0,0,0,0-.14,1.29,1.29,0,0,0-1.07.33l-.34.31c-.07.06-.18.1-.23,0a.41.41,0,0,0-.48-.18,1.41,1.41,0,0,0-.83.38c-.21.24-.45.46-.69.69a1.55,1.55,0,0,1-.27.24.19.19,0,0,1-.15,0c-.07,0-.07-.1,0-.17s.19-.28,0-.41a.55.55,0,0,0-.62.11,2,2,0,0,0-.24.33,4.09,4.09,0,0,1-.61.7c-.08.08-.18.22-.3.13s0-.21,0-.32c.11-.31.06-.41-.25-.46a1.23,1.23,0,0,0-1.3.43,5.19,5.19,0,0,1-1,.84c-.14-.21-.11-.48-.39-.57a.56.56,0,0,0-.66.12l-.4.4c-.12.11-.24.25-.43.2s0-.2,0-.29c.09-.33,0-.44-.34-.44a.75.75,0,0,0-.51.22l-.48.47c-.12.12-.23.26-.43.25s0-.18,0-.26c.09-.24-.14-.29-.25-.4s-.22,0-.31.05-.34.38-.53.56c-.34.32-.48.28-.65-.14-.36-.82-.38-.82-1-.22-.08.07-.11.18-.26.19s-.12-.4-.24-.58c-.28-.44-.37-.48-.81-.21l-.21.14c-.11,0-.22.15-.33,0s0-.19.05-.28.15-.38-.06-.55-.35-.19-.65,0l-.16.12c-.3.19-.37.16-.44-.19,0-.08,0-.17,0-.25a.44.44,0,0,0-.75-.28c-.14.09-.22.27-.44.28-.09-.21,0-.43,0-.64,0-.49-.3-.64-.72-.39-.65.39-.66.39-.84-.36a2.33,2.33,0,0,0-.07-.25c-.13-.31-.26-.35-.55-.15s-.33.25-.51.36-.24,0-.23-.15.08-.49-.16-.6-.43.14-.63.27-.12.12-.22.11-.07-.21-.06-.32,0-.34.06-.51,0-.3-.14-.36-.2.1-.27.19a.3.3,0,0,1-.4.12c-.18-.08-.12-.21-.1-.35,0-.42-.16-.57-.54-.41l-.18.1c-.28.09-.37,0-.43-.24a1.66,1.66,0,0,0-.32-.7c-.14-.18-.29-.22-.47,0a1,1,0,0,1-.15.14c-.28.19-.49.12-.59-.2s-.12-.38-.46-.28-.26,0-.27-.19a1.39,1.39,0,0,0-.09-.46c-.11-.21-.24-.38-.52-.24s-.33,0-.41-.21c-.16-.47-.43-.55-.88-.31s-.38.2-.6-.2c0,0,0-.13-.07-.13-.37,0-.59-.51-1-.23-.09.06-.24.13-.32,0s.06-.18.14-.24.21-.15.11-.3a.29.29,0,0,0-.37-.08c-.21.07-.38.28-.62.19s-.27-.35-.37-.54-.15-.2-.29-.13c-.3.14-.44,0-.55-.27a1.18,1.18,0,0,0-.07-.2c-.13-.22-.18-.23-.38-.07s-.21.18-.69.26c-.08-.08,0-.15,0-.23a.52.52,0,0,0-.1-.73c-.15-.17-.29-.29-.53-.12s-.37.07-.43-.16-.21-.44-.55-.31-.36-.09-.46-.29c-.23-.46-.23-.46-.68-.24s-.38.17-.51-.25c0-.15-.11-.29-.16-.43s-.25-.37-.52-.24a.28.28,0,0,1-.42-.17c-.1-.25-.24-.36-.52-.25s-.32-.08-.38-.25a.58.58,0,0,0-.74-.46c-.21,0-.31-.1-.4-.25s-.34-.57-.75-.53a.31.31,0,0,1-.28-.2.6.6,0,0,0-.6-.32.4.4,0,0,1-.47-.3,2.71,2.71,0,0,0-.2-.42.29.29,0,0,0-.43-.15c-.3.14-.49,0-.63-.25s-.26-.35-.54-.26-.32-.09-.4-.26-.12-.34-.28-.33c-.33,0-.42-.11-.53-.38a.43.43,0,0,0-.62-.28.28.28,0,0,1-.39-.15c-.12-.22-.26-.44-.39-.67l-.15,0c-.51.2-.62.18-.87-.28-.17-.29-.32-.54-.72-.38-.15.06-.22,0-.25-.18a1.91,1.91,0,0,0-.1-.34c-.1-.2-.25-.36-.49-.25s-.35,0-.48-.14a.63.63,0,0,0-.57-.28c-.24,0-.34-.22-.49-.35s-.32-.3-.59-.18a.34.34,0,0,1-.44-.16.73.73,0,0,0-.67-.41.25.25,0,0,1-.27-.25.53.53,0,0,0-.59-.51.94.94,0,0,1-.48-.18.54.54,0,0,0-.12-.09,2.82,2.82,0,0,1-1.3-.84.32.32,0,0,0-.18-.1,4,4,0,0,1-1.23-.63c-.26-.14-.5-.23-.62-.54,0-.13-.21-.08-.32-.07a.37.37,0,0,1-.42-.24.4.4,0,0,0-.47-.3c-.12,0-.21-.09-.31-.16s-.27-.31-.39-.32c-.57,0-.83-.59-1.34-.73s-.72-.4-1.17-.32a.21.21,0,0,1-.22-.18.48.48,0,0,0-.47-.4.81.81,0,0,1-.45-.25l0,0c-.38-.3-.88-.42-1.16-.86-.05-.08-.22-.09-.34-.12a.3.3,0,0,1-.25-.15.56.56,0,0,0-.51-.37c-.12,0-.16-.11-.2-.21s-.08-.19-.14-.21c-.32-.08-.45-.33-.58-.59s-.23-.18-.4-.16-.25-.07-.2-.26a14.63,14.63,0,0,0,0-1.48.27.27,0,0,0-.19-.28,6.93,6.93,0,0,0-.72-.26,33.56,33.56,0,0,0-3.84-.8,4.47,4.47,0,0,0-.82-.07,20,20,0,0,1-2-.17,26.58,26.58,0,0,0-2.68-.15c-.67,0-1.34,0-2,0a.93.93,0,0,0-.67.21A8.52,8.52,0,0,1,46,114.82,14.9,14.9,0,0,0,44.22,116c-1.19.88-2.41,1.71-3.62,2.56-.76.53-1.49,1.12-2.21,1.69a6,6,0,0,1-.78.5,14.57,14.57,0,0,0-1.9,1.5l-2.48,2c-1.18,1-2.43,1.79-3.68,2.65-.95.65-1.89,1.3-2.87,1.91-.35.21-.67.48-1,.72a21.75,21.75,0,0,1-4.2,2.18,14.12,14.12,0,0,1-3.15.79,5.44,5.44,0,0,1-1.26.21,2.73,2.73,0,0,1-.41,0,.47.47,0,0,1-.41-.56,1.11,1.11,0,0,1,.05-.25c.31-.89.51-1.82.9-2.68a20,20,0,0,0,.76-2.08c.27-.86.72-1.64,1-2.49.18-.52.37-1,.54-1.56A51.49,51.49,0,0,0,21.25,117,37.25,37.25,0,0,0,22,112c.07-.94.15-1.88.25-2.82a21.16,21.16,0,0,0,.09-3.65c-.08-1.27-.19-2.54-.16-3.81a17.76,17.76,0,0,0-.49-4.29,18.94,18.94,0,0,0-1.25-3.6c-.34-.78-.73-1.55-1.11-2.32a44.11,44.11,0,0,1-2.58-5.9A7.1,7.1,0,0,1,16.3,83c0-.58.14-.69.71-.68a7.52,7.52,0,0,1,1.32.26c1.13.27,2.28.5,3.4.82a10.57,10.57,0,0,1,1.44.58,35,35,0,0,1,4.43,2.18,6.71,6.71,0,0,1,.95.71c.88.78,1.88,1.39,2.78,2.14s1.8,1.2,2.62,1.91c.43.37.9.7,1.33,1.06a8,8,0,0,0,.76.54c1.48.94,2.89,2,4.31,3,.76.56,1.48,1.17,2.26,1.7,1.09.75,2.18,1.5,3.29,2.22s2.29,1.32,3.39,2.06a2.23,2.23,0,0,0,1.61.4c.7-.09,1.4,0,2.1-.08,1.07-.06,2.11-.34,3.16-.49a17.91,17.91,0,0,0,4.31-1.19c.43-.17.43-.18.2-.57a.76.76,0,0,1,.17-1c.07-.05.16-.1.19-.17.34-.79,1.13-1.2,1.53-1.93a.43.43,0,0,1,.16-.14,11.16,11.16,0,0,0,1.31-1c.6-.41,1.12-.91,1.74-1.27a4,4,0,0,0,.63-.53,13.41,13.41,0,0,1,1.21-1.17c.37-.29.61-.67,1.16-.64.17,0,.29-.21.37-.39a.42.42,0,0,1,.23-.26,4.46,4.46,0,0,0,2-1.38c.05-.06.09-.11.16-.11.26,0,.35-.2.45-.37s.33-.53.71-.46a.29.29,0,0,0,.28-.1,2,2,0,0,1,.83-.5.58.58,0,0,0,.34-.22.6.6,0,0,1,.55-.35c.28,0,.39-.31.48-.56s.15-.42.46-.31c.16.06.22,0,.25-.17s.15-.37,0-.6,0-.24.22-.19a.85.85,0,0,1,.4.3c.12.14.24.12.35,0a2.49,2.49,0,0,0,.33-.57c.16-.36.19-.39.54-.28a.32.32,0,0,0,.44-.21,1.61,1.61,0,0,0,.15-.33c0-.25.13-.32.38-.22a.31.31,0,0,0,.44-.23.65.65,0,0,1,.56-.47c.31,0,.4-.22.49-.45s.15-.37.58-.31a.42.42,0,0,0,.53-.35c.07-.24.14-.38.42-.29s.32-.06.4-.23.08-.23.12-.34.25-.43.53-.39.34-.07.39-.29a.5.5,0,0,1,.61-.45c.18,0,.25-.06.29-.2.13-.5.5-.62,1-.61.29,0,.36-.08.27-.35a1,1,0,0,0-.1-.18.73.73,0,0,1-.07-.17c.25-.1.44.06.64.1s.49,0,.45-.33.14-.32.23-.46.33-.07.49,0a.18.18,0,0,0,.23,0,.24.24,0,0,0,0-.29c-.08-.12-.26-.17-.28-.38h.89a.77.77,0,0,0,.45-.07c.39-.24.39-.46,0-.71a1.53,1.53,0,0,1-.19-.15l1,0a2.26,2.26,0,0,0,.26,0c.17,0,.21-.17.09-.3s-.39-.22-.5-.46a.54.54,0,0,1,.5,0,2.21,2.21,0,0,0,.72.07.41.41,0,0,0,.39-.28c.07-.19-.08-.28-.2-.37s-.21-.12-.27-.27c.13-.12.26,0,.38,0l.61.1A.38.38,0,0,0,91.5,75a.3.3,0,0,0-.08-.41.48.48,0,0,1-.1-.15c.2-.12.37,0,.54,0s.45,0,.51-.2-.11-.26-.24-.34-.16-.06-.18-.19a.92.92,0,0,1,.63.08.7.7,0,0,0,.6,0c.26-.13.28-.27.06-.46s-.27-.15-.35-.3a.35.35,0,0,0,0-.06c.32-.07.55.15.82.24s.28.07.37-.07a.33.33,0,0,0,0-.43l-.16-.14a.16.16,0,0,1-.06-.14c.13-.11.26,0,.38,0a1.33,1.33,0,0,0,.56.06c.38,0,.41-.06.31-.43a.54.54,0,0,0,0-.1l0-.07c.18-.08.35,0,.53.08a.37.37,0,0,0,.43-.2c.08-.17-.06-.25-.17-.33s-.27-.15-.29-.35a1.16,1.16,0,0,1,.63.18c.4.17.69,0,.62-.45,0-.2.05-.2.19-.2h.1c.44,0,.46,0,.4-.44a.21.21,0,0,1,0-.15c.11-.07.23,0,.34,0,.51.13.72,0,.83-.57,0,0,0-.1,0-.14s.29,0,.42,0c.46,0,.62-.17.45-.61,0,0-.06-.08,0-.15s.32,0,.48.06a.74.74,0,0,0,.94-.73c0-.31.07-.36.34-.31l.1,0c.62.18.79.06.77-.62,0-.25.11-.25.28-.21s.33.12.49.18a.66.66,0,0,0,.83-.22l.19-.24c.25-.35.25-.35.66-.24a.66.66,0,0,0,.6,0c.32-.23.73-.38.89-.79,0-.12.12-.11.2-.09l.3.09a.45.45,0,0,0,.57-.21,3.83,3.83,0,0,1,.33-.46c.24-.3.33-.34.66-.16a.71.71,0,0,0,.93-.14.47.47,0,0,1,.67-.13c.22.12.34-.1.45-.25.25-.37.32-.4.71-.19a2.94,2.94,0,0,1,.47.31.74.74,0,0,0,.67.17,1.23,1.23,0,0,1,.71,0c.16.06.3,0,.44-.12a.66.66,0,0,1,.88.13,1,1,0,0,0,1.31.25.85.85,0,0,1,1.11.22l.31.28a.79.79,0,0,0,.9.2.88.88,0,0,1,1,.15.9.9,0,0,0,1.4-.3,1.36,1.36,0,0,1,.6.35,1.72,1.72,0,0,0,1.31.61,8.58,8.58,0,0,1,.87.1.7.7,0,0,1,.49.26,2.12,2.12,0,0,0,1.57.66,5,5,0,0,1,.66.1,1.21,1.21,0,0,1,.62.35,1.66,1.66,0,0,0,1.32.58c.31,0,.6.15.91.14.13,0,.21.1.29.19l.42.46a1.14,1.14,0,0,0,1.14.44.89.89,0,0,1,.94.4.81.81,0,0,0,.82.32.86.86,0,0,1,.93.39,1.24,1.24,0,0,0,1,.51.78.78,0,0,1,.47.16,1.57,1.57,0,0,0,1.59.48.46.46,0,0,1,.46.18l.3.35a.8.8,0,0,0,.72.32,1.19,1.19,0,0,1,1.19.55,1.43,1.43,0,0,0,1.17.56.91.91,0,0,1,.72.34,2.45,2.45,0,0,0,1.67.9.78.78,0,0,1,.56.32,1.7,1.7,0,0,0,1.36.69,1,1,0,0,1,.67.36,4,4,0,0,0,1.17,1,1,1,0,0,0,.54.13.48.48,0,0,1,.48.19,6.69,6.69,0,0,1,1.23,1.89,1.1,1.1,0,0,0,.64.61,13.55,13.55,0,0,0,1.88.56c.95.22,1.89.51,2.83.79a.43.43,0,0,0,.32,0c0-.17-.14-.24-.26-.32-.45-.29-.86-.63-1.28-1a1.45,1.45,0,0,1-.55-.72,3.23,3.23,0,0,0-.39-.79,12.28,12.28,0,0,1-.8-1.77,3.08,3.08,0,0,1-.13-1.48,6.67,6.67,0,0,0,.19-.77.19.19,0,0,1,.35-.1,6.5,6.5,0,0,0,1.76,1.32,22.49,22.49,0,0,1,3.48,3.13,8.06,8.06,0,0,1,1.47,2.11,3.93,3.93,0,0,0,.59.83c.43.52.89,1,1.31,1.53a1.85,1.85,0,0,0,.83.59,13.85,13.85,0,0,1,1.93.86c1.56.78,3.21,1.33,4.83,2,1.94.75,3.86,1.53,5.77,2.36.77.33,1.5.75,2.28,1.09a17.26,17.26,0,0,0,1.8.6,2.41,2.41,0,0,1,.65.3,14.09,14.09,0,0,0,3.68,1.84,12.34,12.34,0,0,1,3.43,1.5c.6.42,1.31.62,1.92,1,.34.22.72.39,1.08.6.57.34,1.14.69,1.68,1.09a16.09,16.09,0,0,0,2.86,1.62,5.14,5.14,0,0,1,2.32,2.2,2.84,2.84,0,0,1,.28.82.7.7,0,0,1-.48.77c-.15.06-.39,0-.41.25s.23.27.38.37a.85.85,0,0,1,.4,1.18,2.21,2.21,0,0,1-.52.82c-1.05,1-2.08,2.1-3.15,3.12a16.8,16.8,0,0,1-1.57,1.34c-1.23.93-2.52,1.79-3.75,2.73a16.48,16.48,0,0,1-1.4,1,1.63,1.63,0,0,0-.73,1c-.06.26-.17.52-.25.78a1.91,1.91,0,0,1-.76,1,7.07,7.07,0,0,0-1.36,1.09,6,6,0,0,1-1,.73c-1.23,1-2.51,1.9-3.81,2.78a19.4,19.4,0,0,0-1.82,1.17,1.5,1.5,0,0,1-.46.22.77.77,0,0,0-.52.39.44.44,0,0,1-.51.25.38.38,0,0,0-.5.25c-.12.32-.4.41-.67.51-.06,0-.14,0-.2,0a6.51,6.51,0,0,1-1.34.55.42.42,0,0,0-.24.25.73.73,0,0,1-.74.47.63.63,0,0,0-.6.36c-.14.21-.27.41-.58.19-.14-.09-.29,0-.38.17s-.12.21-.18.31-.22.25-.39.16-.36,0-.46.18-.33.43-.66.27a.37.37,0,0,0-.42.09,3.71,3.71,0,0,0-.48.39,3.69,3.69,0,0,1-1.49.87,1.57,1.57,0,0,0-.42.29,1.11,1.11,0,0,1-1,.36c-.28-.07-.5.18-.71.35s-.3.33-.58.23-.2.09-.26.2a3.42,3.42,0,0,1-.66.75c-.21-.07,0-.31-.21-.34a.5.5,0,0,0-.42.16.77.77,0,0,0-.26.38,1.19,1.19,0,0,1-.84.8c-.14-.11,0-.2,0-.29s.09-.16,0-.23a.25.25,0,0,0-.24,0c-.27.11-.54.27-.58.54a.69.69,0,0,1-.61.59c-.08,0-.15.1-.24.07s0-.19,0-.29-.07,0-.09,0a1.64,1.64,0,0,0-.87.77c-.1.21-.34.21-.51.34s-.12,0-.16-.06,0-.28-.16-.28a.67.67,0,0,0-.52.18c-.06.07-.12.13-.17.2s-.33.4-.65.25c-.15-.07-.27,0-.35.15s-.46.4-.63.67-.26.24-.3,0-.12-.15-.21-.08a.54.54,0,0,0-.21.3,1,1,0,0,1-.59.6c-.15.08-.27.14-.42,0s-.35-.09-.49,0-.29.35-.43.51a2.39,2.39,0,0,1-.23.22.2.2,0,0,1-.23,0c-.08,0-.05-.12-.05-.18,0-.33-.08-.38-.38-.28a.9.9,0,0,0-.47.39.55.55,0,0,1-.74.25c-.34-.12-.57.16-.81.35s-.19.24-.31.34a.36.36,0,0,1-.46.12c-.23-.12-.39,0-.56.13l-.52.42a1.07,1.07,0,0,1-.7.27,1.2,1.2,0,0,0-.89.45c-.22.27-.45.51-.87.42-.23-.05-.35.18-.48.34a4.56,4.56,0,0,1-.73.85C141.74,139.43,141.69,139.51,141.58,139.49Z"/></g></g></svg>