<svg xmlns="http://www.w3.org/2000/svg" viewBox="0 0 211.39 211.39"><defs><style>.cls-1{fill:#194f90;}.cls-2{fill:#fff;}</style></defs><g id="Layer_2" data-name="Layer 2"><g id="Layer_1-2" data-name="Layer 1"><circle class="cls-1" cx="105.69" cy="105.69" r="105.69"/><path class="cls-2" d="M196.78,114a3.73,3.73,0,0,0,.47,0,2.9,2.9,0,0,1,1.09.23,5.3,5.3,0,0,1,1.31,1.19,2.05,2.05,0,0,1-.37,3.11c-.19.14-.36.31-.54.46a9.91,9.91,0,0,1-1.21,1c-.8.47-1.66.85-2.48,1.29a15.54,15.54,0,0,1-4.58,1.79,43.74,43.74,0,0,0-5.52,1.4c-1.38.41-2.79.76-4.18,1.17s-2.9.84-4.34,1.32-3,1.12-4.48,1.58-3,.78-4.51,1.17-2.89.77-4.35,1.11c-1.64.39-3.29.74-4.94,1.11l-4,.88c-1,.22-2.08.37-3.1.63a29.29,29.29,0,0,1-3.75,1.06,9.39,9.39,0,0,1-2.42.19c-.26,0-.54,0-.8,0-.61-.08-1.21-.19-1.82-.29a2.11,2.11,0,0,0-.6-.11c-.66.08-1.31.22-2,.28s-1.33,0-2,.08c-1.88.13-3.75.35-5.62.4-2.46.05-4.92,0-7.38-.06-1.08,0-2.16,0-3.24-.06s-2,0-2.93-.1-2.06-.19-3.1-.26c-2-.14-3.93-.26-5.9-.38a17.71,17.71,0,0,0-2.52-.06c-1,.11-2,.41-3,.6s-2.21.44-3.33.58c-1.88.23-3.77.39-5.65.59-.75.09-1.49.23-2.24.32-.56.07-1.12.08-1.68.15a6.37,6.37,0,0,1-4-.7.62.62,0,0,1-.12-1.07,15.12,15.12,0,0,0,1.49-1.27,15.43,15.43,0,0,1,2.33-2.24c.31-.21.59-.47.95-.76a3.69,3.69,0,0,0-.65-.23c-.7-.1-1.41-.17-2.12-.27-1.61-.22-3.22-.43-4.83-.68-1.4-.22-2.79-.51-4.19-.74a5.13,5.13,0,0,1-2.13-.68,1.48,1.48,0,0,0-.71-.25.83.83,0,0,0-.6.15c-.47.38-.9.82-1.34,1.23-.66.62-1.31,1.25-2,1.86-1.75,1.59-3.53,3.17-5.28,4.78a11.28,11.28,0,0,1-3.29,2.3c-.82.33-1.17.22-1.56-.58,0-.08-.07-.16-.12-.24-.3-.58-.58-1.17-.93-1.72-.73-1.13-1.49-2.24-2.25-3.35-.54-.79-1.09-1.56-1.65-2.32s-1-1.19-1.41-1.82-.73-1.22-1.1-1.83c-.49-.82-1-1.63-1.49-2.45-.24-.41-.48-.81-.71-1.23-.38-.68-.74-1.38-1.11-2.06-.15-.28-.32-.53-.46-.81-.32-.68-.64-1.36-.94-2-.14-.3,0-.49.31-.55s.58-.1.87-.17c.08,0,.14-.12.22-.19s-.14-.15-.22-.16c-1.06-.14-2.13-.26-3.2-.38-.49,0-1-.07-1.46-.13a9.28,9.28,0,0,0-3.56.34,14.76,14.76,0,0,0-2.49,1.08,32,32,0,0,0-2.87,1.58c-1.8,1.15-3.55,2.37-5.33,3.56-.68.45-1.37.88-2,1.36-1.28.94-2.54,1.91-3.82,2.85a47.66,47.66,0,0,1-6.05,3.27,13.1,13.1,0,0,1-2.76,1.09,33.64,33.64,0,0,1-4.09.82,17.31,17.31,0,0,1-2.79,0c-.38,0-.47-.26-.34-.6a1.7,1.7,0,0,1,.19-.35A11.11,11.11,0,0,0,13,126.37c.25-1.27.3-2.58.5-3.87.31-2.08.68-4.15,1-6.23.2-1.31.42-2.63.56-4a7.66,7.66,0,0,0-.15-1.57,12.29,12.29,0,0,1-.15-1.36c0-1.09,0-2.17,0-3.26a1.13,1.13,0,0,0,0-.18,14.75,14.75,0,0,1-.24-4.14,1.13,1.13,0,0,0-.07-.44,20,20,0,0,1-.83-4.79,6.66,6.66,0,0,0-.38-2.51,6.62,6.62,0,0,1-.54-2.54c-.1-1-.09-2-.19-3A18.76,18.76,0,0,0,12.15,86c-.21-.89-.51-1.76-.77-2.64-.14-.47,0-.64.48-.63l.35,0c1.72.34,3.44.65,5.15,1a14.17,14.17,0,0,1,2.15.57,35.89,35.89,0,0,1,3.31,1.43c1,.52,2,1.14,3,1.74,1.76,1.08,3.52,2.16,5.25,3.28,2.07,1.34,4.11,2.74,6.19,4.09,1.31.86,2.63,1.72,4,2.45a5.61,5.61,0,0,0,3,.8c.72,0,1.45-.13,2.17-.19.5,0,1,0,1.51,0,1.22-.12,2.45-.25,3.67-.39.61-.07,1.21-.18,1.93-.29a7.09,7.09,0,0,1-.66-.49,2.4,2.4,0,0,1-.14-2.15A10.81,10.81,0,0,1,55,91.43a4.3,4.3,0,0,1,3.82-1.26,14,14,0,0,1,2.84.7,11.77,11.77,0,0,1,4.08,2.22,3,3,0,0,0,2.86,1c1.9-.41,3.88-.5,5.82-.75,1.41-.18,2.81-.42,4.22-.6,1.12-.15,2.24-.21,3.36-.37,1.64-.23,3.28-.52,4.92-.78.37-.06.73-.14,1.1-.21V91.3a5.67,5.67,0,0,1-.72-.09c-.14,0-.36-.19-.35-.28a2.06,2.06,0,0,1,.52-1.6.89.89,0,0,0,.27-.4,3.32,3.32,0,0,1,1.67-1.88,4.42,4.42,0,0,0,.92-1c.36-.44.67-.92,1-1.35s1.19-.92,1.58-1.61,1.11-1.43,1.53-2.22c.58-1.07,1-2.22,1.52-3.34a1.45,1.45,0,0,0,.06-.3c0-.25.12-.49.15-.73.11-.82.57-1.5.73-2.32s.29-.85,1.09-.63a2.72,2.72,0,0,1,.75.29c1.09.68,2.19,1.36,3.24,2.1.79.55,1.51,1.2,2.26,1.79s1.51,1.15,2.24,1.76c.53.44,1,1,1.53,1.42,1.37,1.22,2.77,2.42,4.14,3.65a27.62,27.62,0,0,0,4,3.43,4.49,4.49,0,0,0,2.26.82c1.46,0,2.91.09,4.36.17,2.38.13,4.77.27,7.15.46,1.93.15,3.86.36,5.8.55s4.16.39,6.24.6q2.52.25,5,.54c1.13.13,2.26.3,3.4.44,1.52.2,3.06.35,4.58.59,1.73.27,3.45.62,5.17.93,1.2.21,2.41.33,3.59.62,2.16.54,4.31,1.18,6.46,1.79,1.5.42,3,.86,4.48,1.3,1.84.54,3.66,1.13,5.5,1.63s3.78.91,5.68,1.34c1,.23,2,.38,3,.61s1.85.51,2.79.71a10.7,10.7,0,0,1,5.66,2.63,11.18,11.18,0,0,1,2.64,3.63,2.1,2.1,0,0,1,.13,1.08,4.92,4.92,0,0,1-3.19,3.66,1,1,0,0,1-1.25-.15c.24-.21.46-.38.65-.58s.17-.38-.08-.4c-.48,0-.57-.39-.76-.7a4.8,4.8,0,0,0-.63-.85,2.43,2.43,0,0,0-.61-.35c-.47,0-1,0-1.48-.12a2.59,2.59,0,0,0-2.31.47,21.8,21.8,0,0,0-2.13,2.17,22.31,22.31,0,0,1-1.93,2c-.6.52-1.3.92-2,1.38-.35.24-.68.51-1.1.82a1.76,1.76,0,0,0,.52.2c1,0,2,0,2.93,0a6.67,6.67,0,0,1,1.49.12,6.9,6.9,0,0,0,2.49.61l.59,0v-.15c.34.27.76.35.94,0s.31-.32.65-.25a2,2,0,0,0,1.09-.2c.05,0,0-.43,0-.66,0,0,0,0,.06-.1l1.14.34.06-.14-.54-1a4.64,4.64,0,0,1,.53,0c.22,0,.42.14.64.18a1,1,0,0,0,.34,0,1.07,1.07,0,0,0-.07-.32,7.68,7.68,0,0,0-.4-.67C196.17,113.81,196.47,113.92,196.78,114Z"/></g></g></svg>