<svg xmlns="http://www.w3.org/2000/svg" viewBox="0 0 211.39 211.39"><defs><style>.cls-1{fill:#194f90;}.cls-2{fill:#fff;}</style></defs><g id="Layer_2" data-name="Layer 2"><g id="Layer_1-2" data-name="Layer 1"><circle class="cls-1" cx="105.69" cy="105.69" r="105.69"/><g id="King"><path class="cls-2" d="M18.27,129.3a7.39,7.39,0,0,0,1.56,0,25.05,25.05,0,0,0,3.45-.68,17.28,17.28,0,0,0,3-1.29c1.26-.66,2.48-1.4,3.7-2.12s2.7-1.62,4-2.47c.94-.6,1.84-1.28,2.75-1.91.36-.25.73-.47,1.07-.72,1.73-1.26,3.46-2.51,5.17-3.79,1.15-.86,2.26-1.77,3.42-2.61a2,2,0,0,1,1.52-.4c.55.08,1.1.1,1.65.15,1.31.1,2.62.18,3.92.33,1.88.22,3.75.46,5.62.76a22.12,22.12,0,0,1,2.39.63l1,.27a2,2,0,0,1,.59.25c-2.07.07-4.14-.37-6.27,0,.32.64.58,1.19.85,1.72.59,1.14,1.12,2.31,1.81,3.4a22.57,22.57,0,0,1,1.58,4,16.23,16.23,0,0,1,.42,2.76,7.57,7.57,0,0,1,0,1.78c0,.1.08.2.1.31s.1.28,0,.34c-.32.42-.21.92-.32,1.38-.06.3.1.36.36.42a3.86,3.86,0,0,0,2.05-.33c1.6-.49,3.17-1.05,4.72-1.65a26.34,26.34,0,0,0,2.69-1.26c1.35-.67,2.69-1.34,4-2.07,1-.57,2-1.24,3-1.85a1.47,1.47,0,0,1,1.44-.11c1,.43,2.05.79,3.1,1.14,1.28.43,2.57.82,3.85,1.21.62.19,1.24.35,1.91.54-.38.33-.71.57-1,.86-.45.47-.84,1-1.29,1.45a2.15,2.15,0,0,1-.56.36l-.46.3c.15.11.3.31.47.34a22.35,22.35,0,0,0,2.69.39c1.41.06,2.82,0,4.23,0,1,0,1.9.05,2.85.05.44,0,.88-.07,1.32-.1a24,24,0,0,1,2.8-.2c1.28,0,2.56.19,3.83.35,1,.13,2,.36,3,.49s2.14.19,3.21.3c1.41.14,2.82.32,4.24.45s3.13.25,4.7.38l3.43.26,1.49.07c1.23.06,2.45.13,3.68.18.77,0,1.54,0,2.31,0,.59,0,1.18.11,1.77.11,1.51,0,3,0,4.52-.06,1.18,0,2.36-.12,3.54-.2.71-.05,1.42-.14,2.13-.2,1.28-.12,2.56-.21,3.84-.34.79-.09,1.58-.22,2.37-.32,1.1-.14,2.2-.27,3.29-.43,1.74-.25,3.48-.46,5.2-.78,1.4-.26,2.77-.64,4.16-1,.86-.2,1.74-.34,2.59-.56,1-.26,2-.57,3-.86a.94.94,0,0,1,.15-.06l3.73-1,.84-.24c.84-.27,1.69-.5,2.51-.82s1.72-.79,2.59-1.19c1.28-.6,2.56-1.21,3.86-1.79s2.82-1.2,4.21-1.84a30.38,30.38,0,0,0,3.05-1.59,26.14,26.14,0,0,0,3.95-2.64c.55-.49,1.11-1,1.63-1.5a4.28,4.28,0,0,0,1.26-2.65,3.11,3.11,0,0,0-2-.39.83.83,0,0,0-.44.27,3.68,3.68,0,0,1-1.82,1c-.26.06-.51.21-.77.29s-.48.19-.63.11c-.92-.52-1.9-.22-2.85-.26,0,0,0,0-.13-.07a9,9,0,0,1,.76-.58c.68-.4,1.38-.76,2.05-1.18s1.5-1,2.26-1.53a2.06,2.06,0,0,1,.55-.23l1.78-.55a3.59,3.59,0,0,0,.72-.32.88.88,0,0,0,.18-1.54,13,13,0,0,0-2.53-1.72c-2.27-1.05-4.58-2-6.89-3-1.68-.69-3.38-1.3-5.08-1.91-1.17-.42-2.36-.77-3.54-1.17-.73-.25-1.44-.57-2.17-.81-1-.33-2-.62-3-.93-1.37-.43-2.73-.89-4.11-1.31-1.1-.33-2.21-.63-3.32-.9-1.86-.47-3.72-1-5.59-1.34-2.38-.49-4.78-.91-7.17-1.34-1.1-.2-2.21-.33-3.31-.51-.9-.15-1.78-.36-2.68-.47s-2.11-.2-3.16-.31l-2.1-.24-6.51-.72c-2-.2-3.93-.38-5.89-.56-1.13-.1-2.26-.16-3.39-.28-.9-.09-1.8-.24-2.7-.35-.49-.06-1-.06-1.48-.14a2.73,2.73,0,0,1-1.07-.37c-.94-.7-1.83-1.47-2.74-2.21s-2.11-1.69-3.17-2.53c-.78-.62-1.54-1.26-2.35-1.83-1.21-.85-2.46-1.64-3.69-2.46-.7-.47-1.4-1-2.12-1.42a14.4,14.4,0,0,0-4-1.8c-.4-.11-.45.18-.44.46a4.73,4.73,0,0,1-.51,2.15,24.18,24.18,0,0,1-3.4,5.09c-.47.58-.87,1.21-1.32,1.8-.3.4-.65.76-1,1.14s-.66.85-1,1.27a2.92,2.92,0,0,1-.32.44,3.58,3.58,0,0,0-1,1.92.85.85,0,0,1-.47.51,7.49,7.49,0,0,1-1.34.22c-.84.08-1.69.12-2.52.22-1.63.2-3.26.42-4.89.64l-3.64.54c-1,.14-2,.24-3,.37l-5.09.71c-.5.07-1,.15-1.48.2a4.5,4.5,0,0,1-2.67-.74c-1-.52-2-1.07-3-1.58a2.56,2.56,0,0,0-2.5-.11,3.49,3.49,0,0,0-1,.86,17.35,17.35,0,0,0-1.36,1.83,4,4,0,0,0-.43,1.23c-.07.32-.18.49-.52.53l-6,.73c-.63.08-1.27.09-1.9.17a3,3,0,0,1-2.16-.62c-1-.67-2.06-1.28-3.1-1.92l-3.89-2.44c-2.16-1.36-4.32-2.72-6.49-4.06-1-.61-2-1.11-3-1.75a33.5,33.5,0,0,0-6.59-3.08,12.37,12.37,0,0,0-4-1,3.18,3.18,0,0,0-1,.11.44.44,0,0,0-.25.74,8.89,8.89,0,0,1,1.06,3.58c0,.19.1.37.15.56.25.9.51,1.81.73,2.72.11.44.11.9.2,1.35.06.29.21.57.27.86.11.54.18,1.08.26,1.61s.17.92.23,1.39.07,1.05.16,1.56a11.41,11.41,0,0,0,.38,1.22,2.18,2.18,0,0,1,.09.23c.09.66.17,1.33.27,2,.05.28.19.55.23.84.09.75.15,1.5.23,2.25a2.63,2.63,0,0,0,.18.85,3.89,3.89,0,0,1,0,2.34c0,.19-.11.37-.13.56-.1.81-.17,1.61-.29,2.41a22.72,22.72,0,0,1-.46,2.86c-.27,1-.7,2-1.05,3-.28.82-.57,1.64-.79,2.48-.48,1.89-.92,3.78-1.37,5.68-.2.86-.35,1.73-.55,2.59a8.18,8.18,0,0,1-.39,1.08C17.67,129,17.79,129.27,18.27,129.3Zm123.19-20.77.29.36h0Zm-46.72.72,0,0Zm-24.23,10a.68.68,0,0,0-.34,0,.54.54,0,0,0-.37-.47.54.54,0,0,1,.37.47A.68.68,0,0,1,70.51,119.28Z"/></g></g></g></svg>