<svg xmlns="http://www.w3.org/2000/svg" viewBox="0 0 211.39 211.39"><defs><style>.cls-1{fill:#194f90;}.cls-2{fill:#fff;}</style></defs><g id="Layer_2" data-name="Layer 2"><g id="Layer_1-2" data-name="Layer 1"><circle class="cls-1" cx="105.69" cy="105.69" r="105.69"/><g id="UQHOgm"><path class="cls-2" d="M188.26,137.22a11.58,11.58,0,0,0-1.07,2.76c-.81,6.61-4.68,11.09-10,14.55a6.6,6.6,0,0,1-1.91.55c2.24-4.21,4.47-8.38,6.66-12.57,1.19-2.27.74-4.47-.39-6.65-2.76-5.35-5.52-10.7-8.18-16.09-1-2-2.28-4.07-2.38-6.16-.13-2.93-2.36-4.72-3-7.34-.56-2.29-2.38-3-4.85-2.07a56,56,0,0,1-9.16,2.52c-1.54.27-3.14.36-4.7.56-4.24.56-7.14,4-11,4.69-2.82.55-4.35,2.68-6.73,3.56a10.08,10.08,0,0,0-1.82,1.11l.56,1.1c1.36-.13,2.86.05,4.07-.45,4.92-2,10.06-3.1,15.23-2.16,4.23.76,8.27,2.55,12.38,3.94a20.87,20.87,0,0,1,2.53,1.22c0,.74-.23,1.74.16,2.28,2,2.81.59,5-1.25,6.93-4,4.14-8,8.31-12.31,12.09-4.75,4.15-9.78,8-14.84,11.77-3.16,2.36-6.68,3-10.49,1.21a50.93,50.93,0,0,0-5.28-1.73,15.08,15.08,0,0,1-8.05-6.17c1.08.4,1.59.63,2.12.78,4.36,1.18,8.69,2.63,13.12,3.37,1.58.26,3.78-.87,5.11-2,5.12-4.44,9.87-9.31,15-13.7,3.57-3,7.59-5.54,11.7-8.49-.8-.73-1.26-1.55-1.8-1.6-5.76-.59-11.59-1.76-17.26-1.27-2.84.24-5.79,1.13-8.53.37a9.59,9.59,0,0,0-9,1.4c-2.2,1.49-5.67,1.15-8.59,1.52-2.05.25-4.13.31-6,.44l1.08-1.39-.3-.63a43.35,43.35,0,0,1-6.55,1.94,23.62,23.62,0,0,1-7.91.07c-2.92-.61-6.4-.29-8.42-3.5-.27-.41-2.07-.19-3,.21-2,.88-3.59,1.16-4.23-.57-3.86,0-7.31,0-10.76,0-4.08,0-8.15,0-12.22.18a2.61,2.61,0,0,0-1.8,1.32c-.19.38.43,1.2.75,1.8.64,1.19,1.32,2.36,2,3.55l1.29,2.37,1.78-2.8.47,2.4.67-.36c.71,1.13,1.42,2.26,2.11,3.4a7.37,7.37,0,0,0,1.07,1.87c3.13,2.72,6.34,5.34,9.52,8,.48.4,1.17.8,1.33,1.33.84,2.8,3.06,3,5.46,3.39,5.5.87,10.69.3,15.9-3.16A13.38,13.38,0,0,1,89,153.7c-5.13,1.62-10.45,3.16-15.17-1.16Q62.35,142,50.94,131.44A30.21,30.21,0,0,1,48.09,128c-3-3.76-1.78-8.82,2.81-10.38a55.45,55.45,0,0,1,12.86-3.21c3.57-.32,7.29.84,10.92,1.42a16.07,16.07,0,0,0,4.7.51l-2.62-2.47,1.39-2c-.35-.33-.56-.68-.86-.79C68.87,108,60.38,105,52,101.72c-2.53-1-4.19-.59-5.38,1.54-1.6,2.88-2.8,6-4.45,8.84-.86,1.48-2.47,2.49-3.48,3.9-1.17,1.62-3.47,2.83-2.46,5.45-2.36,1-1,4.46-3.56,5.48a2,2,0,0,0-.79,1.7c.23,1.64-.64,2.72-1.54,3.86-2.56,3.25-1.13,6.82-.16,10,1.16,3.74,3.35,7.17,5.22,11-1.18-.75-2.74-1.26-3.53-2.33-2.7-3.62-5.14-7.42-7.65-11.17a21,21,0,0,1-1.12-2.16v-4.46c2.65-5.71,5.22-11.44,8-17.09a59.93,59.93,0,0,1,3.55-5.6c2.56-4,4.77-8.32,7.79-12,1.53-1.85,4.39-2.84,6.85-3.59,1.37-.42,3.14.46,4.73.72,2.61.42,5.24.73,7.82,1.27a18.49,18.49,0,0,1,5.67,1.77c3.82,2.27,7.38,5,11.14,7.36.86.54,2.11.47,3.07.66V102c-.27-.29-1-1.1-1.78-1.92-5.8-6.32-12-12.37-15.07-20.67a2.83,2.83,0,0,0-2.61-.93c-3,1.28-6.36,1.19-8.78,4.3-1.33,1.71-4.71,1.79-7.13,2.73-4.12,1.59-8.23,3.21-12.3,4.94-2.66,1.13-4.05,3.37-4.82,6.11-.92,3.27-2,6.5-3.11,10.12-.35-.77-.71-1.18-.68-1.57.27-4.33.22-8.73,1.06-12.95a15.6,15.6,0,0,1,3.79-6.78c1.2-1.35,3.33-2,5.13-2.7,6.87-2.77,13.77-5.47,20.68-8.16a12.11,12.11,0,0,1,4-1.21c2.35,0,5.51-.4,6.91.89A150.39,150.39,0,0,1,79.41,87.85c2.08,2.45,3.71,5.27,5.66,7.83,1.43,1.87,3.05,1.89,4.66.07a8.32,8.32,0,0,1,1.65-1.27c.81-.55,2.18-.94,2.33-1.62S93.1,91,92.63,90.08c-.92-1.75-2-3.43-2.84-5.21-.73-1.53-1.18-3.19-1.85-4.75-1.9-4.42-5.85-8.58-1.37-13.79.37,0,1.14.25,1.56,0,5-3.31,10.46-1.55,15.72-1.43,1.12,0,3.21,2.09,3.08,2.95-.22,1.48-1.89,2.3-3.87,2.34a41.69,41.69,0,0,0-8.13,1.21c-.65.14-1.36,1.16-1.59,1.92-.72,2.42,1,5.13,3.88,6.66,2.55,1.34,5.54,2.29,5.62,6.23l2.83-1.65,2.93,1c.51-4.49,1.25-5.34,4.94-5.7l-4.18,3.63c2.4,0,2.4.8,1.65,2.16-.2.35.1,1,.18,1.46.47-.14,1.17-.13,1.37-.44,1.52-2.41,3-4.88,4.4-7.33l.23.36,7.44-7.7c-1.22-1.44-2-2.92-3.16-3.64-3.53-2.12-7.29-3.85-10.84-5.92-1-.59-1.63-1.85-2.42-2.8l.56-.73,5,.6.11-.61-5.16-1.09,2.56-2h5c2.76.73,5.52,1.41,8.26,2.19a12.83,12.83,0,0,1,8.23,7c2.89,6.06,1.76,9.81-3.48,14.51a21.55,21.55,0,0,0-4.26,4.7c-1.61,2.69-2.67,5.7-5.9,7.06a2,2,0,0,0-.57,1.88c.18.49,1.06.85,1.7,1a4.92,4.92,0,0,0,1.74-.24c2,3.59,5,4.48,7.06,0,3.15-6.69,8.48-11.81,14-16.61,1-.9,2-2.13,3.26-2.52,4.63-1.47,9.07-.37,13.36,1.59,6.29,2.9,12.47,6.11,18.91,8.61,5.57,2.16,8.07,6.17,9.05,11.62.2,1.09.38,2.18.57,3.26V101c-.5,2.36-1,4.72-1.64,7.66-1.2-4.56-2.14-8.38-3.23-12.16-.68-2.38-2.37-3.77-4.66-4.81-4.84-2.21-10.19-3.41-14.35-7a4.49,4.49,0,0,0-2.12-.55c-1.36-.24-2.73-.42-3.92-.59-.15-.83-.05-1.72-.41-2-2.08-1.54-7.44-.62-9.15,1.35-2.67,3.09-5.4,6.13-8.16,9.14-2.51,2.73-5.24,5.28-7.61,8.12a20.73,20.73,0,0,0-2.88,5.3c-.28.67.21,1.67.35,2.52a9.16,9.16,0,0,0,2.14-.74c1.86-1.22,3.56-2.71,5.49-3.81a51.67,51.67,0,0,1,8.9-4.51,68.42,68.42,0,0,1,10.87-2.31,56.23,56.23,0,0,1,6.87-.48c.28,0,.58.37.87.59,1,.73,2,1.48,3,2.21,1.18.87,2.81,1.47,3.47,2.63,2.78,4.88,5.47,9.84,7.82,14.94,3,6.47,5.6,13.1,8.38,19.67Z"/></g></g></g></svg>