<svg xmlns="http://www.w3.org/2000/svg" viewBox="0 0 211.39 211.39"><defs><style>.cls-1{fill:#194f90;}.cls-2{fill:#fff;}</style></defs><g id="Layer_2" data-name="Layer 2"><g id="Layer_1-2" data-name="Layer 1"><circle class="cls-1" cx="105.69" cy="105.69" r="105.69"/><path class="cls-2" d="M9.53,132.33A5.37,5.37,0,0,0,14.3,132c3.74-1.81,7.59-3.5,10.67-6.37a54.14,54.14,0,0,0,5.28-5.64A154.81,154.81,0,0,1,45.16,103.3c1.61-1.51,2.86-1.8,4.58-1,.93.41,1,1,.21,1.54s-1.47,1.22-1,2.06a4.31,4.31,0,0,0,2,1.71c1.84.75,3.78,1.26,5.68,1.89,2.34.78,4.68,1.57,7,2.4,1.13.41,2.21,1,3.36,1.33,1.43.43,2.92.68,4.38,1,.53.13,1,.3,1.56.43s1.08.2,1.61.34c1.42.37,2.84.75,4.26,1.16.29.09.53.38.83.47,2,.64,4,1.23,6,1.88A33.64,33.64,0,0,1,90,120.06a3.33,3.33,0,0,1,1.58,1.75c.16.45-.44,1.17-.75,1.75-.1.19-.41.28-.51.47-.19.4-.3.84-.45,1.26.42.13.87.43,1.25.35a72.59,72.59,0,0,0,8-1.78c3.63-1.15,7.12-2.76,10.76-3.87a10.58,10.58,0,0,1,4.72,0c5.11.9,10.17,2.06,15.28,3,4,.71,8.13,1.17,12.2,1.76a13.12,13.12,0,0,1,1.48.43l0,.42c-.43.08-.85.17-1.28.23a3.79,3.79,0,0,0-3.25,2.15c-1.1,2-2.89,3.61-4.38,5.38-.24.29-.68.56-.7.85-.07,1.27-1,1.84-1.83,2.5a3.81,3.81,0,0,0-1.67,2.07c-.25.89-1.36,1.6-2.19,2.26-1,.8-2.11,1.47-3.23,2.25,1.45,1.72,3,.8,4.13.3,2.64-1.16,5.13-2.65,7.7-4a8,8,0,0,1,2.21-.77c1.72-.29,2.74-1.54,3.85-2.66.62-.61,1.16-1.31,1.74-2l.52.13q-.27,6.51-.55,13l.29.18a9.9,9.9,0,0,0,1.52-2c1.48-3.56,3.05-7.1,4.21-10.77a42.38,42.38,0,0,0,1.22-7.32c.15-1.1.5-1.66,1.74-1.68,7.76-.14,15.52-.21,23.26-.61A86.89,86.89,0,0,0,188,123.4a8.58,8.58,0,0,0,2.63-1.29c2-1.18,3.87-2.46,5.85-3.62a7.12,7.12,0,0,0,3-3.18,15.44,15.44,0,0,1,2.41-2.81,16.37,16.37,0,0,0-3.18-1.12c-1.52-.22-3.08-.12-4.62-.2a3.83,3.83,0,0,1-1.08-.4,4,4,0,0,1,.63-.82c1.59-1.16,3.21-2.25,4.79-3.42a1.59,1.59,0,0,0,.29-2.64,2.39,2.39,0,0,1-.57-1.24c-.37-4.13-.62-8.27-1.05-12.39a18.55,18.55,0,0,0-2.28-7.86A7.19,7.19,0,0,0,189.57,79a5.58,5.58,0,0,1-4.5-2.94,41.23,41.23,0,0,0-9.75-11.55,2.4,2.4,0,0,0-1.27-.42c-1.78-.09-3.56-.23-5.33-.15a16,16,0,0,0-4.2.68,3.44,3.44,0,0,1-2.94.06c-.21-.11-.61.12-.92.2s-.68.35-.9.25c-2.24-.93-4.23.31-6.31.67a1.49,1.49,0,0,0-.77.33c-1,1-2.09,1.51-3.47.69-.13-.08-.47,0-.64.18a8,8,0,0,1-4.5,1.44,16.83,16.83,0,0,0-2.74.95c-3.53,1-7.09,1.83-10.62,2.8-1.28.35-2.49,1-3.78,1.27-1.73.38-3.51.51-5.26.77-.73.11-1.43.35-2.15.46-1.87.27-3.75.44-5.61.76-2.65.46-5.31.88-7.89,1.57-3.08.82-6.06,2-9.13,2.86-2.63.72-5.34,1.14-8,1.75-1.93.44-3.84,1-5.77,1.44-.62.14-1.31,0-1.92.12-2.39.54-4.76,1.22-7.16,1.73-2.67.56-5.39.92-8.06,1.5-3.69.81-7.35,1.72-11,2.68-.69.17-1.24.82-1.9,1.17a36.2,36.2,0,0,1-5,2.41,4.12,4.12,0,0,1-4.28-1.16C41.15,88.8,38.63,86,36,83.23c-3.61-3.76-7.31-7.48-12-9.91A78.26,78.26,0,0,0,16,70a4.82,4.82,0,0,0-1.49,0,3.77,3.77,0,0,0,.36.85c3.75,4.61,7.53,9.21,11.28,13.84,1.51,1.86,3.05,3.7,4.38,5.69,1.12,1.68,2.44,3.5,2.72,5.39.18,1.2.78,2.86-.64,4.4s-1.92,3.92-3,5.82c-1.78,3.13-3.71,6.17-5.56,9.25a26.32,26.32,0,0,0-1.22,2.36A39.11,39.11,0,0,1,15,128.55c-1.24,1.27-3,2-4.52,3C10.23,131.74,10,132,9.53,132.33Z"/></g></g></svg>