<svg xmlns="http://www.w3.org/2000/svg" viewBox="0 0 211.39 211.39"><defs><style>.cls-1{fill:#194f90;}.cls-2{fill:#fff;fill-rule:evenodd;}</style></defs><g id="Layer_2" data-name="Layer 2"><g id="Layer_1-2" data-name="Layer 1"><circle class="cls-1" cx="105.69" cy="105.69" r="105.69"/><path class="cls-2" d="M133.52,135.48c4.51-1.62,9.13-3.14,14-4.42a118.55,118.55,0,0,1,15.14-3,13,13,0,0,0,9.66.37,9.62,9.62,0,0,0,4.67-3.89,11.65,11.65,0,0,0,1.63-6.38c-.09-4.51-2.35-10.1-7.74-16-12.08-16.38-29.59-27.33-48.32-32.8-20.13-5.89-41.69-5.45-59.43,1.37a51.75,51.75,0,0,0-21.07,14.8,40,40,0,0,0-8.5,16.65,30.8,30.8,0,0,0,1.2,18,35.78,35.78,0,0,0,10.76,14.53A43.77,43.77,0,0,0,58,141.9,65.39,65.39,0,0,0,74,145.64c10.83,1.21,21.79.09,32-2A208.06,208.06,0,0,0,133.52,135.48Z"/></g></g></svg>