<svg xmlns="http://www.w3.org/2000/svg" viewBox="0 0 211.39 211.39"><defs><style>.cls-1{fill:#194f90;}.cls-2{fill:#fff;}</style></defs><g id="Layer_2" data-name="Layer 2"><g id="Layer_1-2" data-name="Layer 1"><circle class="cls-1" cx="105.69" cy="105.69" r="105.69"/><path class="cls-2" d="M55.24,97.09a2.82,2.82,0,0,1-.29-.18c-.46-.38-.94-.74-1.36-1.16a.86.86,0,0,1-.12-.66,5.68,5.68,0,0,1,1.68-2.79,5.43,5.43,0,0,1,3.64-1.91,9.54,9.54,0,0,1,5.11,1,12.17,12.17,0,0,0,1.78.78A5.39,5.39,0,0,0,68.6,92c2.31-.61,4.63-1.19,6.94-1.79,2.64-.69,5.28-1.39,7.92-2.07.79-.2,1.59-.37,2.39-.55.25-.06.45-.15.4-.47a4.66,4.66,0,0,1,1.1-3.28c.6-.95,1.52-1.71,1.75-2.89a1.86,1.86,0,0,1,.23-.44c.64-1.13,1.3-2.25,1.91-3.39s1.12-2.2,1.69-3.29a3.56,3.56,0,0,1,.67-1.1,2.18,2.18,0,0,1,2-.76c.89.19,1.86.07,2.72.32a85,85,0,0,0,8.47,2.07,31.88,31.88,0,0,1,4.68,1.31A9.54,9.54,0,0,1,114,77a2.65,2.65,0,0,0,2.18.58c1.13-.21,2.26-.47,3.4-.63,2.1-.3,4.2-.58,6.31-.8C127,76,128.14,76,129.28,76c.6,0,1.21.19,1.79.13a23.88,23.88,0,0,1,5.79.45,24.52,24.52,0,0,1,4.73,1.28c1.68.59,3.3,1.37,4.95,2.07a11.35,11.35,0,0,1,4.24,3.44,26.54,26.54,0,0,1,3,4.48c.7,1.31,1.43,2.61,2.16,3.91a16.69,16.69,0,0,0,2.45,3.46c.81.85,1.61,1.7,2.36,2.6a17.91,17.91,0,0,0,4.25,3.62,26.07,26.07,0,0,0,4,2,25.36,25.36,0,0,0,3.32,1.11,29.11,29.11,0,0,0,6.09.92l8.76.49c1.76.1,3.53.19,5.3.32a5.1,5.1,0,0,1,2.43.7,3.1,3.1,0,0,1,1.26,2.55,2.12,2.12,0,0,1-1.09,1.94,3.94,3.94,0,0,1-.71.36l0-.86a2.42,2.42,0,0,0-.56.22c-.46.37-.52.35-.63-.2s-.21-.63-.78-.49a.66.66,0,0,1-.28,0,3.55,3.55,0,0,0-1.83,0c-.48.13-1,.15-1.29.68,0,0-.13,0-.19.06l-1.1.65a3.52,3.52,0,0,1-.45.3,1.89,1.89,0,0,0-1.09,1.23,1.26,1.26,0,0,1-.35.51c-.28.28-.6.53-.89.8-.49.48-.77,1.19-1.57,1.3-.07,0-.13.1-.19.16-.77.74-1.54,1.47-2.3,2.22-.35.35-.65.74-1,1.17a2.48,2.48,0,0,0,.39.09,25.76,25.76,0,0,0,3-.1,3.78,3.78,0,0,1,2.37.23.81.81,0,0,0,.49,0,40.58,40.58,0,0,0,6.93-1.8c.54-.18.6-.45.24-.89a3.38,3.38,0,0,1-.18-.3c.1,0,.17-.08.22-.07a21.65,21.65,0,0,1,2.26.81.79.79,0,0,1,0,1.32c-.66.54-1.31,1.1-2,1.58-1.43,1-2.89,1.88-4.33,2.82a15.54,15.54,0,0,1-1.38.9c-1.53.75-3.07,1.46-4.61,2.2-1.28.61-2.53,1.3-3.85,1.83-1.84.74-3.72,1.39-5.61,2-1.68.55-3.39,1-5.1,1.52-.8.22-1.61.41-2.42.6-1.07.26-2.14.53-3.22.76-.78.18-1.58.28-2.36.45-1.73.37-3.45.8-5.19,1.14s-3.62.63-5.43.95a50.46,50.46,0,0,1-7.45.87c-.87,0-1.74.09-2.61.11-2.65.08-5.3.21-7.95.21-2.12,0-4.24-.1-6.36-.24-1.81-.12-3.62-.35-5.43-.54s-3.35-.37-5-.53-3.63-.35-5.45-.46a19.59,19.59,0,0,0-3.59-.05,40.48,40.48,0,0,0-4.62.89c-1.57.35-3.1.85-4.67,1.17-2.32.47-4.67.84-7,1.25a4,4,0,0,1-3.13-.52c-.58-.4-.68-.75-.27-1.32a9.65,9.65,0,0,0,.75-1.29,6.13,6.13,0,0,1,2.13-2.84c.1-.06.16-.19.3-.36a6.19,6.19,0,0,0-.68-.19c-.64-.1-1.29-.16-1.93-.26a19.36,19.36,0,0,0-3.86-.58,1.29,1.29,0,0,1-.73-.27,10.55,10.55,0,0,1-1-.85c-.39-.34-.61-.32-1,0s-.74.67-1.11,1c-.18.16-.36.3-.53.46-1.08,1-2.12,1.94-3.24,2.83s-2.14,1.48-3.18,2.27a14,14,0,0,1-5.23,2.76,3.27,3.27,0,0,1-2.16,0c-.62-.28-1.24-.62-1.37-1.41a1,1,0,0,0-.27-.36,26.4,26.4,0,0,1-2.23-2.26,20.81,20.81,0,0,1-2.67-3.34A22.93,22.93,0,0,0,56,128.27a11.5,11.5,0,0,1-2.22-4.76,5.23,5.23,0,0,0-.23-.77c-.35-.88-.74-1.75-1.05-2.64s-.56-2-.94-3c-.29-.75-.48-1.41.23-2a.34.34,0,0,0-.13-.63,10.69,10.69,0,0,0-1.46-.35c-1.39-.2-2.79-.35-4.17-.55a1.84,1.84,0,0,0-2.16,1,5.22,5.22,0,0,1-1.27,1.59c-1.51,1.13-3.1,2.15-4.65,3.22s-3.19,2.14-4.74,3.28-3.28,2.58-5,3.82a33.11,33.11,0,0,1-6.88,4.08,12.21,12.21,0,0,1-5.61.76c-.31,0-.57-.17-.52-.53a3.48,3.48,0,0,1,.26-1,4.61,4.61,0,0,0,.54-2.06,8.69,8.69,0,0,1,.13-1.69,9.58,9.58,0,0,0,0-3.58,5.52,5.52,0,0,1-.11-1.4c.08-.79.24-1.58.38-2.36.2-1.15.35-2.32.62-3.45.19-.81.64-1.55.82-2.36a10.82,10.82,0,0,1,1.32-3.44,2.7,2.7,0,0,0,.31-.74c.22-.83.35-1.7.64-2.51s.29-1.32-.45-1.76a.38.38,0,0,1-.16-.19,31.11,31.11,0,0,1-1.31-3A22.24,22.24,0,0,1,17.44,98a23.75,23.75,0,0,1-.21-2.53c0-.35,0-.7,0-1-.05-1-.21-2-.16-3,.07-1.58.26-3.16.41-4.74a4.41,4.41,0,0,0-.66-3.34,1.33,1.33,0,0,1-.09-1.44c.24-.43.68-.3,1.05-.28a15.37,15.37,0,0,1,6.75,2.22A68.24,68.24,0,0,1,31.62,89c2,1.52,3.94,3.14,5.94,4.68,1.08.84,2.2,1.64,3.34,2.4a16.44,16.44,0,0,1,3.63,3,.62.62,0,0,0,.47.21c1-.13,2-.28,3.07-.47,1.2-.21,2.4-.45,3.59-.7s2.34-.53,3.51-.79Z"/></g></g></svg>