<svg xmlns="http://www.w3.org/2000/svg" viewBox="0 0 211.39 211.39"><defs><style>.cls-1{fill:#194f90;}.cls-2{fill:#fff;}</style></defs><g id="Layer_2" data-name="Layer 2"><g id="Layer_1-2" data-name="Layer 1"><circle class="cls-1" cx="105.69" cy="105.69" r="105.69"/><path class="cls-2" d="M57.24,98.72a7.47,7.47,0,0,1-2.66,1c-1.32.31-2.61.74-3.92,1.1a19.09,19.09,0,0,1-3.83.75c-1,.07-2,.18-3,.24a7,7,0,0,1-2.87-.52,29.92,29.92,0,0,1-4.55-1.85,25.52,25.52,0,0,1-3-1.65,18.24,18.24,0,0,0-2.43-1.19c-1.8-1-3.61-1.86-5.46-2.72s-3.75-1.59-5.6-2.45a39.14,39.14,0,0,0-4.91-1.72,4.14,4.14,0,0,0-2.11-.26c-.4.08-.54.2-.58.64a5,5,0,0,0,.5,2,13.41,13.41,0,0,1,.42,2.38c-.37-.21-.74-.34-1-.52A.82.82,0,0,0,11,94a1.94,1.94,0,0,1-.52.34.41.41,0,0,0-.24.64c.43.63.33,1.37.55,2,.08.21.2.42,0,.63a.22.22,0,0,0,0,.16,2.27,2.27,0,0,1,.29,1.28,5.25,5.25,0,0,0,.29,1.46c.23,1.07.55,2.11.77,3.17a5.52,5.52,0,0,1,.1,1.24,12.36,12.36,0,0,1,.14,1.73,1.14,1.14,0,0,0,.41.87c.26.28.64.69.3,1.2-.18.26,0,.48.07.74s.51.72,0,1.15c-.23.19,0,.69.29.81s.09.21,0,.31c-.22.47-.45.93-.13,1.45,0,0,0,.08,0,.11-.44.63,0,1.3-.1,1.94a.48.48,0,0,0,0,.17c.31,1.25-.41,2.48-.07,3.74a.72.72,0,0,1-.23.56c-.43.4-.34.91-.39,1.4a13.27,13.27,0,0,1-.07,1.89,1.28,1.28,0,0,0,.06.84.5.5,0,0,1-.09.58c-.2.25-.58.5-.07.82,0,0,.05.15,0,.16-.43.22,0,.59-.15.83a2.42,2.42,0,0,0-.09,2,.79.79,0,0,1-.16.75.56.56,0,0,0,0,.68,1.4,1.4,0,0,1,.27,1.11c-.09.53.11,1.09,0,1.65a.57.57,0,0,0,.36.63,4.59,4.59,0,0,1,.82.59c.1.07.22.14.27,0,.13-.43.44-.31.69-.23a.8.8,0,0,0,.92-.26c.14-.17.43-.17.53-.25.38-.26,1-.1,1.17-.72,0-.13.14-.32.25-.13.21.41.4.15.57,0a1.49,1.49,0,0,1,.63-.25c.36-.07.69-.14.68-.65a.48.48,0,0,1,.58-.43,1.54,1.54,0,0,0,1.24-.37,8.66,8.66,0,0,1,1.14-.57c.36-.19.65-.62,1.15-.32.08,0,.16-.08.21-.16a1.32,1.32,0,0,1,.8-.68c.22-.05.15-.21.07-.36s-.13-.15-.26-.06a12.49,12.49,0,0,1-1.44.66c-.19.11-.4.15-.52.39s-.36,0-.61,0c1.32-.72,2.63-1.32,3.86-2a34.39,34.39,0,0,0,3.1-2.16C30,124,31.55,123.06,33,122l4-3.06a5.44,5.44,0,0,1,1.31-.75l-.65.71c-.11.11-.27.21-.07.36a.21.21,0,0,0,.33-.11c.11-.4.3-.29.53-.13s.35.08.32-.07c-.17-.73.22-.29.44-.24a1.24,1.24,0,0,0,.71-.21,15.75,15.75,0,0,0,1.65-.53,2.34,2.34,0,0,1,2.21-.26c.12.06.31.17.32-.1,0-.57.29-.31.48-.13s.3.35.42,0c0-.16.18-.13.27-.06.48.42,1.07.21,1.59.23a9,9,0,0,0,2.79,0c.33-.09.66.3,1.06.34a1.92,1.92,0,0,1,1.06.3.07.07,0,0,0,.06,0c1.31-.44,2.46.66,3.76.42a.59.59,0,0,1,.54.25s.08.14.1.13c.62-.18,1,.7,1.63.4a.32.32,0,0,1,.27,0,5,5,0,0,0,2.44.35,1.22,1.22,0,0,1,.71.2c-.57.35-1.14.14-1.69.18a7.93,7.93,0,0,0-2.41.52A.31.31,0,0,0,57,121a1.12,1.12,0,0,0,.18.65,19.94,19.94,0,0,1,1.26,2.76c-.31-.1-.53-.21-.58-.44s-.26-.36-.53-.2c-.11.07-.23.18-.35.17-.85,0-1.19.68-1.67,1.17-.15.15-.3.37-.17.55.28.41.37.9.61,1.32a1.56,1.56,0,0,1,.23.62c0,.15,0,.36.11.43.9.65.66,1.91,1.35,2.61s.4,1.55,1.27,1.86c.17.06.2.26.22.44s-.12.58.38.58c.12,0,.24.46.37.71s.07.57.42.18c.11-.13.22.06.23.14,0,.47.36.6.72.81s.5.49.84.68a15.9,15.9,0,0,0,2.88,1.39,13.75,13.75,0,0,0,3.46,1.13c.36,0,.71,0,1.07,0a3.85,3.85,0,0,1,1.55.24,15.15,15.15,0,0,0,1.84.33c.11,0,.26,0,.24-.14-.06-.58.23-.32.39-.14s.57.1.85.15c0,0,.1-.05.12-.09.15-.35.14-.28.52-.2s.8.38,1-.28c0-.14.21-.07.27,0a.35.35,0,0,0,.58.06,3.91,3.91,0,0,1,1.61-.66c.52-.19,1.1-.3,1.65-.44.33-.08.68-.13.87-.47,0-.05.09-.12.11-.12.82.35,1.37-.73,2.18-.4.11,0,.18,0,.23-.11a1.89,1.89,0,0,1,1.56-.83.4.4,0,0,0,.34-.17c0-.07.07-.17.12-.18,1-.2,1.73-1,2.78-1a1.3,1.3,0,0,1,.63.23c.17.1.35.21.53.12s.59-.35.61.26c0,.17,1,.06,1.09-.14s0-.2.07-.2c1.11,0,1.21-.84,1.42-1.61a.84.84,0,0,1,.07.85c0,.16-.09.33-.12.49a.31.31,0,0,0,.16.34c.16.06.25-.05.33-.16.3-.41.6-.82.88-1.24.11-.17.18-.38.43-.37s0,.26,0,.38-.18.36,0,.48.21-.21.34-.2c.45.05.89-.08,1.34-.06.23,0,.33-.05.33-.26,0-.64.57-1,.76-1.55a.25.25,0,0,1,.12-.11c.67-.36.67-.45.08-1l0,0c.85-.16,1.12,0,1.15.89s.09,1.39.12,2.09c0,.15,0,.29.19.32a.38.38,0,0,0,.41-.26c.2-.42.35-.86.55-1.29a14.76,14.76,0,0,0,.6-2.26.15.15,0,0,1,.19-.14c.08.3-.18.7.09.94s.6,0,.92.05c.53.09,1.08.06,1.63.11a1.5,1.5,0,0,1,.81.22.47.47,0,0,0,.63,0c.32-.32.6-.22.9,0a.75.75,0,0,0,.94.08.61.61,0,0,1,.75.09c.39.37.76.16,1.15,0a2.1,2.1,0,0,0,.3-.15c.3.76.76-.17,1.18.11a2.42,2.42,0,0,0,1.44.17,11.82,11.82,0,0,0,2.22.13c.08,0,.18,0,.26.07s.47.74.55-.08c0-.1.16,0,.24,0a3.52,3.52,0,0,0,1.51.2c.65,0,1.21.41,1.89.28.22,0,.48,0,.72-.07s.36-.1.46.1c.36.72.3-.09.49-.14.15.21.33.39.55,0,.09-.14.28,0,.43,0,.56.11,1.09.48,1.71.24a.24.24,0,0,1,.22,0c.43.56,1.29.34,1.71.92.06.09.25.17.24.22-.19.73.54,1.32.34,2.07-.18,0-.15-.14-.14-.23s.12-.41-.09-.51-.44.11-.5.27c-.18.41-.7.56-.75,1.07,0,.1-.1.19,0,.31s0,.33-.19.3c-.44-.08-.37.19-.42.46-.25,1.22.15,2.48-.24,3.69a.43.43,0,0,0,.09.42.64.64,0,0,1,.12.6,2.47,2.47,0,0,0,.16,1.79.49.49,0,0,1,0,.33c-.44,1,.12,2,.1,3.07,0,.34.13.71.13,1.11a1.55,1.55,0,0,0,.84,1.11,1.58,1.58,0,0,1,.42.27c.2.23.38.25.46-.11,0,0,0-.1,0-.1.49-.08.58-.64.93-.81a24.61,24.61,0,0,0,2.12-1.51,47,47,0,0,0,4.74-3.81,36.25,36.25,0,0,0,4.72-5.25c1.36-1.7,2.58-3.5,4-5.14.71-.82,1.29-1.76,2-2.61a.71.71,0,0,1,1-.29c.4.15.9.35,1.34-.07.19-.18.5.16.7,0,.46-.46,1-.16,1.57-.29.2-.05.43,0,.59-.18a2.42,2.42,0,0,1,1.72-.6,4.1,4.1,0,0,0,1.2-.32,2.87,2.87,0,0,1,1-.34.66.66,0,0,0,.52-.4c.15-.3.27-.53.55-.11.06.08.2.1.25,0,.37-.62,1.14-.45,1.63-.84.32-.25.67-.49,1.11-.18.1.06.33.08.35-.06.07-.47.61-.47.79-.85s.47-.17.72-.14a.75.75,0,0,0,.88-.43c0-.1.14-.23.22-.24a6.68,6.68,0,0,0,1.51-.49c.7-.17,1.37-.45,2.07-.58a2.05,2.05,0,0,0,1.2-.48c.17-.18.41.09.65,0a3.21,3.21,0,0,0,1.81-.8.51.51,0,0,1,.41-.16c.13,0,.34,0,.38-.07.33-.64,1-.34,1.44-.42a1.23,1.23,0,0,0,1-.64c.1-.19.18-.33.43-.22s.29,0,.43-.09a8.63,8.63,0,0,1,2.51-1,.89.89,0,0,0,.36-.16l2.22-1.29a1.06,1.06,0,0,1,.59-.17.68.68,0,0,0,.6-.33c.35-.43.92-.43,1.4-.61s1.35-.29,1.74-1c.08-.15.19-.14.32-.17s.73-.12.77-.26c.19-.75,1-.55,1.37-1,.1-.11.39-.13.27-.35s-.34-.07-.49,0a9.87,9.87,0,0,1-3.64,1.36,1.17,1.17,0,0,1,.82-.44,12.5,12.5,0,0,0,3-1.45l2.21-1.26c.14-.08.33-.26.45-.07s-.16.24-.28.31-.41.21-.38.56c.22-.11.38-.32.63-.32.44,0,.6-.16.34-.59s.1-.36.27-.46c.78-.47,1.57-.92,2.34-1.38,1.25-.75,2.48-1.52,3.73-2.27s2.74-1.57,4-2.46c.26-.17.5-.38.79-.54.69-.37,1.29,0,1.91.16a8.29,8.29,0,0,1,2.17.87c.17.09.32.15.48,0s0-.27,0-.41a4.66,4.66,0,0,0-1.48-1.92c-.16-.17-.43-.27-.55-.47a2.77,2.77,0,0,0-2.56-1.07,22.57,22.57,0,0,0-3.16.26,19.17,19.17,0,0,1-4,.31,13.07,13.07,0,0,0-2,.11c-1,.08-2-.11-2.95-.11-.11,0-.24,0-.29-.13s.08-.23.17-.33a40.57,40.57,0,0,0,3.56-4.62,16.2,16.2,0,0,1,2-2.59,1.82,1.82,0,0,1,1-.56,1.58,1.58,0,0,0,.56-.25c.8-.51.81-1.07,0-1.58-.37-.24-.73-.48-1.11-.69a1.07,1.07,0,0,0-.75-.21c-.3.08-.43,0-.62-.35a2.31,2.31,0,0,0-1.1-.82c-.74-.34-1.44-.74-2.16-1.11a45.46,45.46,0,0,0-5.62-2.37,1.77,1.77,0,0,0-.61-.1c-.25,0-.53,0-.25.4.12.19-.09.57.31.65a.23.23,0,0,1,0,.15.25.25,0,0,1-.36,0,15.79,15.79,0,0,0-2.57-1.52A10.2,10.2,0,0,0,172,85.88a19,19,0,0,1-5.67-1.26c-1.55-.6-3.15-1-4.74-1.51-.95-.3-1.87-.69-2.81-1-1.82-.69-3.62-1.43-5.46-2a38.27,38.27,0,0,0-6-1.7,33,33,0,0,0-4.73-.76.9.9,0,0,1-.93-.61c-.62-1.65-1.7-3.07-2.32-4.73a5.53,5.53,0,0,0-1.6-2.08c-.37-.33-.49-.82-.86-1.12-.13-.1-.24-.37-.45-.16s0,.33.09.45c.35.32.23.82.48,1.19.12.17-.06.2-.2.22a3.11,3.11,0,0,1-1.88-.9,6.32,6.32,0,0,1-.89-1.6c-.18-.34-.53-.44-.75-.74s-.34.06-.35.3c0,.41.26.74.31,1.14,0,.11.24.22,0,.31A.19.19,0,0,1,133,69c0-.52-.22-.43-.6-.38-.74.11-2.64-.6-3-1.56-.25-.62-.81-1-1-1.68a.16.16,0,0,0-.22-.12.38.38,0,0,0-.13.24,1.35,1.35,0,0,0,.28,1c.3.37.21.81.42,1.21-.34-1.07-1.32-.86-2.06-1.17a7.36,7.36,0,0,1-3.2-2.24,6.65,6.65,0,0,1-1.12-1.51.31.31,0,0,0-.34-.16.3.3,0,0,0-.27.26.73.73,0,0,0,0,.44c.2.4.36.68-.13,1.07a1.17,1.17,0,0,1-.94.36,4.1,4.1,0,0,1-1.5-.38,5.4,5.4,0,0,1-2.08-1.8c-.16-.28-.51-.37-.64-.69,0-.09-.17-.08-.25,0a.17.17,0,0,0,0,.25c.51.44.46,1.1.62,1.67a2.6,2.6,0,0,1-1.38,2.66,1.34,1.34,0,0,1-1.17,0c-.52-.25-1.12-.41-1.34-.94s-.47-.55-.76-.77c-.11-.09-.23-.17-.35-.07a.27.27,0,0,0,0,.37,5.43,5.43,0,0,1,.45,1.22A2.13,2.13,0,0,1,112,68a2.19,2.19,0,0,1-2.34.53A3.5,3.5,0,0,1,108,67.12c-.08-.14-.18-.35-.39-.23s0,.27,0,.41a1.2,1.2,0,0,0,.18.52,2.07,2.07,0,0,1,.17,2.39,2.28,2.28,0,0,1-2.11,1.21,1,1,0,0,1-.9-.4,7.22,7.22,0,0,0-1.47-1.23c-.11-.1-.27-.2-.4-.06s0,.24.1.37a10,10,0,0,0,.72,1.32c.2.27-.41,1.24-.76,1.37a2.1,2.1,0,0,1-2.16-.52,9.86,9.86,0,0,1-1.59-1.44c-.09-.12-.25-.24-.39-.12s0,.26.1.37a4,4,0,0,1,.6,2.59.29.29,0,0,1-.14.23,3.25,3.25,0,0,1-2.7.48c-.61-.2-1-.76-1.52-1.14-.25-.18-.49-.66-.76-.42s.13.57.31.82c.62.83.12,1.69-.83,2.07-.1,0-.26,0-.33.07-.46.42-.79.06-1.21-.12a15.44,15.44,0,0,1-2.75-1.75.51.51,0,0,0-.53,0,.2.2,0,0,0,.13.24,5.05,5.05,0,0,1,2,2.13.58.58,0,0,1-.35,1,2.51,2.51,0,0,1-2.11-.36c-.33-.19-.65-.39-1-.59a.24.24,0,0,0-.27,0c-.1.08-.05.17,0,.25s.19.48.43.65a1.63,1.63,0,0,1,.66,1.54c0,.7-.34,1-1,.66A22.38,22.38,0,0,1,84,77.42c-1.61-1.09-3.1-2.33-4.78-3.3a11.8,11.8,0,0,0-3-1.24,8.34,8.34,0,0,0-1.58,0,10.46,10.46,0,0,0-5.48,1.23,9.09,9.09,0,0,0-2.16,1.63q-2,1.89-3.85,4a8.2,8.2,0,0,0-1.16,1.59c-.41.74-1.06,1.3-1.47,2a42.77,42.77,0,0,1-2.37,3.79c-.15.21-.23.26-.44.14-.37-.22-.53,0-.52.32a1,1,0,0,1-.34.83c-.1.11-.22.27,0,.38s.22-.06.23-.21.08-.23.22-.16.1.21,0,.33L55.89,91.1a4.66,4.66,0,0,0-.25.5c-.13.33-.24.64-.73.48-.22-.08-.43.08-.54.31a3.66,3.66,0,0,0-.43,1A5.38,5.38,0,0,1,53.15,95c-.08.18-.2.33-.12.53s-.1.22-.18.32c-.2.29,0,.75-.4,1a3.71,3.71,0,0,0,3,2A4.9,4.9,0,0,0,57.24,98.72Z"/></g></g></svg>