<svg xmlns="http://www.w3.org/2000/svg" viewBox="0 0 211.39 211.39"><defs><style>.cls-1{fill:#194f90;}.cls-2{fill:#fff;}</style></defs><g id="Layer_2" data-name="Layer 2"><g id="Layer_1-2" data-name="Layer 1"><circle class="cls-1" cx="105.69" cy="105.69" r="105.69"/><g id="pZDnga"><path class="cls-2" d="M83.28,63.49l.89-2.07c.44,1.3,1.24,1,2.17.68s2-.59,3-.92a8.41,8.41,0,0,0,1.23-.55c.2-.1.39-.23.58-.35.1.23.31.49.27.69s-.36.32-.58.38c-.46.11-.94.15-1.41.22l-.19.39.86.51a2.6,2.6,0,0,0,.75,2.78.81.81,0,0,0,.73-.22,9,9,0,0,0,.8-1.26c-.17-.16-.42-.38-.65-.62s-.46-.51-.85-.95l.78.09c.35-.94.71-1.76,1-2.62a1.39,1.39,0,0,0-.08-1.07c-1.67-2.2-1.53-2.77.39-4.4.49-.42,1-.89,1.44-1.35l.84,6.29,2.54-1c.66,0,1.16,0,1.66,0,1.27-.09,2.54-.2,3.93-.31l-.38,2c-.42-.4-.93-1.29-1.49-1.32-1.29-.08-.5,1.29-1,2a3,3,0,0,0-.36-.82,8.48,8.48,0,0,0-.94-.85c-.25.33-.68.64-.71,1a25.86,25.86,0,0,0,0,2.92v1.47l-.28,0a17.76,17.76,0,0,1-.23-1.91,2.37,2.37,0,0,0-1.52-2.56,3.92,3.92,0,0,0-.13.92c.38,3.43.8,6.87,1.16,10.31.19,1.92.24,3.87.43,5.8.14,1.42.39,2.84.64,4.25A3.36,3.36,0,0,0,99,82l.3-.07.23-2.12c.64,1.27,0,3,1.66,3.87.27-1.14,2.07.8,1.92-1.3l.33.2.49,1.32-1.86.35c0,1-.09,2-.13,3-.42-.81.19-2-1.4-2.36l-.45,4h-.46l-.33-3.55c-.26.45-.45.62-.46.81a28.91,28.91,0,0,0,.62,9.18c0,.15.13.33.08.45-.52,1.36,0,2.64.21,4a13.87,13.87,0,0,1,0,2.27,6.71,6.71,0,0,1,.46,4.07c-.16,1-.28,1.86.63,2.63.24.2.16.84.15,1.28,0,.73-.18,1.47-.12,2.19.25,3.24.54,6.48.84,9.71.19,2,.4,3.93.65,5.89s.55,3.72.86,5.78l.6-.75c.11,1.6.67,3.13.2,4.2-1,2.17-.2,4.23-.26,6.33,0,.56.06,1.13.09,1.7l-.33.06c-.33-1.28-.72-2.56-1-3.86-.43-2.14-.77-4.29-1.16-6.44-.25-1.34-.57-2.67-.77-4-.11-.72,0-1.47,0-2.2-.1-1.3.12-2.84-.5-3.85-.91-1.48-.11-2.95-.58-4.4a36.31,36.31,0,0,1-.72-4.61,3.44,3.44,0,0,0-.79-1.46c0-.07,0-.16,0-.22.59-1.31.57-1.37-.83-1.87-.3-.1-1,.17-.45-.57a1.57,1.57,0,0,0-.64-.5c-.17,0-.51.2-.59.39a3.86,3.86,0,0,0-.09,1l-1.13-.47.66,4.53-.56-.88c-.32,1-.18,1.28.65,1.59a.51.51,0,0,1,.3.31c.24.86.85,1.89.59,2.56-1,2.38.08,4.61.91,6.44S98,130.57,99,132.33v-1.07c.23.8.93,1.47.14,2.47-.35.46.11,1.57.21,2.37a2.85,2.85,0,0,1,0,1.84c-.27.58.13,1.5.29,2.26.37,1.79.77,3.58,1.18,5.36.19.83.46,1.65.66,2.48.11.46.17.93.24,1.4l-.36.12c-.14-.36-.3-.71-.42-1.08-.75-2.29-1.47-4.6-2.24-6.89a18.8,18.8,0,0,1-.81-1.78c-.35-1.46-.54-3-.87-4.42a6.64,6.64,0,0,0-.76-1.78c-.13-.24-.51-.34-.77-.5-.08.3-.28.63-.21.89.51,1.84,1.11,3.65,1.6,5.49.11.44.84,1,0,1.45,0,0,0,.28,0,.31,1.27.66.67,1.91.93,2.88.39,1.51.8,3,1.19,4.54.08.32.12.65.17,1l-.32.13L96,144.11l-.36.08a2.37,2.37,0,0,0,0,.87c.71,2,1.46,3.92,2.22,5.87a4.71,4.71,0,0,0,.48.8c.62.91.92,2.16,2.58,1.76.63-.16,1.47.61,2.12.49,2.29-.46,4.07,1.28,6.24,1.27.35,0,.71.4,1.06.61h0c-2.27,1.59-4.72,1.47-7.24.76-2-.58-3.94.16-5.87.55-2.92.6-5.81,1.3-8.74,1.88a3.14,3.14,0,0,1-1.44-.35A24.54,24.54,0,0,0,84,157.64a3.13,3.13,0,0,0-2.1.22c-.39.23-.41,1.1-.66,1.91-.14-.24-.27-.52-.44-.76a3.31,3.31,0,0,0-.74-.87,6.41,6.41,0,0,0-1.5-.7c-.22-.07-.52.1-1.08.24-.43-1.61-.94-3.26-1.31-4.94-.29-1.29-.35-2.63-.62-3.92a3.84,3.84,0,0,0-.75-1.22c-.26-.37-.55-.72-.94-1.22.44-.11.79-.09,1-.25.41-.36.94-.78,1-1.24a1.5,1.5,0,0,0-.7-1.25,2.77,2.77,0,0,1-1.68-2.38,6.62,6.62,0,0,0-4.23-5.45c-2.44-.94-4.89-1.83-7.3-2.84a36.44,36.44,0,0,1-6.53-3.07c-1.13-.76-2.72-1.28-3.25-2.84a.61.61,0,0,0-.31-.34c-3-1-2.73-4.92-5.86-5.77l.33-.27c.27-.06.67,0,.77-.19s-.06-.53-.13-.8c0-.07-.15-.11-.16-.17-.23-1.89-.46-3.78-.65-5.68a1.48,1.48,0,0,1,.75-.2,8.29,8.29,0,0,0,1.64.14c-1.11-.69-1.93-1.49-1.83-2.85s.2-2.55.28-3.83c0-.6,0-1.2,0-2.06l2.09,1.29c.23-1.2-2-1.24-.92-2.75l2.9,1.62a5.25,5.25,0,0,0,.13-1.23c0-.09-.56-.13-.77-.17A18.26,18.26,0,0,1,49,101.52a2,2,0,0,1,0-1.45c.54-1.19,1.11-2.21.67-3.72-.35-1.2.11-2.63.23-4.14l4,3.53c.44-1.23-.45-1.7-.88-2.29a5,5,0,0,0-1.56-1.34c-.86-.49-.8-1.1-.54-2.11l3.74,3.41c.42-.48.81-.88,1.15-1.32.1-.13.16-.42.08-.52-.76-1.07-.9-2.61-2.42-3.09a4.48,4.48,0,0,1-1-.66c2.78-1.45,3.7-3.8,3.78-6.6.48,0,.6-.35.62-2l3.28,4a1.89,1.89,0,0,0-.62-2.81,2.23,2.23,0,0,1-1-2.75c1,0,1.44.36,1.47,1.49,0,.6.79,1.18,1.23,1.76a.47.47,0,0,0,.32.1,6.23,6.23,0,0,0,2-2.08c.07-.51.17-1,.25-1.53-.71-.07-1-.88-.61-2.36-1.11-.79-1.2-1.33-.06-2.09a5,5,0,0,0,2.17-3.3,6,6,0,0,1,.93-1.48l1.32,2.37,1.25,2.2c.57-.39,1.21-.6,1.51-1,.71-1.08,2-1,2.88-1.72a2,2,0,0,0,.75-1.37c-.2-1.41-.61-2.78-1-4.34,2.46-1.07,5.19-2,5.69-5.14l1.07,1.53a1.31,1.31,0,0,0,.46,1.92c.09.06.12.2.2.29.33.36.68.72,1,1.08l.54-1.26,1.38.71c-.16.5-.55,1-.45,1.49.43,1.89,1,3.76,1.56,5.61.13.38.67.62,1,.92a4.34,4.34,0,0,0,.34-1.4c-.15-1.2-.43-2.39-.66-3.58l.35-.08c.45,1.5.89,3,1.34,4.51.3,1,.67,2,.89,3q.57,2.79,1,5.61c.18,1.21.22,2.44.32,3.67v0a9.06,9.06,0,0,1-.52-1.09c-.16-.44-.21-.9-.35-1.35a22.83,22.83,0,0,1-.77-2.52c-.23-1.29-.29-2.6-.5-3.89a5.26,5.26,0,0,0-.56-1.29c-.69.4-1,.7-.54,1.45a5.45,5.45,0,0,1,.41,1.85c.09.53.12,1.07.2,1.61.47,3.09,1.87,6,1.74,9.23a3.26,3.26,0,0,0,.18.91Q89.64,93.61,91,99c.46,1.85.85,3.72,1.32,5.57.38,1.46.81,2.9,1.27,4.34a5.85,5.85,0,0,0,.66,1.13l.28-.11-1-5.26a9.58,9.58,0,0,1,.89,2.57c.18.79.31,1.61.57,2.39.19.58.78.9,1.08.24s.89-1.5.25-2.38c-.28-.39-.87-.7-.19-1.38.26-.25-.07-1.1-.13-1.67h.17l.45,1.43.39-.07-.31-4.2-.47,0-.25,2.21c-.48-1.76-1-3.26,0-5l-1.37,1c-.76-1.68.56-2,1.25-2.38l-2.27-3.17v-4l.18,0,.45,1.33.36.08c.18-.43.52-.87.5-1.29s-.37-.91-1.09-.67c-.18.06-.7-.38-.8-.68-.4-1.17-.69-2.38-1-3.36L91,85.09c.34-.68-.37-1.71.71-2.18.12-.06.18-.42.15-.62-.2-1.66-.43-3.31-.67-5-.09-.61-.23-1.24-1.26-.71L89.48,74l.48-.1.47,1.57c-.08-.81.62-2-1-2.11-.13,0-.27-.43-.33-.68-.33-1.39-.67-2.78-1-4.18a11.71,11.71,0,0,1-.09-1.57l.39,0,.35,1.1c.3-.2.43-.43.4-.64-.18-1.19-.36-2.39-.61-3.56-.3-1.35-1.46-1.71-2.7-1.1S85,64.21,85,65.16a6.22,6.22,0,0,1-.69-1.36C84.12,63.13,83.74,63.22,83.28,63.49ZM66.65,84.27c-.67-1.21-1.32-2.42-2-3.61-.12-.19-.5-.22-.75-.32,0,.28-.16.59-.07.83a15.43,15.43,0,0,0,.73,1.54A8.27,8.27,0,0,1,63.8,82c-.33-.44-.59-1-1.25-.44a1,1,0,0,0,0,1.61,11,11,0,0,1,1,1.27l2,2.69.42,0c0-.34.06-.69.13-1a8.21,8.21,0,0,1,.27-.84Zm4,27.75a2.11,2.11,0,0,0,0-.35c-.06-1.11.22-2.4-1.48-2.6-.23,0-.41-.43-.62-.64l-.91-.89-.33.28c.88,1.3,1.76,2.6,2.67,3.87.12.17.44.21.67.31,1.05,1.46,2.07,3,3.16,4.38a7.57,7.57,0,0,0,1.37,1.13l.33-.21a7,7,0,0,0-.58-1.46c-.7-1-1.59-1.87-2.2-2.91S71.62,111.61,70.61,112Zm14.87,13,.56,1.61.22,0,.13-.8a37.28,37.28,0,0,1,2.22,4.24c.68,1.44,1.4,2.85,2.19,4.45l-.87-.27.95,2h1.19a3.58,3.58,0,0,0-.53-3.72,6.94,6.94,0,0,1-1.27-2.67,13.14,13.14,0,0,0-2.59-5.63c-.79-.94-1.93-1.67-1.81-3.18,0-.37-.34-.76-.53-1.17l-1,.27-.29-1.34-.42.07a6.18,6.18,0,0,0,.18,1.23c.37.94.82,1.85,1.24,2.78l-.9-.29-.28.31ZM74.05,98.73c.14-1.44-.9-2.26-1.49-3.32l-.29.11.34,1.68L70.7,95.41l-.33.3c3.33,6.52,7,12.85,10.88,19.27.47-.75-.56-1.79.81-1.79a47.77,47.77,0,0,0-2-5.1c-.65-1.26-1.65-2.32-1.69-3.86,0-.27-.31-.55-.48-.82a9.62,9.62,0,0,1-1.05-1.79A4.41,4.41,0,0,0,74.05,98.73ZM77.2,81.28,76.31,79l-.53.18C77,84.14,79,88.86,80.65,93.68c-1.23.25-.86-.63-1-1.08-.93-2.39-1.86-4.78-2.77-7.18-.49-1.29-1-2.59-1.44-3.88-.26-.72-.62-.67-1.25-.09,1.47,3.71,2.93,7.44,4.41,11.15,1.56,3.92,3.13,7.82,4.71,11.73.93,2.29,1.87,4.57,2.85,6.84.14.32.51.55.77.82l.22-.22-1.07-3.06.31-.13c.33.64.65,1.29,1,1.94.74,1.54,1.26,1.82,3,1.53a12.07,12.07,0,0,0-.72-1.39c-.24-.33-.76-.53-.89-.88-.84-2.38-1.6-4.79-2.43-7.17a8.48,8.48,0,0,0-.71-1.39l-1.36.58h0l-1-4.16A8.5,8.5,0,0,1,84,98.86a11.17,11.17,0,0,0,.74,1l.43-.3c-.7-1.75-1.42-3.49-2.09-5.25a30.17,30.17,0,0,0-1.73-4.63,9.14,9.14,0,0,1-1.31-4c-.05-.66-.42-1.3-.51-2a10.69,10.69,0,0,0-2.65-5.58c.13,1.21.23,2.2.33,3.18Zm18.63,51.07A41.17,41.17,0,0,1,94.46,127a11.56,11.56,0,0,0-1.49-5c-.87-1.4-.86-3.35-2.18-4.75-.35.49-.55,1.11-.94,1.26-1.12.43-.58,1.1-.36,1.71.93,2.55,1.9,5.1,2.84,7.65.89,2.39,1.76,4.78,2.64,7.16l.21-.06-.66-2.63ZM72.37,71.07c-.05.38-.16.6-.09.75.82,1.92,1.62,3.86,2.55,5.73.34.69,1.45.46,1.76-.33A4.18,4.18,0,0,0,76.76,76c.16-2.13-1.4-3.58-2-5.41l-1.4.08-.13.75ZM80.72,147l-.52,1.48c-.25-.81-.25-1.8-.74-2.18s-1.52-.28-2.31-.38l-.28.48,1.35,2-1.17,1.74c.74,0,1.24.23,1.53.06,1.13-.66,2.31,0,3.48-.24A2.56,2.56,0,0,0,84,148.67ZM69.25,96.62c-.1.74,5.29,10.65,7,12.52.1.12.38.08.89.17-.62-1.15-1.09-2.06-1.59-3-.84-1.5-1.63-3-2.56-4.45C71.76,100.08,70.46,98.35,69.25,96.62ZM74.6,78.93a5.65,5.65,0,0,0-.16-.62c-.8-1.76-1.57-3.54-2.43-5.27-.19-.38-.73-.58-1.11-.87-.1.52-.43,1.13-.27,1.54.65,1.57,1.44,3.09,2.22,4.61a1.8,1.8,0,0,0,.8.79C73.9,79.21,74.27,79,74.6,78.93Zm-7.21,9-.48,0a5.06,5.06,0,0,0,.19,1.72c.78,1.55,1.67,3,2.57,4.53.19.31.64.47,1,.7,0-.45.28-1,.09-1.34-1.1-1.79-1.51-4-3.35-5.33C67.33,88.21,67.38,88,67.39,87.93ZM64.5,89.66l.44-.21a12.16,12.16,0,0,0-.82-2.08c-.63-1-1.37-2-2.09-3a2.31,2.31,0,0,0-.75-.6c-.07,0-.42.2-.41.29a2.28,2.28,0,0,0,.27.93,17.64,17.64,0,0,0,1.1,1.7C63,87.69,63.75,88.67,64.5,89.66ZM71,115.41l.39-.26c0-1-.9-1.5-1.41-2.21s-1.16-1.57-1.78-2.32c-1.42-1.7-1.43-1.69-2.31-1.59ZM81.93,64.6l-.38.1c-.31,2.15.87,4,1.41,6.09a1.66,1.66,0,0,0,.44-1.28c-.35-1.54-.78-3.05-1.2-4.57C82.17,64.81,82,64.71,81.93,64.6Zm-13,23c-.26,1.51,2,5.46,3.25,5.68Zm2.66-8.28.4-.17c.13-1-1.29-4-2.62-4.88Zm18,37.91c1-.28,1-.9.83-1.68s-.58-1.35-1.68-1Zm.76-18.29-.57.13,1.64,5.69.35-.08ZM87.7,90.43l.68-.21-1.22-3.87-.4.12Zm1.2,28c.54-1.4-.28-3.72-1.21-3.71Zm-8.8-40-1-.93c-.22.26-.68.61-.62.77a5.56,5.56,0,0,0,.81,1.23Zm-12,41.37c0-1.55-.78-2.3-2.22-2.19ZM88.7,94.7l.38-.09c.32-1.27-.63-2.26-.78-3.43l-.43.1ZM80.88,101l.38-.15-1.76-4.3-.39.16Zm-13-8.39-2-2C65.82,92.14,66.46,92.82,67.85,92.63Zm27,50.42c.61-1.39.17-2.22-1.24-2.61Zm-31.57-36.9.45-.38c-.24-1.16-1.53-1.3-2.06-2.18l-.24.22ZM96.37,66.78,96,63A3.69,3.69,0,0,0,96.37,66.78ZM84.53,151c.87-.09,1.44-.13,2-.23.1,0,.25-.32.24-.34-.37-.33-.75-.64-1.07-.9ZM59.44,110.53l.21-.3c-.49-.31-1-.64-1.48-.9-.05,0-.31.37-.54.66ZM62,101.3l.44-.24-1.46-2-.42.29ZM94.56,85.55l-1.13-1.09-.94,1.09ZM79.37,113.18l-.4.22,1.13,2,.35-.19ZM56.57,95.61,57,95.4,56.38,94l-.57.27Zm40-23.28.3,0-.27-3-.44,0Z"/><path class="cls-2" d="M128.53,127.72c-.63,1.14-1.28,2.28-1.9,3.42-.34.62-1.31,1.17-.58,1.92.19.19,1.29-.36,1.85-.74a6.89,6.89,0,0,0,1.17-1.51l.27,0,1.8-3.38.76,1.86c-.61.93-1.27,1.93-1.92,2.94l.44.28a8,8,0,0,1,1-1.25c.76-.68,1.64-1.23,2.37-1.93a8.18,8.18,0,0,0,1-1.59c.06-.1.07-.25.15-.29a13.22,13.22,0,0,1,2.73-1.22c-.46.76-1,1.51-1.36,2.31a2.78,2.78,0,0,0-.17,1.29c0,.12.43.27.67.3a.81.81,0,0,1,.54,1.4c-1,1.1-1.13,2.75-2.76,3.52-1.13.54-1.85,1.95-2.76,3l-.82-.65-2,1.36c-.27.14-.34.54-.58.78-.68.67-1.45,1.27-2.14,1.93a3.46,3.46,0,0,0-.52.85,3,3,0,0,0,1-.26c.67-.46,1.29-1,1.93-1.51l3.2-2.51c1.56-.87,3.11-1.75,4.69-2.59a11.16,11.16,0,0,1,3.07-1.16,3.43,3.43,0,0,1-.52.67,5,5,0,0,0-1.91,3.48c-.07.45-.34,1.1-.69,1.24-1,.39-1,1.19-1,2,0,2.12,0,4.24,0,6.37a2.74,2.74,0,0,1-.15.9,3.9,3.9,0,0,1-.47.7l.58.34s0,.06.06.1c.34.62-.79,4.71-1.44,5-.37.18-.91.39-1.22.24-1.15-.55-2.09-.06-3,.48-.53-.75-1-1.44-2.06-.81-.16.1-.55-.19-.83-.29.07-.38.15-.75.23-1.13l.83.2-1.08-1.23c1.23-.39,1.06-1.35.77-2.15-.14-.4-.8-.6-1.43-1l1.35-2.1a11.39,11.39,0,0,0,1.87.83c.92.22,2.05.67,2.77.33a3.41,3.41,0,0,0,1.53-2.31,45.88,45.88,0,0,0,.35-5.63,3,3,0,0,0-.23-.86c-.37,0-.78.13-1,0-.85-.61-1.26-.21-1.64.53a7.17,7.17,0,0,1-.91,1.48c-.65.73-2,.77-2.1,2,0,0-.06,0-.15,0l-.23-1c-.69,1-1.18,1.79-1.78,2.5-1.9,2.24-2.69,4.68-1.67,7.59.57,1.63.71,1.81,2.52,1.9-.27,1.17-1.11,1.36-2.12,1.16-.72-.15-1.34-.34-1.47.78-.07.63-1,.52-1.84-.27-1.26,1.2-2.7.53-4.08.27-2.37-.44-4.71-1.06-7.16-.77h0a3.47,3.47,0,0,1,2.84-1.36.68.68,0,0,0,.43-.11c.93-.83,1.84-1.67,2.89-2.63l.46,1.63c.1-.11.2-.18.19-.21-.58-1.47.16-2.42,1.33-3.12s1.24-2.05,1.71-3.16c.38-.87.88-1.7,1.32-2.54a4,4,0,0,0,.41-.8c.27-1.18.51-2.37.78-3.68.6.35,1,.54,1.28.76s.5.37.93.69c.14-.54.29-1.15.49-1.74.11-.32.31-.61.45-.92s.33-.79.5-1.18l-.43-.31-1,1.55c-.36-.26-.59-.56-.71-.52-.78.28-1.07-.22-1.09-.77a18.58,18.58,0,0,1,.22-2.46h.55l.14,1.62a3.85,3.85,0,0,0,2.05-2.72l-1.09-.48c.43-.82.87-1.6,1.23-2.42s.74-1.87,1.07-2.83.76-.86,1.41-.42Z"/><path class="cls-2" d="M136.29,79.91a1.38,1.38,0,0,1,.26-.4c.62-.56,1.39-1,1.48-2,0-.32.08-1.12.95-1,.16,0,.44-.79.62-1.23a5.15,5.15,0,0,1,.77-1.47l-.13-2,2.24-.86c-.46,1.09-.83,2-1.25,3s-1,2-1.5,3-.32,1.57.84,2.1l-.11-1.17c2.27-.5,1.91-2.69,2.56-4.25l-.73,1-.34-.11a8.6,8.6,0,0,1,.56-1.91A12.1,12.1,0,0,1,144,70.77l3.75,3,.5-.64c.59,1.65,1,3.19,2.46,4.19.72.5-.07.81-.44,1.08.38-.74,0-1.4-.65-1.38-1,0-1.29,1-1.47,1.88l2.11-.5c-.82,1.32-1.59,2.67-2.51,3.93-.28.39-1,.48-1.45.73-1.41.73-1.43,1.17,0,2.1l-1.92,2.56c-1.28-.47-2.09-.11-2.85,1.46s-1.29,3.08-2,4.6a14.61,14.61,0,0,1-3.11,4.69,13.51,13.51,0,0,0-2.06,3.22c-.64,1.14-1.22,2.31-1.81,3.48-1,1.89-1.87,3.81-2.86,5.69a11.77,11.77,0,0,0-1.52,4.25c-.07.65-.9,1.18-1.23,1.84s-.48,1.54-.8,2.28a38,38,0,0,1-2.56,5c.51-1.89-.68-4.2,1.38-5.65-.44-1.11-.63-2,.58-3a2.28,2.28,0,0,0,1.11-2.44c-.24-.9.43-1.12,1.19-.86a3.09,3.09,0,0,0-.35-3.68l.27-.2,1.63.44-1.21-1.39.19-.24,1.51.86.2-.17-.36-1.07.84.19v-1.48l-.22-.23-.33,1-.33-.27,1.3-3.8-.67-.62,2-3.69c.31-.57.68-.47,1.16-.18a.9.9,0,0,0,.81,0c.18-.13.18-.52.28-.86.78.48,1-.18.85-.79a12,12,0,0,0-1-2c-.15-.31-.38-.7-.3-1A38.79,38.79,0,0,1,135.75,89c.62-1.33.7-1.33-.06-2.37l1.72-.43,1-2.78c-.77-.63-1.55-1.23-2.27-1.9-.1-.1.15-.55.19-.84a5.09,5.09,0,0,0,0-.78ZM144,77.07c0-.45,0-.85-.09-1.26s0-.6-.07-.91l-.35,0-.58,1.42Z"/><path class="cls-2" d="M117.07,74.43l.46-1c.07-.17.24-.42.18-.51-.77-1.16,0-2.28.1-3.4.28-2.19.6-4.37.93-6.55.06-.46.21-.9.3-1.36a2.53,2.53,0,0,0-.84-2.83,31.3,31.3,0,0,1,4.34.94,3.13,3.13,0,0,0,3.07-.41,11.15,11.15,0,0,1,0,2c-.87,4.26-1.75,8.53-2.7,12.78-.32,1.46-.94,2.87-1.23,4.34-.42,2.17-.67,4.37-1,6.55-.07.46-.12.93-.17,1.39.9.25.9,1.57,0,2.66.52.73,1.91-.74,2,.78,0,.36-.42.76-.78,1.36v-1.5c-.25.16-.59.27-.74.5-.66,1,.07,1.35.89,1.74l-1.2-.13L120,93.7c-.77-.52-1.07-.19-1.18.45-.36,2.09-.69,4.19-1,6.28-.3,1.71-.52,3.45-1,5.12a6.56,6.56,0,0,0,.1,4.11c.35,1,.14,1.2-1.13,1-.31,1.44-.66,2.89-.93,4.36-.24,1.29-.4,2.6-.57,3.91-.08.64-.07,1.3-.17,1.94q-1.32,8.28-2.67,16.56a31.11,31.11,0,0,0-.45,3.28c0-2.15-.08-4.29,0-6.43s.38-4,.62-6c.17-1.34.46-2.67.61-4,.1-.87,0-1.76.07-2.63.17-1.44.5-2.86.66-4.3a25.66,25.66,0,0,1,.24-3.54c.38-1.42.33-2.88.93-4.29.51-1.22.37-2.71.55-4.32.45-.26.41-1,.49-1.82a38.65,38.65,0,0,1,1-4.57c.22-1.06,1-2.12,0-3.21a1,1,0,0,1,0-.93c1.23-.74.42-1.69.34-2.56,0-.1,0-.2,0-.29,1.08.06.56-.75.75-1.23a2,2,0,0,0,0-1.62,1.56,1.56,0,0,1,1.17-2.18c.42-.1.87-1.14.86-1.74,0-2-.25-4-.4-5.92,0-.09-.08-.24-.14-.26s-.37,0-.42,0a6.49,6.49,0,0,0-.37,1l-.46-1.78,1.85-.08v-.32l-1.67-1.57,1.2-1.23Z"/><path class="cls-2" d="M136.52,77.29a14.22,14.22,0,0,0-.51,1.77c0,.26.18.56.28.85v0L134,82.48l-.4-1.2c-.33.7-.57,1.19-.79,1.7a39.72,39.72,0,0,1-2.06,3.73,15.74,15.74,0,0,0-1.19,4.19c-.06.25.13.58,0,.8-.43,1-1,2-1.4,3.06a13.28,13.28,0,0,0-.66,2c-.58,2.2-1,4.44-1.7,6.62a30,30,0,0,1-1.58,3.35,27.92,27.92,0,0,0-1.59,3.75c-1.13,4-2.09,8-3.24,12-.57,2-1.4,3.92-2.22,6.19-.13-1.64-.23-3-.33-4.32,1.3-.39,1.33-1.76,1.88-2.75a7,7,0,0,0,.35-1.94c.2-1,.43-2,.63-2.94.32-1.47.58-3,1-4.41a9,9,0,0,1,.89-1.5c.19-.36.87-.8-.06-1.11h0c1.07-.59,1.69-2.42,1.54-3.84s-.26-3,.8-4.34c.52-.67.49-1.76.72-2.66s.86-1.39.08-2.33c-.3-.37.2-1.42.34-2.16.07-.32.16-.64.24-1l.73.2.17-.19-.79-1.06,1.6-.61-.35-2.26.28,0,.21.88h.31c0-.28.18-.62.07-.82a2,2,0,0,0-2.37-1l0-.33h1.65l-.19-.2A10,10,0,0,1,128,86.82c.75-.39,1.14-2.28.52-2.85s-.51-1,0-1.77a1.09,1.09,0,0,1-.75-1.6c.82-2.51,1.53-5.06,2.27-7.6.66-2.23,1.28-4.47,1.94-6.7.24-.82.52-1.62.78-2.43,2.21.19,3.65,2.38,5.85,2.42l.77,1.44c-1,.35-1,1.1-.87,2.08l1.36-.42c-.46,1.19-.88,2.39-1.38,3.56-.62,1.47-1.3,2.91-2,4.36a5.68,5.68,0,0,0,.07-1.23c0-.26-.3-.5-.47-.74-.2.26-.53.49-.58.77a5.3,5.3,0,0,0,.1,1.31Z"/><path class="cls-2" d="M104.9,72.34l-.2-1.71.13-.12.51,1,.49-1.64-1.23-.24c0-3.57,0-7.17,0-10.78,0-.14-.34-.29-.59-.49,1.16-.56,2.13-1.35,3.58-1.07a2.09,2.09,0,0,0,1.81-.8c.41-.83-.15-1.53-1.08-1.85a12.19,12.19,0,0,1-2.25-1c1.91-.51,4.1-.1,5.51-2l.21.19c-.07,1.21-.19,2.42-.21,3.63,0,.8.1,1.61.16,2.42a2.29,2.29,0,0,1,0,.64,21.36,21.36,0,0,0-.69,3.74,122.3,122.3,0,0,1-.91,13.92c-.13,1.11-.53,2.35-.21,3.34.72,2.15-.54,4-.47,6s.05,4,.11,5.94a1.45,1.45,0,0,0,.39.78,4.77,4.77,0,0,0,.65.62l-1.09.2a28.92,28.92,0,0,1-.31,4.67c-.64,2.86-.46,5.74-.54,8.61-.17,6.09-.32,12.18-.67,18.26-.18,3.1-.23,6.21-.32,9.32-.08,2.53-.13,5.07-.2,7.61h-.37c-.08-1.1-.22-2.21-.25-3.31q-.14-6.25-.2-12.5c0-1.7,0-3.4,0-5.1,0-.7-.06-1.41,0-2.12.1-2.8.24-5.61.35-8.41.06-1.68.09-3.36.13-5,0-.19,0-.42.05-.57.93-1.65.46-3.31.14-5a6.89,6.89,0,0,1,0-2.22c.37-2.56,1.09-5,.42-7.72-.45-1.83.08-3.92.27-5.88.11-1.15.42-2.22-.19-3.39a4.55,4.55,0,0,1,0-2.34,5.16,5.16,0,0,0-.71-3.3c-.34-.56-.48-1.24-.86-1.76-.23-.32-.73-.45-1.11-.66Z"/><path class="cls-2" d="M149,107l2.26-2.08a1.54,1.54,0,0,0,.36-2.07,1.28,1.28,0,0,1,.49-1.81c.46-.3,1.34-.43.61-1.32,0,0,.43-.58.55-.55,1.08.36,1.54-.5,2.16-1,1.17-1,2.32-2,3.48-3l.33.24-3,3.64c.4,0,.67.12.75,0,1.16-1.28,3.13-1.7,3.74-3.25l3.68-.35c.5,1.6,1.61,3.4.42,5.24a11.46,11.46,0,0,1-2.74,2.73c-1.29,1-2.75,1.73-4.08,2.64a10.13,10.13,0,0,0-1.41,1.37c-.1.11-.13.32-.25.38a21.94,21.94,0,0,0-3.34,1.73,27.44,27.44,0,0,0-4.75,4.3,2.17,2.17,0,0,1-2.39.85c.66-1,1.21-1.85,1.74-2.7a5.15,5.15,0,0,0,.58-1c.25-.64.3-1.41,1.33-1.25a2.6,2.6,0,0,0,.35-1.35C149.84,107.94,149.42,107.59,149,107Z"/><path class="cls-2" d="M131.51,116.93a7.78,7.78,0,0,1,1.38-5.11c1.29-2,2.34-4.18,3.52-6.27.85-1.53,1.69-3.07,2.65-4.53.29-.43,1-.59,1.49-.88l.18.28,1.18-2.61c0-.07,0-.2.09-.21,1.63-.4,1.6-2.31,2.8-3.12.25-.17.24-.71.42-1.3l-1.73.85c.61-2.45,3.37-3.89,2.32-6.73l.62.86c2.29-1.26,2.82-3.84,4.23-5.76.07-.11-.1-.4-.16-.6l-.3,0,.55-1.47,1,.64.22-2.09a14.61,14.61,0,0,1,3.1.72,2,2,0,0,1,.82,1.71,13.64,13.64,0,0,1-.8,2.79,16.13,16.13,0,0,0-2.51,2.2,29.31,29.31,0,0,0-3.85,5.43,25.69,25.69,0,0,1-1.85,2.51,15.28,15.28,0,0,0-.92,2.15,13.19,13.19,0,0,1-1,2,12.94,12.94,0,0,1-1.35,1.43l-3.8,4.1-.64-1.46c-1,.51-1.37,1.27-.75,1.9a1.36,1.36,0,0,1,.1,1.9c-1.45,2.25-2.94,4.47-4.42,6.7C133.24,114.35,132.36,115.67,131.51,116.93Z"/><path class="cls-2" d="M147.43,102.86c-.61-1-1.15-1.83-1.68-2.69a42.16,42.16,0,0,1,2.53-4.43A36,36,0,0,1,151,93.13c2-2.2,3.86-4.47,5.88-6.82,2.16,1.3,1.4,3.72,2.13,5.34a16.28,16.28,0,0,0-1.69,1.24c-1.11,1.09-2.14,2.26-3.24,3.36-.92.91-1.89,1.78-2.83,2.67-.11.1-.29.23-.29.36C150.93,101.47,148.94,101.76,147.43,102.86Z"/><path class="cls-2" d="M150.56,119.53l4-2c2.67-1.35,5.31-2.75,8-4,1.2-.58,1.42-.35,1.24,1a20.37,20.37,0,0,1-.34,2,1.08,1.08,0,0,1-.51.72c-2.57,1-5.16,2-7.76,2.92-1.75.63-1.76.6-3.12-.33-1.28.7-1.36,1.09-.26,2.17-.58.3-1.1.56-1.61.85a2.88,2.88,0,0,0-.59.45c-.23.22-.44.46-.66.69-.16-.29-.35-.56-.49-.86a3.61,3.61,0,0,1-.19-.67l-.62.81c.46-1.65,1.86-2.57,2.89-3.79Z"/><path class="cls-2" d="M158.74,107.29l4.68-3.15.25.25-.73,2.79a8.36,8.36,0,0,1,.67,1.21c.06.14-.08.36-.11.55-.27,1.71-.52,2.37-1.49,3s-2.15,1.47-3.56,1.21a1.54,1.54,0,0,0-.45.05l-.4-3a5,5,0,0,0-1.79,4.13,1.21,1.21,0,0,1-.48.9c-.21.12-.63-.13-1-.21l.07.74c-.16,0-.28-.06-.28-.09,0-.44-.26-1-.05-1.3.63-.73.48-1.23-.52-1.88l6.21-4.73Z"/><path class="cls-2" d="M135.78,117.63a3.88,3.88,0,0,1,1.51-5.18c.15-.11.4-.24.4-.37.08-1.77,1.35-2.81,2.37-4,.37-.44.72-.9,1.07-1.36s.91-1.06,1.64-.15l.29-.13.26-3.43c.57.67.91,1.44,1.38,1.52s1-.59,1.49-.93l.31.29c-.89,1.35-1.69,2.78-2.69,4-1.87,2.39-3.85,4.68-5.79,7Z"/><path class="cls-2" d="M161.12,119.4l-1.85,1.7c-.17.16-.44.29-.49.48-.43,1.52-1.89,1.55-3,2-.43.17-1.07-.19-1.61-.3.26-.55.38-1.37.81-1.6,1.89-1,3.88-1.85,5.84-2.75Z"/><path class="cls-2" d="M99.26,78.77q-.58-6.13-1.16-12.27l.61-.06q.58,6.14,1.18,12.26Z"/><path class="cls-2" d="M137.78,119.83c1.44,1.5,1.41,2.47-.16,3.09a1.8,1.8,0,0,1-1.4-.25c-.16-.11,0-.86.15-1.22a7.63,7.63,0,0,1,1-1.38A1.26,1.26,0,0,1,137.78,119.83Z"/><path class="cls-2" d="M127,55.33c-.62,2.63-.88,3-2,3l.12-1c-.14,0-.37,0-.48,0-.38-.29-.72-.64-1.08-1a6,6,0,0,1,1-.43C125.27,55.64,126.07,55.5,127,55.33Z"/><path class="cls-2" d="M130.65,122.58l.86.23c-.11-1.22-.21-2.41,1-3.15.62,1.25-.11,3.63-1.26,4.2a.85.85,0,0,1-.6,0A9.89,9.89,0,0,1,130.65,122.58Z"/><path class="cls-2" d="M135.11,123.08c-.11,1.07-.16,2-.34,3-.07.36-.52.93-.72.9a1.72,1.72,0,0,1-1.18-.74c-.15-.29.19-.83.38-1.45l1,1.1C134.4,124.8,133.92,123.63,135.11,123.08Z"/><path class="cls-2" d="M150.58,119.51H148.4c.82-.71,2.1-1,1.49-2.11l2.05-.11c-.39.64-.88,1.44-1.38,2.24Z"/><path class="cls-2" d="M128.55,127.74a2.59,2.59,0,0,1,1.07-3.1,3.86,3.86,0,0,1,.89-.39c.07,1.74-1.28,2.42-2,3.47Z"/><path class="cls-2" d="M140.32,127.44l1.55-1.25c.14.18.45.44.4.53-.29.62-.66,1.21-1,1.81Z"/><path class="cls-2" d="M130.57,116.28c1.05,1.57,0,2.49-.75,3.48l-.36-.1Z"/><path class="cls-2" d="M101.33,77.09l-.66-.44.32-3.18h.33l.38,3.47Z"/><path class="cls-2" d="M127,124.76l-.92,3a2.27,2.27,0,0,1,.5-3.1Z"/><path class="cls-2" d="M144.66,119.6c1.51-.92,1.27,1,2.25,1C145.58,121.4,145.58,121.4,144.66,119.6Z"/><path class="cls-2" d="M114.59,69l-.38,3.24-.48-.06.39-3.24Z"/><path class="cls-2" d="M100.49,92.81c.08,1.8.17,3.6.26,5.4l-.23,0-.39-5.42Z"/><path class="cls-2" d="M114.18,139.47c.31-1.46.63-2.92.94-4.38l.33.07c-.31,1.45-.63,2.9-.94,4.35Z"/><path class="cls-2" d="M128.29,66.85c-.16.9-.33,1.8-.5,2.71l-.35-.07c-.5-1,.26-1.81.46-2.71Z"/><path class="cls-2" d="M127,124.26c.26-.8.52-1.6.79-2.4.38,1,.47,1.88-.44,2.51Z"/><path class="cls-2" d="M51.67,88.62l2.06,2-.25.27L51.33,89Z"/><path class="cls-2" d="M149.91,71.79,149,72l-.72-2L150,71.45Z"/><path class="cls-2" d="M121.51,109.67l-.78,1.47-1.4-.76,2.19-.7Z"/><path class="cls-2" d="M145.67,131l2.81-.93.14.37-2.77,1Z"/><path class="cls-2" d="M124.27,81.82,123.83,84A1.32,1.32,0,0,1,124.27,81.82Z"/><path class="cls-2" d="M115.67,58.63l-2.9-.38,0-.22,3,.18Z"/><path class="cls-2" d="M101.18,82.1V80h.26v2.13Z"/><path class="cls-2" d="M84.21,101.8l.27,1.94c-1-.82-2.88-5.56-2.7-7.39.54,1.23,1.07,2.46,1.62,3.69.26.59.55,1.17.83,1.76Z"/><path class="cls-2" d="M89,83.27l.82-.3c-.58,2.61.62,5,.58,7.48-.69-2.36-1.68-4.65-1.39-7.2Z"/><path class="cls-2" d="M64.52,82.7l1,.71,1.17.86c-.12.32-.25.63-.37,1C65.13,84.77,64.89,83.69,64.52,82.7Z"/><path class="cls-2" d="M92.71,101.79l-2.22-9.55c1,.89,2.54,7.22,2.52,9.52Z"/><path class="cls-2" d="M77.18,81.29l1.44,3.09-.51.19c-.31-1.1-.61-2.19-.91-3.29Z"/></g></g></g></svg>