<svg xmlns="http://www.w3.org/2000/svg" viewBox="0 0 211.39 211.39"><defs><style>.cls-1{fill:#194f90;}.cls-2{fill:#fff;fill-rule:evenodd;}</style></defs><g id="Layer_2" data-name="Layer 2"><g id="Layer_1-2" data-name="Layer 1"><circle class="cls-1" cx="105.69" cy="105.69" r="105.69"/><path class="cls-2" d="M118.33,114.05a68.58,68.58,0,0,0,6.83,1.23,77.11,77.11,0,0,0,9.85,2.37c7.73,1.34,17,1.77,24.47-1a21.69,21.69,0,0,0,11.58-9.37,24.82,24.82,0,0,0,2.7-16.13c.26-.85.48-1.71.68-2.59,2.18-10.06-.41-21.4-7.82-28.75a24.52,24.52,0,0,0-13.87-6.93c-7.72-1.14-14.58,2.18-20,7.52,6.1-5,12.25-7.71,19.85-6.6a23.6,23.6,0,0,1,13.77,7.07,27.86,27.86,0,0,1,6.8,12.55,31.58,31.58,0,0,1,.08,14.91l0,.13a38.17,38.17,0,0,0-7-14C161.17,68,153.53,62.37,144.9,63c13.79.62,25.55,14.48,27.8,27.45-3.34,10.79-12,18.12-22.74,21.54a55.4,55.4,0,0,1-24.26,1.61c-.58-.19-1.16-.39-1.73-.6,1.84-.3,3.73-.58,5.71-.81,4.64-.54,7.28,1.26,12.92.55a17.16,17.16,0,0,1-7.66-1.5,19.22,19.22,0,0,0,5.33-.84,16.75,16.75,0,0,1-4.24.17c-2.71-.3-3.22-1.47-5.31-3a9.24,9.24,0,0,0,5.62-1.14,11.47,11.47,0,0,1-7-.14,9.6,9.6,0,0,0,5.77-1.63,12,12,0,0,1-9.33-.34c-.42-.25-.85-.48-1.28-.71a2.88,2.88,0,0,0-4-3.23,2.8,2.8,0,0,0-1,.8l-.77-.32a99.47,99.47,0,0,0-17.56-5.11,48.55,48.55,0,0,0-18.85-2.29,25.8,25.8,0,0,0-5.56,1.14,58.45,58.45,0,0,0-12.08,1,22.33,22.33,0,0,0-6.9,2.26,7.33,7.33,0,0,0-.93.66,17.17,17.17,0,0,0-6.61,2.75,19,19,0,0,0-6,6,16.8,16.8,0,0,0-5.12,6.26,19.41,19.41,0,0,0-2.23,8.24,7.56,7.56,0,0,0,.25,2.06c-1.09,1.92-1.2,5.47-.45,9.29a28.25,28.25,0,0,0,4.44,10.76A9.18,9.18,0,0,0,41.8,145a25.39,25.39,0,0,0,6.42,6.09c2.31,1.57,4.61,2.57,6,2.37a8.28,8.28,0,0,0,.88.9c2.4,2.13,6.65,3.63,11,4.13,3.77.43,7.64.09,10.45-1.27a21,21,0,0,0,2.46.53,16.09,16.09,0,0,0,4.9,0,14,14,0,0,0,4.61-1.58,6.82,6.82,0,0,0,2.8-2.78,2.55,2.55,0,0,0,.27-.84c1.92-1.2,3.67-2.77,4.27-4.61a2.88,2.88,0,0,0,.14-1.29,1.6,1.6,0,0,0-.11-.39,8.46,8.46,0,0,0,2.15-3.7,2.2,2.2,0,0,0-.65-2.45,8.09,8.09,0,0,0,.92-3.19A3.59,3.59,0,0,0,98,135.4a1.84,1.84,0,0,0-2.37-1,5.06,5.06,0,0,0-1.34.67,15.56,15.56,0,0,0-1.58,1.32,94.31,94.31,0,0,1-8.9,7.21,49.54,49.54,0,0,1-5.22,3.21,6.34,6.34,0,0,0-2.13-1.12A33.06,33.06,0,0,1,72,143.87a31.54,31.54,0,0,1-4-2.33,9.21,9.21,0,0,0-1-1.49,3.28,3.28,0,0,0-.44-2.35,5.52,5.52,0,0,1,1.47.13,4.06,4.06,0,0,0-2.57-.92l-.46-.17a3.79,3.79,0,0,0-2.68,0,4.19,4.19,0,0,1-.42-.24l.09,0c.75-.32,2.94-1.19,3.7-1.05l.13,0a16.24,16.24,0,0,1,3.61,3.42c1.46,1.79,2.06,2.51,4,2.91-1.79-.95-2.07-1.8-3.38-3.41-.69-.85-1.29-1.65-2-2.39a8.8,8.8,0,0,1,1.79.9,9.15,9.15,0,0,0-3-2,10.12,10.12,0,0,0-.89-.64,13.61,13.61,0,0,0-4-1.79,6.68,6.68,0,0,0-1.26-.16v-.14c0-.23-.05-.46-.09-.68a8.29,8.29,0,0,1,2.18-.72,6.67,6.67,0,0,1,5.09.62c1.66,1.13,2.48,3.8,3.23,5.65-.28-2.38-.87-4.72-2.81-6.34-1.53-1.28-3.85-1.37-5.72-1a9.24,9.24,0,0,0-2.25.71c0-.11-.07-.22-.11-.33a7.22,7.22,0,0,1,2.38-.72,11.37,11.37,0,0,1,4.38.34,9,9,0,0,1,3.24,1.57,18,18,0,0,1,4.12,4.19c-.31-1.41-3-4.34-3.58-4.8a10,10,0,0,0-3.5-2,12.75,12.75,0,0,0-4.8-.37,8.49,8.49,0,0,0-2.72.82,1.92,1.92,0,0,0-.18-.31A12.68,12.68,0,0,0,61.94,127l.49-.45a11.58,11.58,0,0,1,3.93.37c2.93.75,4.6,3.14,6.23,5.48-.65-2.11-3-5.28-5.27-6.32l.12,0a8.68,8.68,0,0,1,4.14,2,2.37,2.37,0,0,1,.09.36c.19,1.17-.06,1.51.81,2.44a4.24,4.24,0,0,1-.16-2c.2.22.39.46.6.72,1.1,1.37,1.68,1.77,3,1.73-1.16-.4-1.49-.86-2.47-2.09-.48-.6-.88-1.11-1.26-1.55A6.33,6.33,0,0,0,71,125.31a10.89,10.89,0,0,0-2.92-2.52c.53-.23,1.06-.47,1.58-.73.18,0,.36.12.54.19a6.16,6.16,0,0,1,3.42,4c.42,1.14.67,1.44,1.8,1.72a2.68,2.68,0,0,1-1.16-1.92,7,7,0,0,0-3.4-4.64c.65-.36,1.29-.75,1.91-1.15.73,0,1.45-.1,2.18-.18a22,22,0,0,0,2.07,1,27,27,0,0,0,6.41,1.79c4.25.69,7.8,4.23,7.21,8.73,1.82-5-2.25-9.3-7-10.07a29.09,29.09,0,0,1-6.06-1.79l-.07,0c.82-.14,1.64-.3,2.45-.48l.65.06,2.09.56a15.8,15.8,0,0,1,4.56,1.62c2.58,1.62,3.9,5,4.3,7.94a9.57,9.57,0,0,0-3.45-8.61,39.16,39.16,0,0,0,4.62.89l1.88.26a8.06,8.06,0,0,1,.44,2c.41,4.44-2.68,9.93-5.43,13,3.71-2.4,7.2-8.36,6.87-13.18a8,8,0,0,0-.26-1.59l1.28.22c.35.71.67,1.42,1,2.11A29.81,29.81,0,0,1,99.7,128c1.45,5.31,1.56,7.29-1.62,11.65,4.41-3.55,4.5-6.59,3-12a29.94,29.94,0,0,0-1.23-3.56c-.17-.41-.35-.83-.55-1.25a8.23,8.23,0,0,1,2.48,1c.6.42.4.88,0,1.26,1.26-.52,1.15-1.28.27-2a9.61,9.61,0,0,0-3.4-1.59c-.31-.63-.65-1.27-1-1.9,1,.1,2.08.24,3.09.43,2.94.58,4.31,1.13,5.54,3.49-.71-3.35-3.07-4.1-6.52-4.85-.52-.11-1-.21-1.58-.3,1.77-.06,3.55-.11,5.3-.1a30.07,30.07,0,0,1,3,3.24c3.23,4,6.42,9.26,5.28,14.56a10.31,10.31,0,0,0-.16-8.83,33.73,33.73,0,0,0-4-6.64c-.62-.77-1.29-1.54-2-2.28,6.06.26,11.48,1.62,14.22,6.56a10,10,0,0,0-1.52-3c-2.08-2.71-5.82-4.14-9.05-4.72a29.18,29.18,0,0,0-4.87-.4c3.89-.67,7.28-1.35,10.49-2l3.47-.69ZM96.77,121l-1-.21a11.4,11.4,0,0,0-.68-1.41l.81,0c.31.52.6,1,.88,1.57ZM94,120.43l-1-.15a35.14,35.14,0,0,1-5.7-1.21l1.19-.13c1.55.13,3,.2,4.37.27l.49,0c.25.39.47.79.68,1.19ZM64.63,124c.72-.19,1.43-.42,2.14-.68a11.8,11.8,0,0,1,3.7,2.81A9.36,9.36,0,0,0,67.72,125a10.11,10.11,0,0,0-3.67-.27c.19-.24.39-.49.58-.75Zm-4.24,11.39a7.68,7.68,0,0,0,.34-2,4.55,4.55,0,0,1,1,.13,10.64,10.64,0,0,1,2.63,1,13.77,13.77,0,0,0-2.83.87c-.19.08-.45.19-.74.33a2.73,2.73,0,0,1-.39-.36Zm6.47,4.54a9.55,9.55,0,0,0-2.21-1.86,6.13,6.13,0,0,1,.61-.18c1,.44,1.23,1,1.6,2Zm67.51-24.08a54.93,54.93,0,0,0,16.13-2.39c10.43-3.31,18.78-10.22,22.56-20.2.77,10.06-4,18.64-14,22.31-7.32,2.67-16.09,1.77-23.62.47Z"/></g></g></svg>