<svg xmlns="http://www.w3.org/2000/svg" viewBox="0 0 211.39 211.39"><defs><style>.cls-1{fill:#194f90;}.cls-2{fill:#fff;}.cls-3{fill:#292f26;}</style></defs><g id="Layer_2" data-name="Layer 2"><g id="Layer_1-2" data-name="Layer 1"><circle class="cls-1" cx="105.69" cy="105.69" r="105.69"/><g id="q7cYq6"><path class="cls-2" d="M73.87,61.29l-.31-.13v-.08c.54,0,1.07-.11,1.61-.1a36.05,36.05,0,0,1,3.75.14,38.54,38.54,0,0,1,3.81.81c.88.21,1.75.46,2.61.73,1,.33,2,.69,3,1,.38.14.75.3,1.13.43a.65.65,0,0,0,.31,0,22.76,22.76,0,0,1,2.33-.27,15.13,15.13,0,0,0,3.9-.57,30.46,30.46,0,0,1,4.92-1,19.3,19.3,0,0,1,5.47.34.92.92,0,0,0,.85-.1.66.66,0,0,1,.39-.11c1.27,0,2.55,0,3.83,0a23.06,23.06,0,0,1,2.31.36l1.92.32c1.21.22,2.43.46,3.65.67.44.07.9.06,1.35.11.12,0,.22.11.42.21.61-.21,1.32-.51,2.06-.72,1.34-.37,2.69-.72,4-1q3.66-.82,7.33-1.57c1.41-.28,2.83-.51,4.24-.74.38-.06.76,0,1.14-.06a10.67,10.67,0,0,0,1.38-.2c.65-.15,1,.1,1.1.76a2.9,2.9,0,0,0,.26.67.25.25,0,0,0,.09-.07l.18-.52c.19.1.45.16.55.32.35.54.85.44,1.34.38a2,2,0,0,1,2.09,1,5.39,5.39,0,0,1,.39,2.92,3.21,3.21,0,0,0,.47,2.26,3.93,3.93,0,0,0,.36.39l.22-.4c.28.45.72.28,1.09.25,1.08-.06,2.16-.16,3.24-.27.54-.05,1.07-.15,1.61-.21s1.19-.07,1.79-.11c1.12-.06,2.24-.15,3.36-.15s2.29.09,3.43.16a2.56,2.56,0,0,1,.34.1,9.3,9.3,0,0,0,1.05.09,1.48,1.48,0,0,1,1.34.46c.29.37.65.65.72,1.15,0,.17.27.3.42.47.47-1,1.24-.48,1.9-.38a2.88,2.88,0,0,1,2,1.69,2,2,0,0,1,0,1.73c-.3.81-.74,1.57-1.11,2.36-.45.95-.95,1.88-1.32,2.85a3.38,3.38,0,0,0,0,1.31,1.09,1.09,0,0,0,.6,1,.44.44,0,0,1,.14.13c.29.34.58.68,1.12.46l.06.4a.38.38,0,0,0,.13,0,13,13,0,0,1,1.4.09c.16,0,.29.23.47.38.23-.17.48-.1.81.1a7.34,7.34,0,0,0,1.42.55c.1,0,.25.08.27.15.14.47.47.32.82.35a3.35,3.35,0,0,1,1.18.45,3.58,3.58,0,0,1,1.62,1.33,1.68,1.68,0,0,1,.29.91A9.64,9.64,0,0,1,178.1,87c0,.08-.15.12-.25.2l.16.24c.11.19.09.33-.16.35-.66,0-1,.52-1.27,1-.12.21-.21.46-.48.28a10.24,10.24,0,0,1-1.11,2c-.6.65-1,1.43-1.55,2.09a12.39,12.39,0,0,1-1,.94c-1.28,1.27-2.55,2.54-3.84,3.79-.34.33-.74.59-1.08.92a1.53,1.53,0,0,0-.41.63,3.35,3.35,0,0,0-.38,2.23,4.37,4.37,0,0,0,.69,1.25c.34.43.81.76,1.15,1.19.54.67,1,1.4,1.53,2.1l.5.63a3.11,3.11,0,0,1,.59,1.74,4,4,0,0,1,.1.89,15.7,15.7,0,0,1-.52,2.47c-.3.88-.76,1.7-1.11,2.56s-.75,2-1.17,3a7.57,7.57,0,0,1-.76,1.28c-.92,1.36-1.84,2.71-2.8,4-.77,1.07-1.59,2.09-2.39,3.14a1.53,1.53,0,0,1-.27.3,3.28,3.28,0,0,0-1,1.76c-.31,1-.66,1.91-1,2.86s-.66,2-1,3c-.25.68-.59,1.32-.87,2-.16.36-.28.73-.43,1.1-.47,1.2-.94,2.4-1.43,3.6-.26.66-.57,1.3-.86,1.94-.44,1-.83,2-1.34,2.94a20.52,20.52,0,0,1-1.75,2.83,6.48,6.48,0,0,1-3.22,2.17.67.67,0,0,0-.17.06c-.77.82-1.85.77-2.83.91a25.15,25.15,0,0,1-3.57.29,17.92,17.92,0,0,1-7.57-1.48c-.3-.14-.59-.31-.88-.47l.06-.09h4.49v0l-.82,0,0-.12a29.38,29.38,0,0,0,8-1.84,12.91,12.91,0,0,1,1.94-4.17,24.31,24.31,0,0,0,1.65-3.31c.76-1.58,1.52-3.16,2.2-4.77a28.49,28.49,0,0,0,.94-2.88c.39-1.32.77-2.65,1.13-4a23.22,23.22,0,0,1,2.08-5.61c.47-.84,1.08-1.59,1.6-2.4.37-.59.68-1.21,1-1.8a11.45,11.45,0,0,1,2.24-2.42c1.12-1,2.14-2.18,3.21-3.27.15-.15.33-.28.52-.45a8.46,8.46,0,0,1-2.72-.75,11.55,11.55,0,0,0-2.2-.81c-.12,0-.24-.12-.37-.19.11.64-.45.94-.69,1.41-.4.75-.86,1.47-1.33,2.19-.12.19-.37.3-.52.49-.46.58-.86,1.21-1.36,1.75a4.93,4.93,0,0,1-2.7,2,3.22,3.22,0,0,0-.76.39c-.67.33-1.36.64-2,1a8.07,8.07,0,0,0-2.14,1.85,9.2,9.2,0,0,0-.82,1.27c-.42.64-.86,1.26-1.27,1.91a17.79,17.79,0,0,0-.9,1.6,4.2,4.2,0,0,1-1.24,1.41,9,9,0,0,0-.84.9,4.2,4.2,0,0,1-.63.56c-.49.32-1,.61-1.49.92s-.72.44-1.09.65a5.6,5.6,0,0,1-1.83,1c-.51.07-.79.54-1.29.46,0,0-.11.09-.15.15A1,1,0,0,1,135,133a.42.42,0,0,0-.51.12,11.68,11.68,0,0,1-1.15.79l-.09-.12-.26.51h-.11l-.23-.68c-.3,0-.47-.13-.27-.53l-.11-.07c-.25.11-.5.22-.74.35-.06,0-.13.13-.12.17.2.42-.13.54-.38.73a2.12,2.12,0,0,0-.34.52c-.44-.17-.57-.09-1.12.68q-.59-.37-1.14.27c-.29-.35-.71-.19-1.57.72l-.5-.46c-.51.26-1.46.09-2,1l-.25-.55h-.15l-.06.62-.88.11.09-.52-1.63.49a1,1,0,0,0-.08-.27c-.14-.26-.35-.24-.52-.05s-.45.53-.68.81c-.37-.45-.84-.43-1.37,0-.42,0-.28-1-1-.51a1.19,1.19,0,0,1,.1.28.23.23,0,0,1-.09.18s-.14,0-.15,0c-.16-.31-.37-.16-.57-.07a2.08,2.08,0,0,1-1.84-.3c-.11,0-.17-.23-.29-.41h-.73l-.06-.37c-1.13-.15-.26-1-.64-1.54-.31-.13-.49,0-.58.39-.19.8-.16.86.58,1.26.11.07.16.31.17.47s0,.5.39.5l-.07.71c-.5.09-.86-.11-.88-.52-.29-.1-.41,0-.57.29a7,7,0,0,1-.88,1.11l-.09-.07.77-1.36c-.3-.25-.64.45-.9-.11-.2.2-.38.4-.58.58l-.2-.17.48-.42-.73-.07c.16-.19.31-.35.43-.52s.25-.36.37-.54l-.07-.11-.39.07-.39.06c-.13,0-.33,0-.39,0a.6.6,0,0,0-.14.47,3,3,0,0,0,.35.66l-.61.19a1,1,0,0,0-.71-1c-.52-.15-.68.37-1,.62.1-.55.25-1,.78-1.07a6.81,6.81,0,0,0-1.27-.11c-.24,0-.45.28-.68.44l-.38-.45-.17.43c-.35,0-.74,0-1.13,0-.56,0-1.11-.22-1.69,0a7.09,7.09,0,0,1-1.43.41,2.43,2.43,0,0,1-.7-.08,3.2,3.2,0,0,0-.67-.1c-.84,0-1.68.06-2.53.08-.45,0-.91,0-1.36,0a3.89,3.89,0,0,1-2.44-.51,5.85,5.85,0,0,0-2.52-.55c-1-.16-2-.3-3-.42a4.59,4.59,0,0,0-.82.06,3,3,0,0,0,.57.56,11.86,11.86,0,0,0,5.6,1.69c1.87.06,3.74.3,5.62.32s3.56-.14,5.34-.22l2.59-.11a.75.75,0,0,1,.38.08c-1.34.29-2.59,1-4,.79a5.86,5.86,0,0,0-1.32.05c-.37,0-.47.23-.29.56a2.4,2.4,0,0,1,.16.27c.15.34,0,.58-.35.6s-.77,0-1.13,0a2,2,0,0,0,1.81-.06.26.26,0,0,0,.05-.12c.08-.16.14-.45.22-.46a3.38,3.38,0,0,1,.89.1.47.47,0,0,1,0,.33,1.74,1.74,0,0,1-.45.23l0,.1.45-.11.39-.05a3.61,3.61,0,0,1,.4-.48c0-.05.27,0,.27,0a3.25,3.25,0,0,1,0,.53l4.45-.89.07.1-.88.63a8.12,8.12,0,0,1-3.66,1.39c-.39.07-.79.08-1.18.15a6.82,6.82,0,0,0-.78.19,2.44,2.44,0,0,1-.44.13c-.53,0-1.09-.09-1.49.56-.12-.61-.44-.53-.81-.43-.21.06-.47,0-.69,0a8.83,8.83,0,0,0-.93.39l-.16-.38-.66.05.28.32a2,2,0,0,1-1.76.41c-.23,0-.5.11-.75.13s-.24-.12-.42-.22c-.2.25-.5.44-.84.1-.14.07-.34.23-.38.19-.32-.25-.92.38-1.06-.42a1.58,1.58,0,0,0,.38-.21c.07-.07.05-.32.05-.32-.47-.07-.93-.12-1.48-.18l.62.48-.45.54c0,.38-.36.48-1,.21l-.41.19c0-.13-.13-.27-.11-.39a4.66,4.66,0,0,1,.24-.68c-.65-.18-1.33-.51-2,.27.07-.53.15-.9.17-1.28,0-.11-.14-.23-.22-.35a3.82,3.82,0,0,1-.13.36c-.22.51,0,1.14-.45,1.6a2.94,2.94,0,0,0-.33.76l.59-.29c-.38.77-.81,1-1.28.57a5,5,0,0,1-.54-.68c.15-.39.1-.47-.4-.64a1.37,1.37,0,0,1-.27-.22l-.46-.37-.17,0c.09-.45.18-.89.26-1.34,0-.17,0-.35.06-.53a4.17,4.17,0,0,0-.58.24.66.66,0,0,0-.2.3c-.15.42-.58.45-.88.66-.59.43-1.06,0-1.59,0-.23,0-.46,0-.79,0a1.78,1.78,0,0,0-1.76-.35c-.15,0-.35,0-.52-.07v-.17l.39-.1c-.1-.06-.18-.14-.25-.13a2,2,0,0,1-1.38-.43,4.7,4.7,0,0,0-1-.52c-.24-.06-.53.13-.8.17a1.07,1.07,0,0,1-.39-.07l0-.14.25-.07c-.57-.37-1.07-.86-1.81-.79a1,1,0,0,1-.51-.18,6.49,6.49,0,0,1-.7-.46,12.47,12.47,0,0,1-1.83-1.46,2.25,2.25,0,0,1-.58-2.09,2.2,2.2,0,0,0,0-.36s0-.08-.06-.12c-.48.15-.66.78-.49,1.72-.45.1-.12.45-.22.7l-.67.2V136a3.75,3.75,0,0,1-.6-.15c-.25-.11-.51-.2-.19-.59.14-.17,0-.56,0-.87a3.59,3.59,0,0,1-.88.19c-.17,0-.35-.18-.49-.33-.39-.4-.76-.83-1.13-1.25l-.72-.81c-.18-.21-.34-.41-.68-.32-.11,0-.39-.16-.38-.23,0-.44-.25-.66-.51-.92a1,1,0,0,1-.21-.47c-.06-.23,0-.48-.11-.7s-.29-.66-.37-1a6,6,0,0,1-.12-1c-.22.1-.44.23-.68.32a.6.6,0,0,0-.45.77,2.35,2.35,0,0,0,.79,1.34,9.27,9.27,0,0,1,.73.64l-.43.18s0,.06,0,.06c.67.09.64.78,1,1.15s.46.51.71.75a.45.45,0,0,0,.29-.16c.07-.08.08-.22.17-.32l.06,1h.17l.15-.57.65.57-.05.09-.4-.1c-.24.51,0,.93.41,1,0,.18,0,.35.06.45.55.74,1.12,1.48,1.71,2.2a8.64,8.64,0,0,0,1.27,1.42,5.79,5.79,0,0,1,1.28,1.24c.25.38.52.75.8,1.12s.56.72.87,1a6.75,6.75,0,0,0,.59.4,3.7,3.7,0,0,0,.83.49c.8.26,1.62.46,2.43.69.06,0,.14,0,.17,0,.68.64,1.45.25,2.17.15a18.8,18.8,0,0,0,2-.53l.45-.1.09.14a4,4,0,0,1-.42.4,15.8,15.8,0,0,1-4.64,2.14,30.22,30.22,0,0,1-5.41,1,12.41,12.41,0,0,1-1.49,0l-1.17,0c-.31,0-.55-.08-.62-.46,0-.13-.19-.25-.32-.33-.28-.18-.52-.35-.44-.75a.49.49,0,0,0-.16-.39c-.41-.31-.86-.59-1.27-.9-.09-.06-.1-.21-.19-.22l-.9-.59-.55.13.25.53c-.41-.23-.71-.38-1-.57s-.35-.47-.71-.3c0,0-.09,0-.11-.08-.37-.73-1.16-1-1.68-1.56s-.87-.79-1.3-1.19c-.18-.17-.31-.42-.52-.54a4.55,4.55,0,0,1-1-1,7.72,7.72,0,0,1-1.51-1.61,4.27,4.27,0,0,0-.7-.71,6,6,0,0,1-1-1.24,7.26,7.26,0,0,0-1-1.13c-.24-.28-.63-.47-.67-.91,0-.09-.14-.18-.23-.26s-.19-.09-.25-.17c-.46-.59-.93-1.19-1.38-1.8s-.81-1.16-1.22-1.74a4.64,4.64,0,0,1-.5-.69,5.32,5.32,0,0,1-.23-.83c0-.13,0-.34-.13-.38s-.27.06-.41.08a1.56,1.56,0,0,1-.71,0,3.5,3.5,0,0,1-.85-.59c-.6-.5-1.18-1-1.76-1.54s-1.33-1.21-2-1.79c-.52-.45-1.08-.85-1.59-1.31s-.9-.89-1.35-1.34c-.88-.89-1.81-1.73-2.63-2.67a15.22,15.22,0,0,1-2.71-3.85,2.12,2.12,0,0,1-.13-.79c0-.7,0-1.4,0-2.1a.8.8,0,0,1,.13-.43,6.85,6.85,0,0,1,.45-.61l.49.46.21.17.46-.72a1.52,1.52,0,0,1,.39-2.57c.44-.2.94-.21,1.12-.83.07-.27.48-.43.74-.64-.89-1.13-1.67-2.2-2.53-3.21a14.14,14.14,0,0,1-2.09-3.42c-.26-.59-.6-1.15-.83-1.75a2.92,2.92,0,0,1-.08-1.07,10.36,10.36,0,0,1,.09-1.25,2.35,2.35,0,0,1,.73-1.36c.07.22.11.36.14.5s.08.51.36.37a1.15,1.15,0,0,0,.41-.62c0-.09-.09-.25-.13-.38a1.58,1.58,0,0,1,1.3-2.14,1.43,1.43,0,0,0,.44-.19c.6-.39,1.16-.83,1.78-1.16.8-.42,1.64-.79,2.48-1.13.66-.26,1.36-.43,2-.67s1.4-.59,2.12-.82c.89-.27,1.79-.47,2.7-.68.33-.08.4-.15.27-.51a16,16,0,0,1-.53-2c-.06-.25-.1-.38-.4-.44a1.27,1.27,0,0,1-.69-.43c-.72-.83-1.43-1.68-2.11-2.54s-1.18-1.52-1.69-2.33c-.84-1.34-1.65-2.7-2.4-4.1a15.36,15.36,0,0,1-.9-2.31,2.43,2.43,0,0,1-.05-.81,4.38,4.38,0,0,1,.08-1.21A5.76,5.76,0,0,1,39.57,69s.16,0,.28,0c-.07.38,0,.69.37.84s.62-.06.49-.4c-.28-.72-.29-1.2.56-1.59a2,2,0,0,1,1.56-.34,1,1,0,0,0,.43,0c.73-.1,1.46-.24,2.19-.28,1.26-.06,2.52-.07,3.79-.07a12.16,12.16,0,0,1,1.47.13l.27,0c1.43.09,2.86.19,4.3.27a7.74,7.74,0,0,0,1.36-.05l-.55-.06v-.14c.68,0,1.35,0,2,0a2.33,2.33,0,0,0,1.4-.12.8.8,0,0,1,1.1.49c0-.48.06-1,.11-1.45.12-1.11.24-2.22.39-3.33a4.73,4.73,0,0,1,1-2.11,1.27,1.27,0,0,1,.41-.35c.33-.19.5-.06.51.32a2.88,2.88,0,0,0,.13.65c0,.06.17.07.26.1a.72.72,0,0,0,.07-.28c-.05-.35-.13-.71-.19-1.07a.28.28,0,0,1,.13-.16,3,3,0,0,1,1.64-.26c1.25.26,2.53.4,3.79.63,1.08.19,2.14.46,3.21.68.59.13,1.18.24,1.77.35Zm58,35.2c-.28-.23-.36-.76-.94-.61a11.06,11.06,0,0,0-.75-1,5.29,5.29,0,0,0-.83-.65l-.06.05.59,1.14a3.68,3.68,0,0,1-.65-.24,2.37,2.37,0,0,1-.37-.34l-.14.13.91,1.18a.77.77,0,0,1,.14.25.7.7,0,0,0,1,.42l-.29-.57.58.1.78.16c0,.09.08.22.16.26.54.35,1.08.71,1.65,1s1,.5,1.54.75l-.05.13a7.31,7.31,0,0,0-1-.33.68.68,0,0,0-.53.08.54.54,0,0,0-.08.49,13,13,0,0,0,.51,1.3.75.75,0,0,0,.26.3,4,4,0,0,1,1.27,1.12,2.55,2.55,0,0,0,.67.52.6.6,0,0,0,.58.71,1.83,1.83,0,0,1,.91.27,2.92,2.92,0,0,1,.57.87c.2.34.38.69.59,1a3.7,3.7,0,0,1,.37.54,7.4,7.4,0,0,0,2.38,3.22,1.62,1.62,0,0,0,.32.17,2,2,0,0,1,.61.35c.49.52,1.39.63,1.52,1.5,0,0,.09.08.13.13.55.67,1.11,1.33,1.67,2a3.76,3.76,0,0,0,.35.34,4.61,4.61,0,0,1,.92.83c.46.74,1.18.71,1.88.72.17,0,.35-.17.5-.29.36-.27.71-.56,1.11-.88l.11.51,4-5.15c-.66-.26-1.23-.46-1.77-.7-.31-.14-.59-.34-1-.59-.71,0-1.31-.59-2-1l-1.3-.83c-.5.14-.73,0-1.23-.88l-.81-.09-.05-.12c.46-.12.73-.35.47-.93a1.92,1.92,0,0,0-.35.35c-.23.41-.51.43-.78.06.13-.07.3-.11.37-.21a.38.38,0,0,0,0-.36,2.45,2.45,0,0,0-.72-.44.88.88,0,0,0-.54.08c-.2.07-.4.29-.57.26s-.26-.3-.42-.52a.68.68,0,0,1,0,.26c-.07.12-.17.32-.25.32-.69,0-1.37-.14-2.06-.13a16,16,0,0,1-5-.94c-.16,0-.27-.3-.4-.46a12.26,12.26,0,0,0,3.67-.28l-.8.06,0-.13c.5-.16.52-.49.3-.94a4.58,4.58,0,0,0,.65.26c.12,0,.36,0,.37-.11a1.19,1.19,0,0,0-.07-.52c0-.08-.16-.13-.26-.17-.46-.2-1-.28-1.24-.8-.17.06-.37.1-.42,0a2.26,2.26,0,0,0-1.29-.66c-.14,0-.25-.24-.39-.26-.52,0-.61-.17-.48-.72a2.34,2.34,0,0,1-1.67-.82l-.37.31-.23-.35-.51.17-.22-.42,0,.1a4.76,4.76,0,0,1-.66-.09A7.06,7.06,0,0,1,131.9,96.49Zm-13.28,6.73a3.29,3.29,0,0,0,.12.71c0,.11.19.19.29.28.07-.12.19-.22.2-.34,0-.44-.31-.53-.62-.64l-.4-1c-.12.28.13.71-.47.76l.47.22c-.8.46-1,.47-1.46,0-.14-.14-.16-.4-.28-.58-.34-.5-.71-1-1-1.44a3.29,3.29,0,0,1-.6.15c-.32,0-.65,0-1,0a8.1,8.1,0,0,0-1,.31l-.3-.37c-.48.36-.9.81-1.55.48,0,0-.16,0-.24.08-.55.28-1.08.6-1.64.84a12.74,12.74,0,0,1-1.49.44.33.33,0,0,1-.21,0c-.67-.26-1,0-1.23.66a3.84,3.84,0,0,1-.73,1.55c-.38.41-.9.68-1.14,1.25l.24-1.35c-.43.49-.74,1-1.49,1-.53,0-.92-.18-1.06-.69-.08-.29-.18-.58-.27-.87-.22.4-.32.8-.49,1.16-.4.83-.93.92-1.59.28-.23-.22-.44-.46-.66-.69a1.55,1.55,0,0,1,.15,1.28c-.14-.75-.15-.75-.88-1.17a1.19,1.19,0,0,1-.45-.44c-.27-.51-.5-1-.74-1.57l-.19-.39c-1.69.47-3.28.66-4.55-.8-.3.43-.55.83-.85,1.21s-.68.79-1,1.2c-.55.66-1,1.37-1.64,2-.87.92-1.8,1.78-2.71,2.65-.21.21-.46.38-.69.58a2.52,2.52,0,0,0-.27.3l-1.54,1.95c-.51.64-1.06,1.26-1.54,1.93s-.7,1.17-1.07,1.74a13.76,13.76,0,0,0-.87,1.18c-.32.63-.55,1.3-.82,2a3.54,3.54,0,0,1-.25.52c-.11.18-.25.34-.35.52a5.24,5.24,0,0,0-.66,2.65,4.72,4.72,0,0,0,.27,1.71,3.23,3.23,0,0,0,2,1.77c.69.27,1.55.07,2.08.77,0,0,.06,0,.09,0,.48.12,1,.26,1.45.37,1.24.27,2.48.53,3.71.81.85.19,1.7.43,2.55.62a1.71,1.71,0,0,0,.5,0,2.62,2.62,0,0,0,.38.45c.67.48,1.36.95,2.05,1.4.1.08.26.07.38.13a6.26,6.26,0,0,1,1.2.64c.32.28.56.37.86,0a2.83,2.83,0,0,1,.36.43.65.65,0,0,0,.84.33c.13,0,.31.07.45.12s.45.29.53.23c.38-.28.61-.07.86.16a1.07,1.07,0,0,0,.33.12,9.18,9.18,0,0,1,.93.3l3.38,1.54a2.07,2.07,0,0,0,1.67,0,4.44,4.44,0,0,1,1.22-.15,3,3,0,0,0,.79,0c.71-.24,1.41-.53,2.12-.82a1.85,1.85,0,0,0,.34-.23l0-.11-1.4-.24-.24-1.11.09-.12.76.48.37-.68.18.09c-.09.2-.2.4-.28.6s0,.48.34.64c.14-.33.2-.8.43-.91s.62.17.94.28l.18-.62a1.13,1.13,0,0,0,1.5-.18l-1.31-.25a.87.87,0,0,1,.87-.49c.11,0,.23-.08.34-.12a3.08,3.08,0,0,0-.33-.3.32.32,0,0,0-.27,0c-.35.23-.71.07-1.07.06a1.07,1.07,0,0,0-.3.06l-3,.74h-.18c-.69-.08-1.28.36-1.95.35-.27,0-.54,0-.81,0s-.26-.12-.38-.1a3.33,3.33,0,0,1-2.26-.49.94.94,0,0,0-.38-.11c-.53-.06-1,.12-1.59,0-.83-.17-1.69-.19-2.5-.41-1.45-.39-2.87-.88-4.29-1.34-.46-.14-.92-.31-1.46-.5a6,6,0,0,1,1,0c1.3.25,2.59.54,3.89.79a19.36,19.36,0,0,0,2.59.41c1.45.07,2.89,0,4.34,0,1.17,0,2.35-.09,3.53-.19a28,28,0,0,0,2.86-.38c.82-.16,1.63-.41,2.44-.63,1-.28,2-.59,3-.86.37-.11.78-.12,1.13-.25.9-.35,1.76-.77,2.66-1.11a30,30,0,0,1,2.9-1c1.69-.47,3.39-.93,5.11-1.3a23.18,23.18,0,0,1,2.89-.28c.71-.06,1.42-.09,2.12-.18,1-.12,2-.27,3-.46a3.19,3.19,0,0,0,.85-.52l.33.14c0-.28.2-.56.12-.73a4,4,0,0,0-.64-.83c-.19.54-.41.65-.79.35l.35-.4c-.17-.06-.3-.15-.4-.13-.86.2-1.36-.28-1.81-.91a1,1,0,0,0-.62-.44c-.3,0-.33-.14-.43-.34s-.27-.51-.45-.55c-.42-.09-.79-.16-.89-.67,0-.07-.19-.11-.3-.18a.68.68,0,0,1-.37-.74.66.66,0,0,0-.76-.8c-.3,0-.36-.08-.41-.33s-.18-.45-.3-.47c-.38,0-.39-.26-.41-.53a.92.92,0,0,0-.84-.91c-.35,0-.44-.15-.43-.47a1,1,0,0,0-.76-1.14s-.07-.08-.1-.13a6.76,6.76,0,0,0-.55-.77,9.8,9.8,0,0,0-.93-.8l.07-.13c-.12-.23-.22-.38-.29-.54a1.62,1.62,0,0,0-1.3-.78.4.4,0,0,1-.18,0c.09-.16.25-.32.21-.4a.87.87,0,0,0-.4-.46c-.37-.13-.41-.18-.13-.54,0,.32.28.33.51.27.07,0,.12-.17.18-.26a1.29,1.29,0,0,0-.41-.26c-.07,0-.19.16-.29.26a.44.44,0,0,0-.08-.21c-.25-.27-.5-.54-.78-.79s-.71-.59-1.08-.87-.5,0-.68.13,0,.3-.07.45-.06.27-.11.49c-.5-.65-.49-1.11-.09-1.33,0-.31,0-.62,0-.91s0-.66-.53-.65v.76a9.74,9.74,0,0,1-.41-1.61C118.45,103.43,118.56,103.32,118.62,103.22Zm-59.44,2.54a2.92,2.92,0,0,1-.57.45c-.53.23-1.08.4-1.6.63a7,7,0,0,0-.95.57c-.34.23-.65.49-1,.71a3,3,0,0,0-1.55,2.75,7.34,7.34,0,0,0,.59,2.32,24.72,24.72,0,0,0,1.19,2.56c.58,1.12,1.17,2.24,1.8,3.34a15,15,0,0,0,1.27,1.8c.64.8,1.33,1.56,2,2.35a5.38,5.38,0,0,0,2.22,1.92c.61.21.68.24.88-.36a1.71,1.71,0,0,1,.32-.53,1.37,1.37,0,0,0,.25-1.22.88.88,0,0,1-.06-.48,1.73,1.73,0,0,0-.51-1.52.62.62,0,0,1-.12-.92c.32-.32.7-.58,1-.88a1.22,1.22,0,0,0,.42-.55,6,6,0,0,1,1.33-2.77c1-1.16,1.52-2.72,2.77-3.72,0,0,0,0,0,0L70,110.88a1,1,0,0,0,.24-.42.7.7,0,0,1,.54-.66,1.64,1.64,0,0,0,.94-1c.22-.44.62-.54.9-.82a5.16,5.16,0,0,0,1.13-1.47,1.06,1.06,0,0,1,.44-.53,4.92,4.92,0,0,0,1.14-.87,3.18,3.18,0,0,1,1.27-.93c-.19-.42-.07-.66.41-.77a1.17,1.17,0,0,0,.6-.46,4.48,4.48,0,0,1,1.28-1.32l.16-.1c.83-.59,1.66-1.2,2.51-1.77a20.83,20.83,0,0,0,3.64-2.61c.32-.32.57-.5.93,0-.06-.3-.06-.6-.48-.58-.08,0-.18-.11-.26-.19s-.27-.3-.42-.44-.3-.27-.46-.41A.66.66,0,0,0,84,95.4c-.39.15-.73.41-1.11.6-.85.45-1.69.91-2.57,1.32a12.54,12.54,0,0,1-1.39.45c-.35.12-.78.15-1,.39-.56.53-1.38.39-1.94.84,0,0-.05,0,0,0a5.13,5.13,0,0,0-.1-.51s-.29,0-.31,0a1.56,1.56,0,0,0,0,.5c-.21.09-.46.22-.73.32a14.2,14.2,0,0,0-1.94.76c-1,.53-1.91,1.17-2.85,1.77a5,5,0,0,0-1.29.89,1.93,1.93,0,0,1-1.35.6c-.43.09-.87.15-1.3.24a4.79,4.79,0,0,0-2.21.6,7.34,7.34,0,0,1-1.69.74c-.36.15-.73.27-1.1.4a2.64,2.64,0,0,0-.92.32C59.76,105.93,59.5,106,59.18,105.76Zm101.73-8c1-1.47,1.93-2.88,2.9-4.27a3.81,3.81,0,0,1,.69-.63l.33-.3a7,7,0,0,1,.66-.67c1-.71,2-1.41,3-2.11.81-.55,1.65-1.09,2.48-1.63a25.09,25.09,0,0,0-2.86-.1c-.88,0-1.75.09-2.62.06-1.44,0-2.87-.14-4.3-.23-.27,0-.54-.06-.81-.07s-.7-.11-.9.24c-.42.72-.85,1.43-1.2,2.18s-.62,1.51-.92,2.27c-.09.23-.15.48-.23.72a10.47,10.47,0,0,0-.47,1.4,2,2,0,0,0,1.12,1.75c.62.22,1.25.44,1.86.7C160.1,97.23,160.51,97.5,160.91,97.72Zm-7.53-10.36a4.25,4.25,0,0,0-.59-.15c-.81-.07-1.63-.13-2.44-.18s-1.89-.09-2.83-.18c-1.43-.13-2.87-.26-4.28-.48a2.29,2.29,0,0,0-1.68.51.44.44,0,0,0,0,.81,13.7,13.7,0,0,0,1.52.89c.54.26,1.15.4,1.67.69a11.82,11.82,0,0,0,5.9,1.68,1.16,1.16,0,0,1,.49,0c.26.11.35,0,.46-.21.32-.62.67-1.22,1-1.84S153.09,87.93,153.38,87.36ZM70.22,80.25l0,.07a2.78,2.78,0,0,0,.78-.18c1-.6,2.19-.52,3.28-.82a25.6,25.6,0,0,1,2.61-.51c.5-.09.45-.51.53-.83,0-.11-.15-.32-.28-.38a2,2,0,0,0-.66-.1c-.72,0-1.44,0-2.16,0-.17,0-.32-.21-.47-.32s-.24-.27-.38-.28c-.63-.06-1.26-.08-1.89-.12-1.58-.08-3.15-.17-4.73-.24-.2,0-.52,0-.6.17a4.19,4.19,0,0,0-.68,3.61c.1.31.21.49.57.39a4.72,4.72,0,0,1,.62-.08l-.11.46a10.17,10.17,0,0,1,2-.41c.67,0,1.14-.57,1.77-.61l0,.13ZM52.09,75.1a3.61,3.61,0,0,1,.39.43c.17.32.3.67.47,1,.59,1.11,1.63,1.93,2,3.18,0,.06.06.1.09.15.44.59.9,1.16,1.31,1.78a2.88,2.88,0,0,0,1.85,1.19c.36.09.54-.07.63-.45.42-2,.51-4.09,1-6.09.08-.31-.07-.42-.35-.44l-1.32-.11-.18,0c-.56-.08-1.13-.17-1.69-.23-1.28-.15-2.55-.28-3.83-.41A2.88,2.88,0,0,0,52.09,75.1ZM45.43,98.54a5,5,0,0,1,1,.74,1.73,1.73,0,0,0,1.48.57,3.58,3.58,0,0,1,.43.08,2,2,0,0,0,.81,0,13.32,13.32,0,0,0,1.8-.83A15.66,15.66,0,0,1,53.22,98c.51-.19.55-.4.27-.87L52,94.71c-.14-.24-.29-.4-.62-.32-.55.15-1.12.26-1.68.39-.8.18-1.58.42-2.39.52a2.33,2.33,0,0,0-1.71,1.07,2.7,2.7,0,0,0-.33,1.18A4.66,4.66,0,0,0,45.43,98.54ZM157.15,78.67a13.91,13.91,0,0,1,2.7-2.6c1-.8,2-1.54,3.07-2.3l-.06-.08-12,2.08a.93.93,0,0,1-.05.32c-.38.66-.29.86.42,1.16a25.33,25.33,0,0,0,5.16,1.15A7.12,7.12,0,0,1,157.15,78.67ZM138.1,68.3a3.21,3.21,0,0,1,.08-.36c.25-.57.47-1.15.77-1.69.15-.28.46-.47.67-.72a1.61,1.61,0,0,0,.16-.38,1.29,1.29,0,0,0-.42-.06c-1.16.3-2.31.61-3.45,1a6.63,6.63,0,0,1-1.61.54c-.9,0-1.33.63-1.86,1.11-.33.3-.21.48.2.64a6.84,6.84,0,0,0,3.18.13Zm-90,8.6a1.27,1.27,0,0,1,0-.42c.15-.58.32-1.15.5-1.72.1-.28,0-.39-.26-.45-1-.23-2.06-.48-3.09-.7-.5-.11-1-.2-1.51-.3l0,.11Zm29.41-9v0c-1.18-.3-2.37-.59-3.55-.91-.8-.21-1.6-.46-2.4-.69-.24-.07-.47-.07-.55.21s0,.39.08.45a5.83,5.83,0,0,0,3.17.92l.85.06ZM96.85,95.43a1.61,1.61,0,0,1-.52-.18,8.84,8.84,0,0,1-.74-.75c0,.48.11.94-.54,1a1.92,1.92,0,0,1,.11-.57.37.37,0,0,0-.21-.58c-.2,0-.62.08-.64.18a4,4,0,0,0,0,1.15c0,.12.17.22.26.34l.3-.23a6.15,6.15,0,0,0,.79.29c.36.08.61.21.41.61l.77-.11ZM66.92,64.81l-3-.68.82,2.3A6,6,0,0,1,66.92,64.81ZM78.3,74.66c-1.13.66-2.14,1.24-3.15,1.84-.09,0-.12.2-.18.3a1.34,1.34,0,0,0,.37.16.75.75,0,0,0,.39-.07c.68-.26,1.35-.53,2-.82a.56.56,0,0,0,.22-.33C78.07,75.43,78.16,75.11,78.3,74.66Zm-1.88,8.1c-.06.9-.74,1.5-.63,2.38.06.45-.47.57-.72.85s-.54.74-.81,1.11l.16.11a8,8,0,0,0,2.23-2.75l-.51.35C76.34,84.11,77.06,83.59,76.42,82.76Zm-37,16,.15,0c0-.44,0-.87,0-1.31,0-.14.07-.28.12-.52l-1.86.69,0,.17Zm1.93,15.31a1.62,1.62,0,0,1,.1-.31c.3-.39,0-.69-.19-1,0-.08-.39,0-.6,0a1.61,1.61,0,0,0-.44.05,2.67,2.67,0,0,0-.46.2c.11.15.18.35.32.42C40.44,113.71,40.87,113.86,41.31,114.05Zm43.13-38,.27-.48.33.23V74.59l-.3.21a3.78,3.78,0,0,0-.56.4,1.07,1.07,0,0,0-.24.49.36.36,0,0,0,.13.3C84.15,76.05,84.29,76,84.44,76.05Zm58.84,26.2c-.36.12-.53-.09-.77-.26a2.13,2.13,0,0,0-.78-.2l0-.12.34-.08-.59-.45-.39.56,1.75,1Zm-53.48-5a.65.65,0,0,0,.2.05,4.34,4.34,0,0,0,.51,0,3.59,3.59,0,0,0-.05-.46c0-.22-.11-.44-.16-.65s0-.26-.06-.47l-.49.53.36.32-.45.16c0,.11,0,.18.06.25S89.77,97.14,89.8,97.24Zm-4.22,42,.14-.05c0,.06,0,.14,0,.17s.25.26.38.39c0-.17,0-.35.07-.53a1.49,1.49,0,0,0,0-.21c0-.42-.16-.59-.66-.58l.14.5-.38-.26-.1.1ZM64,121.31l.06.1,2.33.34c-.6-.68-1.41-.39-2-.68C64.26,121,64.09,121.22,64,121.31Zm77.72-56.52a1.06,1.06,0,0,0-.86.94,1.41,1.41,0,0,0,.22.51l.19,0Zm-8.81,65H133v-2h-.12Zm-2.64-14.94-.85-.08.49.29-.49.25.06.1.79.12Zm45.28-30.71c.27-.71,0-1.06-.69-1.06l.42.34C174.81,83.82,175.2,83.94,175.52,84.12ZM48.3,119.53l-.42,1C48.61,120.49,48.68,120.35,48.3,119.53ZM89.12,95l.16.06a4.8,4.8,0,0,0,.3.48c0,.08.16.11.25.17,0-.1.08-.22,0-.31s-.2-.45-.33-.74ZM47.81,121.47v.45a3.58,3.58,0,0,0,0,.45.54.54,0,0,0,.15.25.27.27,0,0,0,.15-.07C48.24,122.37,48.09,121.65,47.81,121.47Zm-.23-41.64-.11-.09c-.11.08-.31.15-.31.23a4.27,4.27,0,0,0,.12.7l.23,0Zm47.08,63,.12,0a2.7,2.7,0,0,0,.43-.53c.05-.08-.06-.24-.1-.37-.1,0-.25.07-.28.14C94.75,142.36,94.72,142.6,94.66,142.84Zm37.73-17.71.35,1C133.08,125.44,133.06,125.35,132.39,125.13ZM77.56,83.66l.07,0c0-.19.09-.38.12-.57.07-.37,0-.46-.45-.38Zm-.73,13.72.12.06.68-1.27-.1-.06A2.39,2.39,0,0,0,76.83,97.38Zm81.45,22.36c-.08.12-.27.28-.24.37a1.93,1.93,0,0,0,.4.56s.13,0,.15,0a.25.25,0,0,0,0-.19C158.51,120.23,158.41,120,158.28,119.74Zm7.06-27.32-.21.1c.16.29.31.58.47.86,0,0,.15,0,.16,0s.08-.17.05-.22C165.67,92.93,165.5,92.68,165.34,92.42ZM88,91.88l-.26.06.14.72.32-.09Zm7.79,50.72a2,2,0,0,0,.25-.54c0-.06-.21-.22-.24-.2a.6.6,0,0,0-.29.32C95.46,142.26,95.61,142.38,95.76,142.6Zm-15.28-51,.46.65C81.14,91.83,81.05,91.57,80.48,91.64Zm5.78,50.63.08,0,.48-.67-.08-.07-.48.15Zm-.49-65.76.22.29.6-.68a2.51,2.51,0,0,0-.43.12A3.55,3.55,0,0,0,85.77,76.51ZM69.6,121.18l1.05.07C70.28,121,69.92,120.74,69.6,121.18Zm63.05,6.91h-.14v1.52h.14Zm32.15-15.92.44.81A.61.61,0,0,0,164.8,112.17Zm-32.09,15.18.21,0-.38-1.18-.09,0Zm34.85-18.21v-.68h-.12C167.35,108.65,166.93,108.83,167.56,109.14ZM96,102.32l.12-.07a5.38,5.38,0,0,0-.24-.55c0-.06-.18-.06-.27-.08s0,.2,0,.27A5.2,5.2,0,0,0,96,102.32ZM86.5,91l-.18,0,.32,1.08.11,0Zm-.26,1.51c.14-.55.08-.71-.26-.88Zm41.26,18.71,0-.16.35-.29a1.37,1.37,0,0,0-.36.09S127.48,111.07,127.5,111.19Zm-.32-1.19-.09.2.85.32.06-.13ZM86.72,139.69h-.19l-.07.83h.14Zm10.63,2.66v-.13l-.65-.07.13.41Zm-27.08,3.78-.09-.21c-.17.09-.34.17-.5.27a1.2,1.2,0,0,0,.07.18Zm62.53-15h.1l.06-1h-.14c0,.3,0,.61-.07.92C132.74,131,132.78,131.06,132.8,131.1Zm8.56-30.36-.08-.2-.53.19.09.22Z"/><path class="cls-3" d="M99.2,142.72c.34-.43.76.22,1.11-.05v.13l-1.08.1Z"/><path class="cls-3" d="M106.23,132.29c.72-.3.87.39,1.25.71C106.5,133,106.5,133,106.23,132.29Z"/><path class="cls-3" d="M105.46,133H105c-.09-.21.18-.57-.41-.53C105.09,132.2,105.14,132.24,105.46,133Z"/><path class="cls-3" d="M102.58,132.26v.6a4.71,4.71,0,0,1-.65,0c-.05,0-.07-.19,0-.34l.41.33.11-.56Z"/><path class="cls-3" d="M103.86,132.38l.18.65c-.19-.12-.37-.17-.41-.28s.07-.26.12-.39Z"/><path class="cls-3" d="M145.35,104.17l-.09-.66.07-.07a2.79,2.79,0,0,1,.35.42A2.77,2.77,0,0,1,145.35,104.17Z"/></g></g></g></svg>