<svg xmlns="http://www.w3.org/2000/svg" viewBox="0 0 211.39 211.39"><defs><style>.cls-1{fill:#194f90;}.cls-2{fill:#fff;}</style></defs><g id="Layer_2" data-name="Layer 2"><g id="Layer_1-2" data-name="Layer 1"><circle class="cls-1" cx="105.69" cy="105.69" r="105.69"/><path class="cls-2" d="M22.41,128.6a3.26,3.26,0,0,1,.2-.48c.2-.51.41-1,.59-1.54.1-.3.12-.62.22-.93.45-1.44.91-2.87,1.37-4.31.21-.63.46-1.25.64-1.89.34-1.2.59-2.43,1-3.62.51-1.65,1.1-3.27,1.65-4.91a5,5,0,0,0,.33-1.3,12.33,12.33,0,0,0-.51-3.57c-.38-1.47-.82-2.93-1.2-4.4-.32-1.25-.56-2.52-.86-3.77-.23-.95-.55-1.88-.75-2.83-.31-1.46-.46-3-.85-4.4a42.19,42.19,0,0,0-1.51-4.3c-.23-.6-.21-.72.42-.75a12.23,12.23,0,0,1,3.6.65,19.11,19.11,0,0,1,5.5,2.49c2.29,1.43,4.43,3.09,6.64,4.65,1.65,1.16,3.3,2.33,5,3.46,1,.68,2,1.28,3,1.94.7.46,1.37,1,2.06,1.44a.8.8,0,0,0,.51.17c.75-.06,1.5-.15,2.25-.26,1.6-.25,3.21-.5,4.81-.78a2.11,2.11,0,0,0,1.32-.55,1.7,1.7,0,0,0-.44-.23c-.74-.11-.62-.33-.45-.87a1.41,1.41,0,0,1,.26-.5,10.27,10.27,0,0,1,.87-1.08,17.18,17.18,0,0,1,1.55-1.4,2.14,2.14,0,0,1,1.66-.39,10.15,10.15,0,0,1,1.56.38,15.1,15.1,0,0,1,3.4,1.84,2.06,2.06,0,0,0,1.55.54c2-.41,4-.79,6-1.2,1-.21,2.07-.48,3.11-.68s2.26-.39,3.39-.58l6-1c1.22-.2,2.44-.37,3.66-.57a.88.88,0,0,0,.52-.27c.33-.43.6-.9.91-1.33.74-1,1.48-2.07,2.24-3.09A12.48,12.48,0,0,0,94.69,87c.68-1.26,1.3-2.55,1.91-3.85a2.32,2.32,0,0,0,0-2.24.81.81,0,0,1,.06-.76.88.88,0,0,1,.74-.16,8.29,8.29,0,0,1,1.36.44c1.32.58,2.63,1.16,3.93,1.77.91.42,1.8.87,2.67,1.37,1.27.71,2.52,1.45,3.74,2.22,1.44.91,2.83,1.88,4.26,2.8a5.4,5.4,0,0,0,1.46.73,5,5,0,0,0,1.34,0c1.51,0,3-.08,4.52,0,2.76.12,5.52.25,8.27.48,2.05.17,4.09.48,6.13.8,1.29.21,2.56.53,3.84.81,1,.22,2,.39,3,.69,3.34,1,6.67,2.07,10,3.19,2.28.78,4.52,1.7,6.77,2.57,1.66.64,3.31,1.35,5,1.94,1.95.69,3.91,1.33,5.9,1.9a32.37,32.37,0,0,0,4.25.88c1.32.2,2.67.15,4,.33,2.37.32,4.74.69,7.09,1.13a6.51,6.51,0,0,1,2.28.83,2.77,2.77,0,0,1,1.09,3.86,1.32,1.32,0,0,1-1.78.72c-.46-.27-1-.44-1.46-.68a1.89,1.89,0,0,0-1.92,0,12.47,12.47,0,0,0-2.51,2,13.73,13.73,0,0,1-3.53,3,11.71,11.71,0,0,0-1.22.91l.1.19a1.12,1.12,0,0,0,.32,0c.93-.39,1.85-.81,2.8-1.17a12.93,12.93,0,0,1,2-.61,9.28,9.28,0,0,1,2.15-.25,4.93,4.93,0,0,0,2-.52.67.67,0,0,0,.45-.71c0-.74.42-1.08,1.09-.77a6.11,6.11,0,0,1,1.74,1.19,1.3,1.3,0,0,1,.29,1.62,13.34,13.34,0,0,1-1.78,2.12,15.59,15.59,0,0,1-2,1.44,46.34,46.34,0,0,1-5.63,3.55c-.83.41-1.62.91-2.44,1.32-1,.48-1.94.94-2.93,1.35-1.61.66-3.22,1.35-4.86,1.9a38.29,38.29,0,0,1-6.25,1.54c-.49.08-1,.17-1.46.23-.91.11-1.83.16-2.72.32-1.47.27-2.92.65-4.39.9-2.2.39-4.41.79-6.63,1-2.51.27-5,.37-7.55.51-1.34.08-2.67.11-4,.13s-2.44,0-3.66,0-2.29.1-3.43.09c-1.32,0-2.64-.1-4-.15l-4.71-.17c-2-.09-4-.21-6-.26a33.94,33.94,0,0,0-7.6.25c-1.43.28-2.89.51-4.34.74q-3,.48-6,.9a8.64,8.64,0,0,1-1.44.08c-.63,0-1.27-.09-1.91-.15a6.84,6.84,0,0,1-2.86-.82c-.55-.33-.59-.52-.46-1.13A8,8,0,0,1,91,126.89c.2-.34.15-.47-.18-.57l-.42-.11-1.88-.39-5.9-1.38a8.28,8.28,0,0,1-1.19-.39c-.59-.24-1.16-.53-1.75-.79a.75.75,0,0,0-.85.1,14.92,14.92,0,0,1-1.25,1c-.92.65-1.9,1.24-2.81,1.91a29.06,29.06,0,0,1-4.52,2.84,12.64,12.64,0,0,1-4.38,1.49c-1,.1-1.46-.23-1.48-1.23,0-.29.05-.58,0-.87a1.65,1.65,0,0,0-.1-.58c-.34-.79-.68-1.58-1-2.35a15.79,15.79,0,0,0-1.82-3.26,16.6,16.6,0,0,1-1.8-2.41,17.51,17.51,0,0,1-1.88-4.1c-.17-.73-.22-.72.39-1.06,0,0,0,0,0-.12a3.15,3.15,0,0,0-.44-.11c-2-.29-4-.54-6-.88a2.74,2.74,0,0,0-2.64.8,7.62,7.62,0,0,1-1.34,1c-.59.41-1.23.76-1.81,1.2-1.11.84-2.19,1.73-3.29,2.58-1.63,1.24-3.28,2.46-4.89,3.71-.6.46-1.1,1-1.71,1.49-1.16.84-2.34,1.67-3.56,2.43A17,17,0,0,1,30,128.15a15.87,15.87,0,0,1-4.11,1.13,23.59,23.59,0,0,1-3,0C22.43,129.25,22.34,129,22.41,128.6Z"/></g></g></svg>