<svg xmlns="http://www.w3.org/2000/svg" viewBox="0 0 211.39 211.39"><defs><style>.cls-1{fill:#194f90;}.cls-2{fill:#fff;}</style></defs><g id="Layer_2" data-name="Layer 2"><g id="Layer_1-2" data-name="Layer 1"><circle class="cls-1" cx="105.69" cy="105.69" r="105.69"/><path class="cls-2" d="M156.36,119l-4.59,5.82a5.46,5.46,0,0,0,1.63,0,21.6,21.6,0,0,0,8.74-6.09,6.6,6.6,0,0,1,3.91-2c8.29-1.81,16.58-3.69,24.8-5.81,2.91-.75,5.85-1.83,7.83-4.45s1.6-4.49-1.47-5.72a97.65,97.65,0,0,0-9.31-3.1c-12.71-3.65-25.77-4.63-38.91-4.81a8.35,8.35,0,0,1-6.25-2.57,74.22,74.22,0,0,0-6.59-5.51,10.12,10.12,0,0,0-2.67-1.48c-2.22-.84-3.51-.17-4.22,2.09-.48,1.56-.88,3.15-1.33,4.73-1,3.43-3.38,3.92-6.05,1.4a68.78,68.78,0,0,0-5.69-4.63,5.23,5.23,0,0,0-5-.63c-6.74,2.11-13.5,4.15-20.22,6.33-1.12.36-2.61,1-3,1.93-.82,2-2.33,2-3.94,2.25-1.93.24-3.88.36-5.79.71-3.2.59-6,.44-8.27-2.43-1.23-1.56-3.16-1.78-5.08-1.28a65.82,65.82,0,0,0-8.29,2.27c-3.55,1.42-7.74,1.14-10.74,4-2.19-.41-4.5-.51-6.54-1.31-3.14-1.22-6-3.1-9.14-4.38-3.87-1.58-7.87-2.86-11.83-4.2a8.93,8.93,0,0,0-2.73-.33c-2.23,0-2.34.16-2.15,2.48a20,20,0,0,1-1.67,10.2c-.79,1.7-.18,2.31,1.25,2.57a67.1,67.1,0,0,0,9.09,1.34c5.22.19,10.45,0,15.67-.07,3.35,0,5.31,1.42,6.59,4.61a4.74,4.74,0,0,0,2,2.13c5.64,3.12,11.34,6.14,17,9.21,2.39,1.28,4.47.85,6.49-.88,2.72-2.32,2.65-2.18,5,.64a7.47,7.47,0,0,0,3.71,2.37,100.37,100.37,0,0,0,20.64,2.9,82.4,82.4,0,0,1,9.79.87,61,61,0,0,0,18.35-.58,12.08,12.08,0,0,0,7-3.47,9.39,9.39,0,0,1,5.69-2.74C145.47,120.58,150.72,119.79,156.36,119Z"/></g></g></svg>