<?xml version="1.0" standalone="no"?>
<!DOCTYPE svg PUBLIC "-//W3C//DTD SVG 20010904//EN"
 "http://www.w3.org/TR/2001/REC-SVG-20010904/DTD/svg10.dtd">
<svg version="1.0" xmlns="http://www.w3.org/2000/svg"
 width="1136.000000pt" height="1136.000000pt" viewBox="0 0 1136.000000 1136.000000"
 preserveAspectRatio="xMidYMid meet">
<metadata>
Created by potrace 1.11, written by Peter Selinger 2001-2013
</metadata>
<g transform="translate(0.000000,1136.000000) scale(0.100000,-0.100000)"
fill="#000000" stroke="none">
<path d="M5818 10655 c-2 -1 -48 -6 -103 -9 -124 -8 -239 -20 -309 -31 -11 -2
-41 -6 -66 -9 -50 -7 -82 -12 -155 -26 -27 -5 -61 -12 -75 -14 -14 -2 -57 -11
-95 -20 -39 -8 -83 -17 -98 -20 -15 -3 -39 -8 -54 -11 -14 -3 -36 -11 -47 -17
-12 -6 -22 -11 -23 -10 -2 1 -4 2 -5 1 -2 0 -14 -3 -28 -5 -26 -5 -184 -51
-210 -61 -20 -8 -42 -14 -57 -15 -7 -1 -13 -4 -13 -8 0 -4 -6 -7 -12 -7 -15 0
-270 -95 -338 -125 -88 -39 -156 -70 -206 -94 -28 -13 -56 -24 -62 -24 -7 0
-12 -3 -12 -7 0 -5 -29 -21 -65 -37 -36 -16 -65 -33 -65 -37 0 -5 -9 -9 -20
-9 -11 0 -20 -4 -20 -8 0 -4 -12 -13 -27 -19 -37 -16 -93 -49 -246 -146 -71
-45 -136 -86 -145 -92 -9 -5 -19 -12 -22 -15 -3 -3 -25 -19 -50 -35 -25 -17
-49 -35 -55 -41 -5 -6 -30 -25 -55 -42 -25 -16 -55 -38 -67 -48 -12 -11 -60
-50 -107 -88 -47 -37 -86 -72 -86 -77 0 -5 -4 -9 -10 -9 -30 0 -459 -432 -562
-566 -12 -16 -25 -31 -28 -34 -8 -7 -51 -61 -80 -100 -14 -18 -30 -38 -35 -44
-6 -6 -41 -54 -77 -106 -37 -52 -74 -103 -82 -112 -9 -10 -16 -21 -16 -24 0
-3 -13 -24 -29 -47 -41 -60 -156 -249 -164 -269 -16 -44 -24 -7 -24 125 -1
110 -4 151 -16 174 -17 31 -70 63 -105 63 -49 0 -103 -37 -117 -80 -4 -12 -7
-538 -7 -1168 0 -633 -4 -1173 -9 -1204 -23 -146 -116 -290 -245 -379 -48 -32
-154 -83 -154 -73 0 4 -7 0 -17 -7 -9 -8 -18 -13 -20 -11 -2 2 -23 0 -47 -3
-111 -17 -155 -137 -78 -212 36 -36 76 -40 181 -18 227 46 477 251 558 457 9
23 21 46 27 50 6 4 8 8 4 8 -4 0 -3 12 3 28 6 15 13 36 15 47 2 11 6 31 10 45
14 61 15 149 16 900 l1 794 29 61 c16 33 33 67 38 75 5 8 23 44 41 79 17 35
51 97 75 138 24 40 44 78 44 82 0 5 3 11 8 13 4 2 16 19 26 38 52 94 309 462
360 516 6 6 25 28 41 49 143 177 410 449 581 591 26 22 52 44 58 49 69 62 376
289 376 278 0 -5 4 -3 8 3 9 14 98 74 109 74 5 0 19 9 31 20 12 11 32 25 44
30 13 6 43 23 68 38 25 16 77 45 115 66 39 21 76 43 83 48 6 6 12 7 12 4 0 -4
12 1 28 11 31 22 217 112 242 118 3 1 23 9 45 19 22 10 63 26 90 37 28 11 59
24 70 29 36 17 350 124 395 135 8 2 60 16 115 30 55 15 105 28 110 30 6 1 21
5 35 8 14 4 36 9 50 11 14 2 71 14 128 25 57 12 107 19 112 16 6 -4 10 -3 10
2 0 8 36 14 98 16 17 1 32 4 32 7 0 3 15 5 33 5 17 -1 37 1 42 4 6 3 24 6 40
7 17 1 62 5 100 8 160 15 240 19 425 19 107 0 245 -3 305 -8 61 -4 127 -7 148
-8 20 -1 37 -4 37 -7 0 -3 15 -5 33 -6 32 -1 101 -8 187 -20 25 -3 51 -6 58
-7 6 0 12 -3 12 -6 0 -3 12 -6 28 -7 27 0 93 -10 122 -19 8 -2 31 -6 50 -9 19
-4 80 -17 135 -31 127 -32 119 -30 190 -50 33 -9 76 -20 95 -25 49 -13 285
-97 312 -111 13 -7 23 -11 23 -10 0 4 40 -11 67 -25 15 -8 29 -14 30 -14 5 2
81 -28 168 -68 25 -11 52 -23 60 -26 71 -28 419 -224 545 -306 12 -8 41 -26
64 -39 22 -14 41 -28 41 -33 0 -4 5 -8 10 -8 11 0 264 -185 293 -214 8 -9 18
-16 21 -16 3 0 14 -8 25 -17 10 -10 34 -31 53 -48 159 -138 320 -293 430 -416
32 -35 68 -75 81 -89 13 -14 43 -50 68 -80 24 -30 50 -61 57 -69 12 -12 105
-135 142 -187 17 -25 169 -252 187 -280 29 -45 109 -181 120 -204 7 -14 33
-63 58 -109 25 -46 45 -87 45 -92 0 -4 -27 -50 -61 -101 -55 -85 -194 -348
-183 -348 2 0 -2 -10 -10 -22 -11 -19 -39 -91 -41 -108 0 -3 -3 -9 -7 -15 -3
-5 -12 -30 -19 -55 -16 -56 -14 -52 -22 -70 -3 -8 -13 -44 -22 -80 -9 -36 -19
-72 -22 -80 -3 -8 -7 -25 -9 -38 -1 -12 -7 -46 -13 -75 -18 -91 -26 -138 -36
-237 -4 -30 -9 -71 -12 -90 -4 -19 -8 -543 -10 -1165 l-3 -1130 30 -39 c17
-22 30 -36 30 -32 0 5 7 3 15 -4 12 -10 104 -13 415 -13 392 1 400 2 435 23
70 44 71 156 1 200 -33 20 -47 21 -355 21 -308 0 -361 4 -321 29 7 4 8 10 4
13 -19 11 -8 2020 12 2152 2 17 7 50 9 75 16 140 100 469 142 559 9 18 16 39
16 47 0 8 4 14 8 14 4 0 13 20 20 45 7 25 17 45 21 45 4 0 8 9 8 20 0 11 5 20
10 20 6 0 10 9 10 20 0 11 3 20 8 20 4 0 13 15 21 33 32 73 162 265 246 362
46 54 138 146 202 203 63 56 219 172 232 172 3 0 6 -1502 6 -3337 -1 -2595 -3
-3343 -13 -3360 -7 -12 -26 -32 -43 -44 -29 -20 -43 -22 -183 -23 -171 0 -207
9 -233 58 -15 28 -17 137 -17 1166 l-1 1135 -22 35 c-13 19 -23 31 -23 27 0
-5 -7 -1 -16 7 -20 21 -88 21 -123 0 -44 -26 -54 -52 -58 -154 -4 -102 -16
-135 -124 -325 -21 -38 -45 -81 -51 -95 -7 -14 -21 -34 -30 -44 -10 -11 -18
-24 -18 -29 0 -6 -17 -35 -37 -66 -21 -31 -42 -63 -48 -72 -17 -26 -54 -83
-67 -103 -59 -86 -277 -366 -321 -411 -6 -6 -40 -43 -73 -81 -146 -164 -422
-423 -565 -530 -15 -10 -69 -51 -120 -90 -194 -146 -462 -314 -649 -407 -36
-18 -66 -35 -68 -39 -2 -5 -8 -8 -12 -8 -5 0 -53 -21 -107 -47 -54 -25 -107
-48 -117 -50 -11 -2 -28 -11 -38 -20 -10 -9 -18 -13 -18 -8 0 4 -6 2 -13 -4
-8 -6 -17 -8 -20 -4 -4 3 -7 1 -7 -5 0 -7 -3 -11 -7 -10 -5 1 -24 -4 -43 -11
-19 -8 -39 -15 -45 -16 -5 -2 -35 -13 -65 -25 -111 -44 -426 -140 -492 -150
-4 -1 -22 -6 -40 -11 -18 -6 -40 -12 -48 -14 -28 -8 -225 -46 -255 -51 -16 -2
-46 -6 -65 -10 -91 -15 -127 -19 -325 -40 -164 -17 -515 -22 -700 -11 -175 11
-300 23 -300 27 0 1 -13 4 -30 5 -16 2 -48 6 -70 9 -22 3 -60 8 -85 11 -25 3
-51 8 -59 11 -8 3 -30 7 -50 10 -75 11 -117 20 -361 79 -8 2 -69 20 -135 40
-66 20 -136 41 -155 47 -19 5 -41 15 -47 20 -7 6 -13 7 -13 2 0 -4 -5 -3 -12
4 -7 7 -21 12 -33 12 -12 0 -25 4 -31 10 -5 5 -18 11 -29 13 -11 2 -33 10 -50
17 -16 7 -34 14 -40 16 -5 1 -28 10 -50 20 -22 10 -43 17 -47 16 -5 -1 -8 2
-8 6 0 5 -6 9 -13 9 -15 0 -328 153 -432 211 -134 75 -275 161 -345 211 -21
14 -48 33 -61 41 -51 33 -274 203 -277 211 -2 5 -8 9 -12 9 -5 0 -23 12 -39
27 -16 16 -53 48 -82 73 -143 121 -326 303 -476 476 -80 92 -88 101 -109 129
-10 15 -32 43 -49 62 -52 61 -191 258 -269 382 -65 103 -94 152 -140 236 -6
11 -17 28 -25 38 -8 9 -10 17 -5 17 5 0 5 4 -1 8 -15 10 -127 232 -118 232 5
0 3 4 -3 8 -9 6 -21 32 -70 147 -6 17 -13 35 -14 40 -1 6 -6 15 -11 22 -6 6
-14 24 -19 40 -5 15 -21 60 -35 98 -88 231 -177 546 -220 775 -3 14 -8 38 -11
54 -4 16 -7 73 -9 126 -2 106 -17 145 -64 172 -32 18 -91 15 -126 -8 -59 -38
-55 84 -55 -1846 0 -1387 -3 -1778 -13 -1797 -28 -56 -53 -63 -203 -63 -77 0
-151 0 -167 1 -16 1 -42 15 -65 35 l-37 34 -1 2031 c-1 1117 -5 2042 -8 2056
-6 24 -63 85 -80 85 -4 0 -27 15 -49 33 -105 82 -165 168 -209 301 -21 60 -21
77 -23 1236 0 646 -5 1186 -9 1200 -11 32 -50 68 -81 76 -58 14 -125 -19 -145
-71 -7 -18 -10 -422 -10 -1193 1 -1245 1 -1237 50 -1368 57 -153 156 -288 276
-375 l41 -30 -1 -1952 c-1 -1074 2 -1979 5 -2013 3 -33 18 -86 32 -117 27 -59
101 -147 123 -147 8 0 14 -4 14 -9 0 -17 114 -53 173 -56 31 -1 60 -5 63 -8 4
-4 14 -3 23 2 9 4 32 6 51 4 45 -4 41 -4 141 1 67 3 100 10 144 32 81 38 154
115 185 195 l25 64 0 1308 c0 1124 2 1303 14 1275 15 -37 16 -39 61 -158 17
-47 40 -104 51 -127 10 -24 19 -45 19 -48 0 -2 28 -62 61 -132 34 -70 62 -134
62 -140 0 -7 4 -13 7 -13 4 0 13 -15 21 -32 7 -18 15 -35 18 -38 3 -3 17 -27
31 -55 14 -27 49 -89 78 -136 28 -48 52 -92 52 -97 0 -6 3 -12 8 -14 4 -1 23
-28 42 -58 314 -497 785 -998 1260 -1341 41 -29 77 -57 78 -61 2 -5 9 -8 15
-8 7 0 24 -10 39 -23 14 -12 46 -34 70 -48 23 -15 83 -52 131 -83 49 -31 90
-56 91 -56 2 0 46 -24 97 -53 91 -51 290 -151 394 -197 28 -12 64 -28 80 -36
55 -24 207 -82 215 -81 3 0 16 -6 30 -13 14 -8 27 -15 30 -15 39 -10 68 -20
79 -29 8 -6 17 -10 20 -9 9 3 53 -7 76 -17 16 -8 61 -21 118 -36 4 -1 8 -2 10
-4 1 -1 9 -3 17 -5 36 -8 116 -28 130 -33 8 -3 18 -6 23 -7 4 -2 10 -4 15 -5
4 -1 10 -2 14 -1 4 0 34 -6 65 -14 32 -9 69 -18 83 -20 14 -3 36 -7 50 -10 26
-5 126 -23 172 -31 16 -2 43 -6 60 -9 18 -3 53 -8 78 -10 25 -3 65 -8 90 -11
48 -7 53 -8 195 -20 182 -16 739 -9 870 11 17 3 57 7 90 10 33 3 71 7 85 10
14 3 45 8 70 11 282 36 750 160 1058 281 192 74 519 226 534 248 4 5 8 6 8 2
0 -5 13 1 29 12 16 12 32 21 35 21 3 0 40 20 82 45 41 25 79 45 84 45 5 0 10
4 12 8 2 4 32 26 68 47 36 21 67 42 70 45 3 4 15 12 28 19 25 13 254 175 287
202 11 10 47 39 81 66 63 50 129 106 192 160 20 18 41 33 45 33 5 0 5 5 2 10
-3 6 -1 10 4 10 21 0 374 363 455 468 11 15 29 36 39 47 10 11 37 45 60 75 23
30 44 57 47 60 29 27 254 358 314 462 15 27 31 50 34 52 4 2 6 -376 5 -840 0
-499 3 -859 8 -881 6 -21 11 -43 12 -48 7 -31 63 -108 103 -144 54 -48 170
-94 229 -92 6 0 34 2 63 4 29 2 56 -1 58 -5 3 -5 10 -5 17 -1 17 11 117 9 117
-2 0 -6 3 -6 8 0 4 6 24 11 44 10 21 0 38 3 38 6 0 4 15 10 33 13 50 10 136
76 178 136 75 107 69 -214 67 3643 l-3 3467 -32 32 c-51 50 -103 48 -212 -8
-96 -51 -311 -191 -311 -204 0 -5 -9 -11 -20 -15 -11 -3 -79 -64 -152 -135
-72 -72 -133 -129 -134 -127 -3 3 -40 70 -75 134 -91 167 -301 487 -406 618
-5 6 -26 32 -48 60 -65 81 -69 86 -90 109 -11 12 -47 54 -80 92 -110 127 -352
364 -484 474 -30 25 -61 52 -70 61 -58 57 -475 354 -561 399 -14 7 -27 16 -30
19 -5 6 -35 24 -100 58 -19 10 -37 21 -40 24 -3 4 -61 35 -130 70 -69 35 -126
67 -128 71 -2 4 -9 8 -16 8 -7 0 -55 20 -107 44 -97 45 -364 154 -396 161 -22
5 -171 54 -198 65 -17 7 -102 31 -127 36 -5 1 -9 2 -10 4 -2 1 -10 3 -18 5 -8
1 -35 8 -60 15 -25 7 -53 14 -63 16 -10 2 -27 6 -37 9 -10 3 -29 8 -42 10 -13
3 -36 8 -53 12 -16 3 -37 7 -45 9 -8 1 -26 5 -40 8 -29 7 -118 23 -174 32 -21
3 -46 7 -55 9 -9 2 -44 6 -76 10 -33 4 -69 9 -80 11 -11 2 -51 6 -90 10 -38 3
-92 8 -120 10 -54 6 -621 14 -627 9z"/>
<path d="M5996 9963 c-1 -1 -67 -5 -146 -9 -80 -3 -163 -8 -185 -9 -22 -2 -52
-3 -66 -4 -30 -1 -29 11 -14 -236 3 -55 8 -147 10 -205 3 -58 7 -148 10 -200
3 -52 7 -138 10 -190 2 -52 5 -97 6 -100 1 -3 1 -9 0 -13 -1 -5 4 -5 10 -2 6
4 59 9 118 11 58 2 112 6 119 9 9 3 11 23 7 72 -3 38 -7 115 -10 173 l-4 105
92 3 c96 4 208 9 218 11 3 1 4 20 2 44 -2 23 -5 69 -6 102 l-3 60 -59 -1 c-33
-1 -104 -4 -157 -8 l-98 -6 -1 27 c0 16 -2 49 -4 75 -2 27 0 50 4 52 7 4 96
10 296 20 39 2 73 4 77 5 4 0 5 31 3 69 -2 37 -4 86 -4 110 l-1 43 -111 -3
c-61 -2 -111 -4 -113 -5z"/>
<path d="M6865 9801 c-3 -3 -13 -6 -22 -7 -9 -2 -45 -17 -81 -35 -77 -38 -157
-116 -195 -191 -27 -54 -59 -175 -50 -191 3 -5 6 -32 8 -60 3 -59 12 -91 46
-162 25 -53 133 -169 168 -180 12 -3 21 -11 21 -16 0 -5 9 -9 19 -9 11 0 22
-4 25 -9 16 -25 208 -38 276 -18 71 20 134 54 183 97 51 45 117 137 117 164 0
9 4 16 8 16 5 0 9 6 10 13 0 6 4 23 8 37 14 51 8 193 -10 250 -46 137 -156
245 -296 290 -54 17 -221 25 -235 11z m202 -192 c42 -20 81 -67 91 -109 16
-69 4 -168 -30 -240 -18 -37 -96 -110 -118 -110 -10 0 -21 -4 -24 -9 -3 -5
-25 -5 -48 0 -24 4 -46 8 -50 9 -14 0 -69 54 -82 79 -8 14 -16 41 -19 58 -3
17 -8 37 -12 42 -3 6 -3 11 2 11 4 0 9 21 9 48 3 86 65 190 136 226 40 21 97
18 145 -5z"/>
<path d="M4750 9747 c0 -6 -2 -8 -5 -5 -3 3 -40 -7 -83 -22 -66 -23 -77 -30
-79 -51 0 -13 -2 -26 -2 -29 -1 -3 -4 -113 -7 -245 -6 -315 -11 -479 -14 -485
-1 -3 -1 -9 0 -15 6 -32 5 -107 -2 -112 -5 -2 -4 -11 2 -18 7 -9 7 -15 1 -19
-9 -6 -7 -43 2 -52 2 -2 59 16 128 40 l124 43 -2 96 -3 95 43 16 c169 61 188
66 200 54 24 -25 77 -96 77 -103 0 -3 7 -13 15 -22 14 -13 27 -10 128 23 61
21 115 38 119 39 3 0 9 3 13 7 8 7 -3 24 -56 89 -170 204 -263 317 -277 334
-10 11 -54 66 -99 121 -45 56 -88 108 -95 115 -7 8 -32 37 -55 65 -38 46 -73
66 -73 41z m40 -313 c0 -8 5 -14 10 -14 6 0 16 -12 23 -27 6 -16 17 -34 23
-40 7 -7 22 -29 35 -50 13 -21 28 -41 33 -45 6 -4 8 -8 4 -8 -5 0 2 -10 13
-21 20 -20 20 -22 4 -31 -9 -6 -22 -11 -28 -12 -7 -2 -23 -7 -37 -13 -56 -23
-80 -24 -81 -6 0 10 -2 34 -4 53 -13 173 -15 241 -5 235 5 -3 10 -13 10 -21z"/>
<path d="M3846 9344 c-9 -8 -16 -13 -16 -10 0 3 -9 -2 -21 -12 -42 -35 -63
-50 -268 -196 l-209 -150 31 -45 c17 -25 36 -51 42 -57 5 -7 33 -44 60 -84 28
-40 70 -100 95 -135 25 -34 97 -135 160 -224 161 -226 154 -219 185 -201 45
28 300 214 303 222 2 4 8 8 12 8 5 0 38 21 73 48 68 50 93 67 116 81 12 8 9
18 -17 58 -17 26 -40 57 -50 69 -11 11 -25 30 -31 42 -6 12 -15 22 -20 22 -4
0 -30 -17 -58 -37 -28 -21 -59 -44 -70 -51 -10 -7 -60 -42 -110 -78 -83 -59
-94 -64 -108 -51 -8 9 -15 18 -15 22 0 4 -6 12 -12 20 -44 46 -46 50 -27 74
10 12 20 22 24 21 3 0 29 17 58 38 28 21 74 54 102 73 81 56 80 47 14 138 -33
44 -62 81 -65 81 -6 0 -55 -33 -84 -57 -30 -24 -175 -125 -185 -129 -13 -5
-79 91 -71 104 3 5 24 22 48 38 24 16 45 31 48 34 16 17 80 60 88 60 6 0 12 3
14 8 2 4 27 25 56 46 28 21 52 40 52 42 0 6 -24 48 -31 54 -3 3 -21 27 -40 55
-51 75 -55 78 -73 59z"/>
<path d="M8057 9344 c-1 -1 -21 -4 -45 -8 -24 -3 -47 -8 -53 -11 -5 -4 -18 -8
-29 -10 -38 -7 -139 -76 -179 -121 -41 -47 -75 -111 -97 -182 -13 -42 -13
-190 0 -242 9 -36 68 -150 77 -150 5 0 9 -5 9 -11 0 -17 81 -88 130 -113 78
-41 144 -56 238 -52 75 2 98 8 163 38 377 174 343 716 -53 839 -34 11 -69 19
-77 18 -9 -1 -18 0 -21 1 -6 3 -60 7 -63 4z m134 -205 c68 -21 119 -99 119
-182 0 -54 -25 -122 -53 -146 -10 -7 -17 -17 -17 -22 0 -15 -71 -77 -107 -94
-74 -35 -158 -15 -211 51 -28 35 -33 50 -33 104 0 122 94 255 206 291 31 11
55 10 96 -2z"/>
<path d="M9085 8688 c-16 -13 -40 -33 -52 -45 -13 -13 -26 -23 -28 -23 -3 0
-13 -8 -23 -17 -32 -31 -94 -83 -98 -83 -2 0 -12 -8 -22 -17 -10 -10 -37 -33
-59 -51 -23 -19 -51 -41 -61 -50 -11 -10 -39 -33 -62 -52 -24 -19 -53 -44 -66
-55 -13 -11 -36 -30 -51 -42 -15 -12 -37 -30 -48 -40 -11 -10 -41 -36 -67 -57
l-48 -38 30 -37 c17 -20 50 -58 73 -85 23 -27 43 -52 45 -56 3 -9 70 -85 117
-135 104 -108 272 -161 425 -133 99 18 213 91 288 184 110 137 119 375 21 522
-16 24 -29 45 -29 48 0 3 -10 15 -22 28 -13 13 -37 41 -55 62 -17 22 -39 49
-50 61 -44 52 -89 107 -96 119 -11 20 -28 17 -62 -8z m55 -339 c8 -12 25 -32
37 -45 38 -39 56 -98 50 -163 -6 -70 -31 -111 -99 -166 -64 -51 -99 -65 -162
-65 -68 1 -124 31 -182 99 l-45 54 28 23 c15 12 98 81 183 152 85 72 160 131
165 131 6 1 17 -9 25 -20z"/>
<path d="M2983 8543 c-12 -2 -27 -11 -33 -19 -7 -8 -16 -14 -21 -14 -19 0
-118 -77 -179 -141 -73 -75 -93 -99 -85 -99 3 0 -3 -17 -14 -37 -26 -53 -23
-179 7 -245 25 -57 92 -126 146 -152 49 -23 121 -27 164 -10 18 7 35 13 37 13
12 1 74 36 118 67 26 19 52 34 57 34 6 0 10 4 10 8 0 5 21 19 46 31 38 20 50
21 71 12 21 -10 24 -16 19 -39 -12 -51 -166 -172 -258 -201 -30 -10 -36 -16
-29 -29 39 -78 51 -106 51 -118 0 -8 3 -14 8 -14 4 0 15 -20 25 -44 17 -41 19
-43 42 -32 14 6 25 15 25 19 0 5 5 5 10 2 6 -3 10 -2 10 3 0 6 10 12 23 16 28
7 136 88 195 146 42 41 102 122 102 136 0 4 7 15 16 25 16 17 20 33 32 124 7
46 -5 106 -26 139 -4 6 -7 14 -7 17 0 13 -63 76 -100 100 -56 36 -92 47 -152
43 -64 -3 -130 -34 -257 -119 -78 -52 -105 -65 -130 -63 -26 3 -31 7 -34 33
-2 20 5 39 20 56 33 37 126 102 176 124 23 10 42 22 42 28 0 5 -10 30 -23 56
-13 25 -24 48 -24 51 -1 15 -45 100 -51 99 -4 -1 -17 -4 -29 -6z"/>
<path d="M1045 8490 c-16 -9 -38 -33 -49 -54 -18 -36 -18 -81 -19 -1035 0
-921 2 -1000 17 -1033 18 -37 65 -68 104 -68 52 0 109 42 120 88 2 10 4 467 5
1017 2 1089 5 1035 -53 1077 -34 24 -89 28 -125 8z"/>
<path d="M561 8489 c-27 -11 -47 -33 -62 -68 -14 -36 -14 -2006 0 -2045 13
-33 49 -65 73 -66 9 0 19 -4 23 -9 7 -12 53 1 88 23 53 35 51 4 51 1082 0
1098 4 1035 -60 1074 -34 21 -74 25 -113 9z"/>
<path d="M5908 8415 c-2 -1 -37 -5 -78 -9 -41 -3 -89 -8 -105 -10 -17 -2 -50
-7 -75 -10 -25 -3 -56 -8 -70 -12 -14 -3 -36 -7 -50 -9 -14 -2 -25 -4 -25 -5
0 -2 -34 -10 -60 -13 -12 -2 -25 -6 -30 -9 -8 -4 -46 -13 -95 -22 -3 -1 -11
-5 -17 -9 -7 -5 -13 -6 -13 -3 0 3 -22 -3 -50 -14 -27 -11 -50 -18 -50 -15 0
2 -12 -2 -27 -10 -15 -8 -30 -12 -35 -9 -4 3 -8 0 -8 -5 0 -6 -7 -11 -16 -11
-41 0 -344 -149 -489 -240 -92 -58 -201 -136 -299 -214 -52 -41 -292 -279
-338 -336 -21 -25 -51 -63 -68 -85 -17 -22 -36 -47 -43 -55 -7 -9 -32 -45 -56
-80 -25 -36 -49 -68 -54 -71 -18 -13 10 -17 116 -17 89 0 111 3 122 16 250
310 317 377 585 585 37 30 238 157 247 157 3 0 22 10 42 22 20 13 38 23 41 24
3 0 37 15 75 33 39 18 88 41 110 51 49 22 213 80 240 86 11 2 31 8 45 14 25
10 176 44 240 54 19 3 46 8 60 11 110 23 484 39 508 22 8 -6 12 -5 12 2 0 7 5
9 11 5 6 -3 41 -8 77 -10 37 -2 78 -6 92 -9 14 -3 45 -8 70 -10 25 -2 56 -7
70 -10 14 -3 36 -8 50 -11 41 -7 90 -18 123 -27 6 -2 26 -7 42 -11 44 -11 259
-84 302 -103 21 -9 40 -17 43 -18 11 -1 225 -109 230 -115 3 -3 20 -12 38 -19
17 -8 32 -17 32 -22 0 -5 5 -9 11 -9 9 0 158 -97 209 -137 157 -120 310 -267
420 -403 25 -30 51 -59 58 -63 6 -4 12 -12 12 -18 0 -5 5 -15 10 -22 6 -7 18
-21 28 -33 15 -18 28 -20 124 -20 58 1 110 4 113 8 8 8 -163 248 -177 248 -4
0 -8 5 -8 10 0 19 -244 271 -329 340 -23 19 -59 50 -79 67 -20 18 -40 33 -44
33 -5 0 -17 8 -28 18 -11 9 -29 25 -40 35 -11 9 -22 17 -25 17 -9 0 -120 74
-123 83 -2 4 -8 7 -13 7 -5 0 -28 12 -52 27 -94 60 -407 203 -443 203 -8 0
-14 5 -14 12 0 6 -3 9 -6 5 -3 -3 -18 -1 -33 5 -34 13 -147 48 -191 58 -19 5
-44 10 -55 13 -83 20 -204 43 -280 52 -27 3 -66 8 -85 11 -39 5 -427 14 -432
9z"/>
<path d="M6797 7034 c-1 -1 -47 -4 -102 -8 -137 -10 -238 -21 -275 -31 -8 -2
-31 -7 -50 -10 -117 -18 -347 -75 -406 -100 -19 -8 -34 -12 -34 -10 0 5 -99
-29 -145 -50 -16 -8 -33 -11 -37 -9 -4 3 -8 0 -8 -5 0 -6 -3 -10 -7 -9 -8 1
-28 -6 -98 -37 -22 -10 -42 -19 -45 -19 -3 -1 -50 -24 -105 -52 -115 -58 -228
-125 -334 -198 -40 -28 -81 -55 -89 -61 -9 -5 -22 -14 -29 -20 -15 -12 -26
-21 -83 -65 -106 -83 -361 -332 -430 -420 -46 -58 -90 -100 -106 -101 -8 -1
-20 -2 -26 -3 -34 -5 -72 22 -123 84 -30 38 -55 72 -55 75 0 10 -222 228 -265
260 -22 17 -46 35 -53 42 -7 7 -26 20 -42 30 -17 9 -30 21 -30 25 0 4 -7 8
-15 8 -8 0 -15 5 -15 10 0 6 -7 10 -15 10 -8 0 -15 5 -15 10 0 6 -5 10 -10 10
-6 0 -29 12 -51 26 -119 75 -402 191 -539 220 -19 4 -39 9 -45 10 -248 52
-318 46 -350 -29 -34 -83 11 -155 109 -173 16 -3 36 -9 45 -13 9 -5 21 -9 26
-10 19 -1 85 -34 85 -43 0 -4 6 -8 14 -8 17 0 134 -112 167 -160 160 -232 225
-545 177 -855 -20 -131 -83 -322 -123 -375 -6 -8 -17 -27 -24 -41 -7 -15 -24
-38 -37 -52 -13 -14 -24 -29 -24 -32 0 -5 -62 -67 -99 -97 -28 -24 -124 -78
-147 -83 -151 -34 -181 -60 -180 -158 1 -94 9 -100 120 -92 50 3 109 10 131
15 22 5 58 11 79 14 57 9 198 45 221 57 12 6 30 12 40 14 11 2 21 4 23 5 1 2
5 3 10 5 66 18 290 129 376 186 32 22 62 39 66 39 5 0 10 3 12 8 2 4 26 24 53
45 134 100 322 289 376 375 25 42 82 93 96 88 7 -3 13 -1 13 4 0 5 14 4 33 -2
32 -10 56 -33 157 -149 127 -146 307 -314 455 -423 44 -33 97 -72 117 -88 20
-15 40 -28 43 -28 3 0 32 -17 63 -38 116 -78 329 -187 489 -251 91 -37 302
-108 343 -116 8 -2 15 -4 15 -5 0 -1 7 -3 15 -5 38 -8 68 -15 110 -25 25 -6
57 -13 73 -16 48 -7 81 -13 107 -19 14 -3 48 -7 75 -10 28 -4 61 -8 75 -10
130 -21 571 -21 679 0 13 2 49 7 80 11 31 3 70 8 86 11 17 2 41 6 55 8 14 2
25 4 25 5 0 1 14 4 30 6 17 3 53 11 81 19 28 8 60 16 72 18 12 2 24 6 28 9 3
4 12 4 20 1 8 -3 14 1 14 8 0 7 3 10 6 7 6 -7 95 23 221 73 77 30 299 136 318
152 23 18 158 97 166 97 5 0 9 4 9 8 0 4 15 16 33 26 17 11 53 35 79 55 25 20
61 47 80 61 151 114 428 387 513 505 11 15 27 35 36 44 8 9 33 41 54 71 22 30
43 57 47 58 5 2 8 8 8 14 0 6 12 27 28 47 45 60 70 114 68 151 -2 32 -46 114
-71 132 -5 4 -6 8 -2 8 5 0 2 7 -6 15 -8 8 -25 31 -38 52 -13 21 -25 40 -29
43 -3 3 -25 32 -49 65 -24 33 -50 67 -58 75 -7 8 -32 38 -55 65 -87 103 -321
329 -407 393 -20 15 -38 30 -41 33 -4 6 -225 154 -276 186 -10 7 -71 38 -134
70 -63 32 -116 61 -118 66 -2 4 -11 7 -21 7 -9 0 -21 4 -26 9 -17 14 -258 107
-304 116 -9 2 -36 10 -61 18 -49 17 -199 56 -240 63 -14 3 -36 7 -50 9 -14 3
-36 8 -50 10 -14 3 -45 8 -70 11 -25 3 -56 7 -70 9 -68 11 -394 26 -403 19z
m353 -268 c19 -2 35 -5 35 -6 0 -1 14 -3 30 -5 63 -6 170 -22 170 -25 0 -1 9
-3 20 -5 11 -2 31 -6 45 -9 14 -3 34 -8 45 -10 173 -38 474 -154 627 -243 31
-18 61 -33 67 -33 6 0 11 -4 11 -10 0 -5 6 -10 13 -10 7 0 23 -9 35 -20 12
-11 28 -20 36 -20 8 0 16 -4 18 -8 2 -5 32 -28 67 -51 228 -155 458 -380 639
-630 59 -81 63 -89 59 -133 -4 -50 -39 -105 -166 -263 -69 -86 -268 -289 -339
-345 -24 -19 -58 -47 -75 -62 -18 -15 -35 -28 -38 -28 -3 0 -19 -11 -35 -25
-16 -14 -32 -25 -36 -25 -5 0 -17 -9 -27 -19 -10 -10 -30 -25 -44 -32 -14 -8
-67 -39 -118 -69 -51 -30 -95 -53 -98 -52 -2 2 -7 0 -10 -5 -8 -11 -212 -106
-228 -106 -7 0 -13 -3 -13 -7 0 -4 -6 -7 -12 -7 -7 -1 -50 -15 -95 -31 -75
-27 -244 -75 -303 -86 -14 -2 -61 -11 -105 -19 -71 -14 -117 -20 -255 -33 -50
-4 -346 -4 -405 1 -27 2 -75 7 -105 10 -202 24 -350 55 -545 117 -55 18 -102
33 -105 33 -7 2 -52 20 -130 52 -119 50 -324 158 -430 228 -58 39 -109 72
-114 74 -5 2 -17 11 -27 20 -9 9 -24 21 -31 26 -131 99 -356 312 -441 417
-162 200 -163 201 -155 271 1 9 5 17 10 17 5 0 7 4 4 8 -2 4 8 22 22 39 15 17
36 44 47 59 61 85 282 319 376 398 64 54 244 186 319 235 74 48 277 160 320
177 8 3 35 15 60 26 114 51 345 131 417 144 15 3 30 7 35 10 4 3 18 7 30 10
133 26 181 33 188 29 5 -3 10 -1 12 5 1 5 32 11 68 14 36 3 65 5 65 6 0 1 31
4 70 6 38 3 71 7 73 8 4 4 409 -3 452 -8z m-3574 -542 c190 -119 375 -278 489
-419 22 -28 43 -53 48 -56 4 -3 36 -47 72 -99 l65 -93 -22 -36 c-27 -45 -88
-132 -102 -147 -6 -7 -27 -31 -46 -55 -62 -77 -212 -223 -300 -292 -47 -37
-90 -72 -97 -77 -7 -6 -24 -15 -38 -22 -14 -6 -25 -15 -25 -20 0 -4 -7 -8 -15
-8 -8 0 -15 -4 -15 -9 0 -5 -8 -11 -17 -14 -10 -4 -38 -18 -63 -32 -41 -23
-46 -24 -57 -9 -12 16 -2 49 20 65 5 3 8 8 7 10 -1 2 3 17 9 32 6 16 11 33 11
38 0 5 4 9 10 9 5 0 9 3 8 8 -1 4 9 39 22 77 13 39 25 75 26 80 1 6 10 42 19
80 25 104 30 163 29 345 -1 131 -5 185 -23 265 -12 55 -23 105 -24 110 -2 6
-6 15 -9 21 -4 6 -9 22 -12 37 -5 31 -73 193 -92 221 -15 23 -8 46 16 46 9 0
57 -25 106 -56z"/>
<path d="M7969 6128 c-30 -34 -72 -81 -94 -104 -22 -24 -60 -66 -85 -95 -25
-29 -58 -67 -75 -85 -16 -17 -47 -51 -69 -75 -84 -95 -172 -194 -195 -218 -13
-14 -49 -55 -80 -90 -31 -35 -77 -86 -103 -114 -27 -27 -48 -51 -48 -53 0 -2
-12 -16 -27 -32 -16 -15 -55 -59 -88 -97 -33 -37 -65 -73 -71 -78 -7 -8 19
-39 85 -103 l95 -93 25 27 c24 25 139 154 179 199 19 23 144 162 176 196 12
13 53 58 91 102 39 43 81 90 95 105 14 15 52 58 85 95 33 38 71 80 85 95 14
15 52 58 85 95 68 76 112 125 157 173 l30 34 -92 89 c-51 49 -96 89 -100 89
-3 0 -31 -28 -61 -62z"/>
<path d="M7291 6141 c-12 -14 -51 -57 -85 -95 -33 -38 -73 -82 -87 -98 -15
-16 -51 -56 -80 -89 -30 -34 -67 -76 -84 -94 -16 -17 -61 -67 -100 -111 -38
-43 -83 -92 -98 -109 -16 -16 -52 -56 -80 -88 -27 -32 -66 -75 -86 -96 -20
-21 -65 -72 -101 -112 -36 -41 -74 -83 -85 -94 -11 -12 -37 -40 -57 -64 l-37
-43 91 -89 c50 -49 93 -89 96 -89 6 0 102 98 102 104 0 2 17 21 38 43 20 21
64 69 97 107 33 37 69 78 80 90 73 81 163 181 180 200 70 79 119 133 185 206
41 46 87 97 101 112 15 16 51 57 82 91 30 34 75 84 100 111 l45 50 -73 70
c-40 39 -84 81 -97 92 l-23 22 -24 -27z"/>
<path d="M6545 6083 c-28 -32 -71 -80 -96 -108 -26 -27 -70 -77 -99 -110 -29
-33 -60 -67 -69 -76 -9 -9 -29 -31 -45 -50 -34 -39 -78 -88 -196 -218 -47 -51
-94 -104 -105 -118 -11 -13 -38 -44 -60 -67 -22 -24 -69 -76 -105 -116 -36
-41 -78 -88 -95 -106 -16 -17 -41 -44 -54 -59 l-23 -28 88 -88 c49 -49 93 -89
98 -89 5 0 23 15 40 34 57 62 183 201 227 251 46 52 98 110 138 154 12 14 48
54 80 89 31 35 70 78 86 96 17 18 59 65 95 105 36 41 77 86 91 102 14 15 52
57 84 93 31 36 69 78 84 94 14 15 39 43 55 62 l29 33 -91 88 c-50 49 -95 89
-99 89 -5 0 -31 -26 -58 -57z"/>
<path d="M7766 3775 c-98 -89 -352 -275 -375 -275 -6 0 -11 -4 -11 -8 0 -12
-284 -152 -396 -195 -99 -39 -310 -103 -365 -110 -19 -3 -34 -6 -34 -7 0 -2
-22 -6 -70 -14 -22 -3 -53 -9 -68 -12 -28 -6 -58 -9 -182 -19 -138 -12 -387
-7 -505 10 -25 4 -56 8 -70 10 -39 5 -92 15 -120 22 -14 3 -32 7 -40 8 -83 13
-309 81 -395 120 -16 7 -50 21 -75 31 -104 41 -377 193 -450 251 -8 6 -47 36
-86 65 -39 29 -94 73 -121 97 l-50 44 -135 1 c-119 1 -135 -1 -125 -14 15 -21
155 -156 200 -193 22 -18 51 -42 65 -55 15 -12 51 -39 80 -59 28 -20 52 -40
52 -45 0 -4 7 -8 15 -8 8 0 24 -9 34 -19 10 -10 28 -22 40 -26 12 -3 21 -11
21 -16 0 -5 4 -9 9 -9 5 0 39 -18 75 -40 60 -37 224 -123 236 -125 3 0 21 -8
40 -17 93 -42 246 -101 270 -104 8 -1 35 -8 60 -17 25 -9 60 -19 79 -22 19 -3
43 -10 53 -16 11 -6 22 -8 25 -5 3 2 16 1 30 -5 13 -5 39 -11 56 -13 18 -3 41
-7 52 -9 28 -6 151 -26 205 -32 132 -17 479 -11 635 10 182 24 421 82 552 133
29 11 54 17 57 14 4 -3 6 -1 6 5 0 5 7 10 15 10 44 0 476 225 542 283 7 5 15
10 17 10 3 0 27 16 53 36 27 20 61 45 77 57 16 12 37 29 46 37 10 8 41 35 69
58 55 47 179 167 198 192 10 13 -5 15 -124 15 l-135 0 -32 -30z"/>
<path d="M8708 3777 c-15 -18 -44 -51 -65 -74 -21 -23 -47 -52 -58 -66 -34
-41 -119 -137 -149 -170 -16 -18 -45 -52 -65 -77 -20 -25 -43 -51 -51 -58 -13
-10 -12 -15 10 -33 14 -12 54 -47 90 -79 36 -31 85 -75 110 -96 25 -22 61 -53
80 -70 19 -17 94 -82 165 -144 72 -62 132 -116 135 -119 3 -4 28 -25 56 -48
l51 -42 54 61 c30 33 62 70 72 82 28 32 99 115 153 176 26 30 55 63 64 73 8
10 32 37 52 60 44 49 46 59 16 80 -13 8 -48 38 -78 66 -30 28 -58 51 -62 51
-4 0 -15 -10 -25 -23 -26 -33 -112 -133 -151 -175 -17 -19 -44 -50 -59 -68
-15 -19 -31 -34 -37 -34 -6 1 -33 20 -60 45 l-48 44 19 25 c21 26 113 131 170
195 l32 36 -37 35 c-35 32 -50 45 -106 90 -16 13 -20 12 -32 -4 -14 -20 -106
-125 -169 -193 l-40 -43 -48 41 c-54 47 -57 37 39 145 34 38 87 98 118 134
l56 65 -33 29 c-17 16 -54 49 -80 73 -27 23 -52 43 -55 43 -4 -1 -19 -15 -34
-33z"/>
<path d="M3548 3601 c-26 -9 -50 -19 -54 -23 -4 -5 -14 -8 -21 -8 -8 0 -33 -8
-56 -19 -67 -29 -190 -74 -204 -74 -7 0 -13 -4 -13 -9 0 -4 -3 -7 -7 -6 -5 1
-21 -4 -38 -11 -16 -6 -55 -21 -85 -32 -30 -12 -64 -25 -75 -30 -11 -5 -42
-17 -70 -27 -27 -10 -59 -22 -70 -27 -11 -4 -24 -9 -30 -10 -19 -5 -150 -58
-157 -64 -4 -3 7 -22 24 -41 16 -19 49 -57 72 -84 22 -27 47 -55 54 -62 16
-16 48 -18 57 -4 3 6 15 10 26 10 10 0 19 5 19 10 0 6 9 10 20 10 11 0 20 5
20 12 0 6 3 8 6 5 4 -3 16 -1 27 4 21 12 25 8 122 -103 72 -81 67 -70 39 -111
-13 -20 -21 -37 -17 -37 4 0 3 -4 -3 -8 -19 -14 -53 -78 -46 -89 6 -10 61 -73
139 -160 23 -25 32 -30 41 -21 7 7 12 15 12 19 0 4 19 42 43 85 38 69 141 262
186 349 9 16 19 32 24 33 4 2 7 12 7 22 0 10 3 20 8 22 4 2 14 17 24 35 9 17
48 92 88 167 39 75 68 141 64 147 -3 6 -24 30 -45 53 -21 22 -48 53 -61 67
l-23 27 -47 -17z m-164 -353 c-38 -57 -73 -112 -79 -122 -13 -26 -30 -30 -47
-13 -24 24 -80 94 -82 102 -1 7 266 144 273 139 2 -2 -28 -49 -65 -106z"/>
<path d="M3939 3113 c-24 -38 -46 -70 -50 -73 -3 -3 -9 -14 -12 -25 -5 -17 12
-32 103 -90 60 -38 108 -75 105 -81 -3 -10 -44 -73 -233 -364 -31 -47 -60 -88
-65 -91 -5 -3 -7 -8 -6 -10 2 -2 -15 -31 -38 -64 l-41 -61 36 -24 c21 -14 42
-28 47 -33 9 -7 25 -17 107 -69 l26 -17 35 52 c164 249 247 378 247 387 0 6 5
8 10 5 6 -3 10 0 10 8 0 8 14 33 30 55 17 23 30 46 30 52 0 5 5 10 10 10 6 0
10 6 10 14 0 19 27 6 141 -69 46 -30 89 -55 96 -55 6 0 15 9 18 20 3 11 12 26
19 32 6 7 28 40 49 72 l36 59 -64 41 c-187 120 -310 201 -313 208 -2 4 -8 8
-13 8 -4 0 -66 38 -137 85 -71 47 -134 85 -139 85 -6 0 -30 -30 -54 -67z"/>
<path d="M8051 3090 c-45 -27 -87 -50 -92 -50 -5 0 -9 -5 -9 -11 0 -5 -4 -8
-9 -4 -11 6 -53 -49 -44 -58 3 -4 7 -26 9 -49 9 -102 13 -143 14 -143 1 0 4
-18 5 -40 10 -127 17 -190 21 -196 2 -4 1 -10 -3 -12 -5 -3 -47 23 -95 57 -48
33 -135 94 -193 135 l-107 74 -36 -22 c-21 -12 -74 -43 -119 -69 -46 -26 -83
-52 -83 -58 0 -6 10 -24 23 -40 12 -16 20 -29 18 -29 -5 0 5 -17 45 -80 10
-16 19 -32 19 -35 0 -3 12 -23 26 -45 28 -43 166 -277 185 -311 6 -11 44 -76
84 -142 l73 -122 56 32 c84 47 161 97 161 104 0 7 -31 63 -43 79 -18 23 -51
81 -53 94 -2 8 -10 18 -19 23 -8 5 -13 13 -10 17 2 5 -2 14 -10 21 -8 7 -15
16 -15 21 0 5 -16 33 -35 63 -19 30 -35 60 -35 66 0 5 -4 10 -10 10 -5 0 -10
5 -10 10 0 6 38 -15 85 -47 47 -32 85 -61 85 -65 0 -4 4 -8 9 -8 5 0 36 -19
69 -41 l60 -42 61 38 c45 26 60 42 57 53 -5 15 -14 89 -21 167 -10 104 -17
161 -21 167 -3 5 0 8 5 8 6 0 17 -15 26 -32 15 -34 19 -41 68 -115 15 -24 24
-43 20 -43 -4 0 -1 -6 8 -13 9 -7 16 -16 17 -20 0 -4 25 -48 54 -97 l52 -89
51 30 c27 16 76 44 107 62 32 17 58 38 58 45 0 8 -8 26 -18 40 -10 15 -24 39
-32 55 -7 15 -17 27 -22 27 -4 0 -8 5 -8 11 0 6 -51 98 -113 203 -63 105 -122
207 -133 226 -10 19 -22 37 -25 40 -4 3 -17 23 -29 45 -11 22 -32 58 -46 80
-14 22 -27 48 -31 58 -3 9 -9 17 -13 17 -3 0 -44 -22 -89 -50z"/>
<path d="M5225 2474 c-7 -58 -11 -85 -21 -144 -3 -19 -7 -48 -9 -65 -6 -59
-16 -140 -20 -165 -5 -28 -15 -99 -20 -145 -5 -38 -12 -89 -20 -140 -7 -45
-11 -75 -20 -157 -6 -46 -4 -58 6 -59 23 -2 62 -6 104 -12 135 -20 133 -20
138 0 3 10 8 43 12 73 4 30 8 66 10 80 11 81 19 136 21 143 1 4 2 16 3 27 1
18 7 20 41 18 22 -1 40 -4 40 -7 0 -4 15 -6 33 -7 59 -2 162 -16 178 -25 19
-10 31 -46 19 -54 -5 -3 -9 -13 -8 -23 0 -20 -10 -105 -18 -147 -3 -16 -7 -48
-9 -70 -2 -22 -5 -47 -7 -55 -1 -8 3 -14 10 -13 6 2 12 0 12 -5 0 -4 12 -7 28
-7 33 -1 126 -12 170 -21 21 -4 32 -3 33 5 1 6 2 14 3 19 4 14 16 97 22 147 3
28 9 77 14 110 4 33 6 63 3 68 -2 4 0 7 5 7 6 0 10 10 9 23 0 12 3 45 6 72 12
90 17 129 22 165 3 19 8 53 11 75 9 70 13 99 19 140 3 22 7 52 9 67 3 29 -3
32 -84 42 -19 2 -57 7 -85 11 -82 11 -90 10 -91 -17 -3 -59 -35 -294 -43 -305
-4 -7 -38 -5 -96 3 -49 8 -115 16 -145 20 -30 3 -58 7 -61 10 -7 4 -6 19 5 94
4 25 13 88 20 140 8 52 11 99 6 103 -7 8 -182 36 -226 37 -19 0 -23 -8 -29
-56z"/>
<path d="M6648 2449 c-217 -78 -348 -290 -310 -499 14 -76 16 -84 22 -90 3 -3
15 -25 28 -50 20 -40 91 -123 134 -157 106 -82 301 -108 426 -56 46 18 152 85
152 96 0 4 13 21 29 38 34 35 83 124 74 133 -4 3 -2 6 3 6 5 0 10 8 11 18 1 9
6 37 11 62 32 169 -65 371 -221 459 -101 57 -263 75 -359 40z m198 -181 c94
-51 150 -231 109 -349 -59 -166 -259 -161 -336 9 -11 24 -23 54 -25 66 -6 28
-6 126 0 154 12 56 73 124 121 134 39 9 100 2 131 -14z"/>
</g>
</svg>
