<?xml version="1.0" encoding="UTF-8"?>
<svg width="212px" height="212px" viewBox="0 0 212 212" version="1.1" xmlns="http://www.w3.org/2000/svg" xmlns:xlink="http://www.w3.org/1999/xlink">
    <!-- Generator: Sketch 64 (93537) - https://sketch.com -->
    <title>anonUser</title>
    <desc>Created with Sketch.</desc>
    <defs>
        <circle id="path-1" cx="105.69" cy="105.69" r="105.69"></circle>
    </defs>
    <g id="Symbols" stroke="none" stroke-width="1" fill="none" fill-rule="evenodd">
        <g id="anonUser">
            <g>
                <g>
                    <mask id="mask-2" fill="white">
                        <use xlink:href="#path-1"></use>
                    </mask>
                    <use id="Oval" fill="#85ACD0" fill-rule="nonzero" xlink:href="#path-1"></use>
                    <path d="M179.63,190.81 C179.15,169.81 177.02,165.08 175.92,161.81 C175.48,160.51 175.13,151.81 160.68,146.12 C150.06,141.97 135.75,142.68 125.18,135.48 C124.746479,134.115614 124.468057,132.706728 124.35,131.28 C124.12,128.75 123.93,126.22 123.75,123.68 C125.746972,119.958051 127.529872,116.12515 129.09,112.2 C130.420423,108.904671 131.581932,105.54364 132.57,102.13 C132.861975,102.34479 133.208536,102.473018 133.57,102.5 L134.57,102.59 C135.190455,102.60448 135.789109,102.360893 136.223191,101.917333 C136.657274,101.473772 136.887875,100.869997 136.86,100.25 L137.86,86.9 C137.888106,85.7720501 137.050897,84.8090421 135.93,84.68 L135.81,84.68 C136.87,70.76 134.21,64.34 134.21,64.34 C130.237209,55.5041169 122.177989,49.1830867 112.65,47.43 C110.376708,46.9764235 108.067655,46.7254395 105.75,46.68 L105.66,46.68 C103.339003,46.7249011 101.026582,46.9758874 98.75,47.43 C89.2183229,49.1869828 81.1563588,55.5109713 77.18,64.35 C77.18,64.35 74.52,70.77 75.59,84.69 L75.47,84.69 C74.3474766,84.8187513 73.5071625,85.7803478 73.53,86.91 L74.53,100.26 C74.5049768,100.880954 74.7378967,101.484604 75.1735292,101.927813 C75.6091617,102.371022 76.2087072,102.614314 76.83,102.6 L77.83,102.51 C78.1914644,102.483018 78.5380247,102.35479 78.83,102.14 C79.8180683,105.55364 80.9795767,108.914671 82.31,112.21 C83.8671108,116.134825 85.6466635,119.967708 87.64,123.69 C87.47,126.23 87.28,128.76 87.05,131.29 C86.9319431,132.716728 86.6535205,134.125614 86.22,135.49 C75.65,142.69 61.34,141.98 50.72,146.13 C36.27,151.79 35.92,160.52 35.47,161.82 C34.37,165.07 32.25,169.82 31.77,190.82 C31.7,193.61 31.77,197.82 40.1,201.48 C58.22,208.58 81.57,210.81 104.63,212.39 L106.78,212.39 C129.84,210.81 153.19,208.58 171.31,201.48 C179.63,197.81 179.69,193.6 179.63,190.81 Z" id="Path" fill="#FFFFFF" fill-rule="nonzero" mask="url(#mask-2)"></path>
                </g>
            </g>
        </g>
    </g>
</svg>