<?xml version="1.0" encoding="UTF-8"?>
<svg width="84px" height="84px" viewBox="0 0 84 84" version="1.1" xmlns="http://www.w3.org/2000/svg" xmlns:xlink="http://www.w3.org/1999/xlink">
    <!-- Generator: Sketch 64 (93537) - https://sketch.com -->
    <title>icon/email</title>
    <desc>Created with Sketch.</desc>
    <g id="icon/email" stroke="none" stroke-width="1" fill="none" fill-rule="evenodd">
        <g id="emailIcon" transform="translate(1.000000, 0.000000)" fill-rule="nonzero">
            <path d="M82.7267482,41.8668293 C82.7267482,58.8013131 72.6480235,74.068126 57.1907078,80.547715 C41.7333921,87.027304 23.9418885,83.4434779 12.1131187,71.4675245 C0.2843488,59.4915711 -3.25194488,41.4822214 3.15335914,25.837988 C9.55866316,10.1937545 24.6440044,-0.00414349984 41.3744578,-1.26218362e-06 C52.3435205,-1.26218362e-06 62.8631711,4.41128341 70.6185206,12.2631316 C78.3738702,20.1149797 82.7294315,30.7639979 82.7267482,41.8668293 Z" id="Path" fill="#85ACD0"></path>
            <path d="M64.7021687,20.0370732 L18.0366265,20.0370732 C15.2889572,20.0427088 13.0629171,22.2958957 13.0573494,25.0770732 L13.0573494,58.6565854 C13.0629308,61.4360992 15.2905951,63.6863415 18.0366265,63.6863415 L64.7021687,63.6863415 C67.4459018,63.680731 69.6703206,61.4337615 69.6814458,58.6565854 L69.6814458,25.0770732 C69.6814458,23.7403821 69.1568449,22.4584383 68.2230493,21.513255 C67.2892537,20.5680716 66.0227551,20.0370732 64.7021687,20.0370732 Z M64.0139759,23.3970732 L41.5060241,46.2102439 L18.7450602,23.3970732 L64.0139759,23.3970732 Z M16.3768675,57.96 L16.3768675,25.7531707 L32.3975904,41.784878 L16.3768675,57.96 Z M18.7248193,60.3263415 L34.7151807,44.1512195 L40.3118072,49.775122 C40.958891,50.42487 42.0025548,50.42487 42.6496386,49.775122 L48.1146988,44.2434146 L64.0139759,60.3263415 L18.7248193,60.3263415 Z M66.3619277,57.96 L50.4626506,41.8668293 L66.3619277,25.7634146 L66.3619277,57.96 Z" id="Shape" fill="#FFFFFF"></path>
        </g>
    </g>
</svg>