<?xml version="1.0" encoding="UTF-8"?>
<svg width="84px" height="84px" viewBox="0 0 84 84" version="1.1" xmlns="http://www.w3.org/2000/svg" xmlns:xlink="http://www.w3.org/1999/xlink">
    <!-- Generator: Sketch 64 (93537) - https://sketch.com -->
    <title>icon/facebook</title>
    <desc>Created with Sketch.</desc>
    <defs>
        <rect id="path-1" x="0" y="1" width="84" height="83"></rect>
    </defs>
    <g id="icon/facebook" stroke="none" stroke-width="1" fill="none" fill-rule="evenodd">
        <mask id="mask-2" fill="white">
            <use xlink:href="#path-1"></use>
        </mask>
        <g id="Background"></g>
        <g id="facebookicon" mask="url(#mask-2)">
            <g transform="translate(0.000000, 1.000000)">
                <path d="M82.8826047,40.9479535 C82.8826047,63.5606279 64.3283721,81.895907 41.4413023,81.895907 C18.5542326,81.895907 0,63.5606279 0,40.9479535 C0,18.3352791 18.5542326,0 41.4413023,0 C64.3283721,0 82.8826047,18.3352791 82.8826047,40.9479535" id="Fill-32" fill="#415991"></path>
                <path d="M51.3939349,23.7814302 C51.3939349,23.7814302 47.4420279,23.1502442 46.7876093,23.1502442 C45.8069581,23.1502442 43.4608186,23.5305 43.4608186,25.8101047 L43.4608186,31.7668023 L51.6498419,31.7668023 L50.8840744,39.1171279 L43.4608186,39.2445233 L43.4608186,63.3183837 L33.478493,63.3183837 L33.478493,39.2445233 L28.4892837,39.1171279 L28.6162605,31.6413372 L33.6074233,31.6413372 C33.6074233,28.6842209 32.7205395,20.3456163 36.766214,17.446407 C42.4801674,13.3504535 52.6734698,16.1801744 52.6734698,16.1801744 L51.3939349,23.7814302 Z" id="Fill-34" fill="#FFFFFF"></path>
            </g>
        </g>
    </g>
</svg>