<?xml version="1.0" encoding="UTF-8"?>
<svg width="84px" height="84px" viewBox="0 0 84 84" version="1.1" xmlns="http://www.w3.org/2000/svg" xmlns:xlink="http://www.w3.org/1999/xlink">
    <!-- Generator: Sketch 64 (93537) - https://sketch.com -->
    <title>icon/google</title>
    <desc>Created with Sketch.</desc>
    <g id="icon/google" stroke="none" stroke-width="1" fill="none" fill-rule="evenodd">
        <g id="googleIcon" fill-rule="nonzero">
            <circle id="Oval" fill="#FFFFFF" cx="41.68" cy="41.68" r="41.68"></circle>
            <g id="y9X2av" transform="translate(10.000000, 8.000000)">
                <path d="M3.88,18.0945455 C5.43366718,14.8443964 7.64394149,11.9295135 10.38,9.52242424 C17.7937551,2.55709432 28.2391118,-0.474320018 38.38,1.39636364 C43.9446955,2.31261891 49.1299477,4.73257134 53.34,8.37818182 C53.82,8.78545455 54,9.07636364 53.34,9.63878788 C50.66,12.1406061 48.04,14.7006061 45.44,17.28 C44.88,17.8424242 44.62,17.5515152 44.2,17.28 C38.3705001,12.472122 30.0432877,11.7642093 23.44,15.5151515 C19.5564669,17.5154037 16.5304167,20.7864843 14.9,24.7466667 C14.74,25.1345455 14.56,25.5224242 14.38,25.929697 C14.1245174,25.8879601 13.8877225,25.7731505 13.7,25.6 L3.88,18.0945455 Z" id="Path" fill="#DC402D"></path>
                <path d="M54,55.4472727 C50.0832229,59.1826143 45.0772667,61.6605214 39.66,62.5454545 C29.3522971,64.778556 18.571046,61.9582934 10.82,55.0012121 C7.87540853,52.4999839 5.50439408,49.4278231 3.86,45.9830303 L14.3,38.2254545 C15.2778379,40.6559511 16.6781177,42.9059104 18.44,44.8775758 C24.6722409,51.5354708 34.8660491,53.0412794 42.86,48.4848485 L43.9,47.9030303 C43.9771774,48.1749958 44.1461898,48.4140033 44.38,48.5818182 C46.58,50.230303 48.7,51.9951515 50.94,53.5466667 C52,54.3030303 52.7,55.2533333 54,55.4472727 Z" id="Path" fill="#2D9D4D"></path>
                <path d="M54,55.4472727 C52.7,55.2533333 52,54.2060606 50.94,53.5078788 C48.7,51.9563636 46.58,50.1915152 44.38,48.5430303 C44.1461898,48.3752154 43.9771774,48.1362079 43.9,47.8642424 C45.8828653,46.4273174 47.5092247,44.5785605 48.66,42.4533333 C49.1095782,41.5128675 49.4840124,40.5403111 49.78,39.5442424 C50.08,38.6521212 49.88,38.3612121 48.88,38.3612121 C43.86,38.3612121 38.88,38.3612121 33.82,38.3612121 C32.72,38.3612121 32.48,38.0509091 32.5,37.0424242 C32.5,33.7454545 32.5,30.4678788 32.5,27.1709091 C32.5,26.3757576 32.72,26.1430303 33.56,26.1430303 L61.86,26.1430303 C62.5,26.1430303 62.88,26.1430303 62.98,26.9575758 C64.2104064,34.0987525 63.1127503,41.4342565 59.84,47.9418182 C58.4550714,50.8115763 56.4657042,53.3682723 54,55.4472727 Z" id="Path" fill="#3C7BE7"></path>
                <path d="M14.3,38.1866667 L3.86,45.9442424 C2.25086236,43.127855 1.2058141,40.0416519 0.78,36.8484848 C-0.202590841,30.9315845 0.617631368,24.8652261 3.14,19.3939394 C3.34,18.9478788 3.64,18.5212121 3.88,18.0945455 L13.7,25.5224242 C13.8877225,25.6955747 14.1245174,25.8103843 14.38,25.8521212 C13.2703552,29.1315473 13.0703223,32.6364095 13.8,36.0145455 C14,36.8484848 14.14,37.4690909 14.3,38.1866667 Z" id="Path" fill="#EBB106"></path>
            </g>
        </g>
    </g>
</svg>