<?xml version="1.0" encoding="UTF-8"?>
<svg width="84px" height="84px" viewBox="0 0 84 84" version="1.1" xmlns="http://www.w3.org/2000/svg" xmlns:xlink="http://www.w3.org/1999/xlink">
    <!-- Generator: Sketch 64 (93537) - https://sketch.com -->
    <title>icon/instagram</title>
    <desc>Created with Sketch.</desc>
    <defs>
        <linearGradient x1="15.140227%" y1="85.3525686%" x2="84.8749243%" y2="14.6459701%" id="linearGradient-1">
            <stop stop-color="#F3CA5F" offset="0%"></stop>
            <stop stop-color="#F88827" offset="22%"></stop>
            <stop stop-color="#DC2D5C" offset="43%"></stop>
            <stop stop-color="#A44882" offset="71%"></stop>
            <stop stop-color="#46469B" offset="100%"></stop>
        </linearGradient>
        <linearGradient x1="78.3048436%" y1="88.1390539%" x2="25.6449482%" y2="13.8519667%" id="linearGradient-2">
            <stop stop-color="#000000" offset="0%"></stop>
            <stop stop-color="#060502" offset="10%"></stop>
            <stop stop-color="#151208" offset="23%"></stop>
            <stop stop-color="#302813" offset="37%"></stop>
            <stop stop-color="#544621" offset="52%"></stop>
            <stop stop-color="#836D33" offset="69%"></stop>
            <stop stop-color="#BB9C49" offset="85%"></stop>
            <stop stop-color="#F3CA5F" offset="100%"></stop>
        </linearGradient>
    </defs>
    <g id="icon/instagram" stroke="none" stroke-width="1" fill="none" fill-rule="evenodd">
        <g id="instaIcon" fill-rule="nonzero">
            <path d="M83.9131039,41.9591667 C83.9131039,58.9305962 73.7599572,74.2307999 58.1883115,80.7249397 C42.6166657,87.2190796 24.6932904,83.6281621 12.7762688,71.6267149 C0.859247277,59.6252678 -2.70441327,41.5769255 3.74710431,25.8980464 C10.1986219,10.2191673 25.3947184,-0.00235943689 42.2491034,-4.08384995e-07 C53.3000871,-4.08384995e-07 63.8983665,4.42087127 71.7120487,12.2899092 C79.525731,20.1589471 83.91464,30.8314402 83.9131039,41.9591667 Z" id="Path" fill="url(#linearGradient-1)"></path>
            <path d="M55.4921379,66.4125 L29.0002759,66.4125 C22.9518399,66.4028564 18.0518966,61.4662766 18.0455172,55.3758333 L18.0455172,28.7116667 C18.0487043,22.6189457 22.9495804,17.6788164 29.0002759,17.6691667 L55.4921379,17.6691667 C61.5371849,17.6947554 66.4304716,22.6246275 66.4526897,28.7116667 L66.4526897,55.3758333 C66.4463037,61.4685505 61.5428364,66.4060697 55.4921379,66.4125 L55.4921379,66.4125 Z M29.0002759,22.5225 C25.6092535,22.528929 22.8627733,25.297091 22.8595862,28.7116667 L22.8595862,55.3758333 C22.8627733,58.790409 25.6092535,61.558571 29.0002759,61.565 L55.4921379,61.565 C58.882221,61.5585653 61.6270345,58.7894648 61.6270345,55.3758333 L61.6270345,28.7116667 C61.6270345,25.2980352 58.882221,22.5289347 55.4921379,22.5225 L29.0002759,22.5225 Z M42.2491034,54.786668 C37.187499,54.7890263 32.6229898,51.7206313 30.6843737,47.0125213 C28.7457576,42.3044112 29.8148952,36.8839701 33.3931616,33.2791857 C36.9714281,29.6744013 42.3539912,28.5953292 47.0305287,30.5452275 C51.7070663,32.4951258 54.7564138,37.0899117 54.7564138,42.1866667 C54.750032,49.1405141 49.1549897,54.7770204 42.2491034,54.786668 Z M42.2491034,34.44 C38.0002436,34.44 34.5558621,37.9083008 34.5558621,42.1866667 C34.5558621,46.4650325 38.0002436,49.9333333 42.2491034,49.9333333 C46.4979633,49.9333333 49.9423645,46.4650325 49.9423645,42.1866667 C49.9469592,40.1285558 49.1386461,38.1530634 47.6955498,36.6955687 C46.2524535,35.2380741 44.2930251,34.41821 42.2491034,34.4166667 L42.2491034,34.44 Z M55.2372414,26.4891613 C53.4807473,26.4891613 52.0568276,27.9229748 52.0568276,29.6916667 C52.0568276,31.4603586 53.4807473,32.8941667 55.2372414,32.8941667 C56.9937354,32.8941667 58.4176605,31.4603586 58.4176605,29.6916667 C58.4191967,28.841836 58.0846134,28.0263654 57.4878356,27.4254433 C56.8910578,26.8245213 56.0812112,26.4876145 55.2372414,26.4891613 L55.2372414,26.4891613 Z" id="Shape" fill="#FFFFFF"></path>
            <path d="M42.2491034,-1.574937e-05 C34.0552429,-0.00716202356 26.0426797,2.42852283 19.2215172,7 C19.32,32.0483333 40.0245517,52.3308364 65.5663448,52.3308364 C71.6635987,52.3330571 77.7034028,51.144442 83.3511724,48.8308333 C85.3646598,36.6674598 81.9596159,24.2282231 74.0416094,14.8213279 C66.1236029,5.41443272 54.4952507,-0.00658132451 42.2491034,-1.574937e-05 Z" id="Path" fill="url(#linearGradient-2)" opacity="0.3" style="mix-blend-mode: screen;"></path>
        </g>
    </g>
</svg>