<?xml version="1.0" encoding="UTF-8"?>
<svg width="84px" height="84px" viewBox="0 0 84 84" version="1.1" xmlns="http://www.w3.org/2000/svg" xmlns:xlink="http://www.w3.org/1999/xlink">
    <!-- Generator: Sketch 64 (93537) - https://sketch.com -->
    <title>icon/pinterest</title>
    <desc>Created with Sketch.</desc>
    <g id="icon/pinterest" stroke="none" stroke-width="1" fill="none" fill-rule="evenodd">
        <g id="pintrestIcon" fill-rule="nonzero">
            <circle id="Oval" fill="#D12D30" transform="translate(41.861471, 41.858342) rotate(-89.250000) translate(-41.861471, -41.858342) " cx="41.8614712" cy="41.8583423" r="40.86"></circle>
            <path d="M39.14,49.94 C40.0758997,51.6169506 41.6718773,52.8248155 43.54,53.27 C46.94,54.27 52.61,53.88 57.37,48.71 C62.13,43.54 63.48,33.93 61.64,28.15 C59.8,22.37 54.35,17.93 47.64,16.53 C40.79,15.09 29.05,17.68 24.49,26.53 C19.93,35.38 23.49,41.36 24.12,42.53 C25.1288721,44.1677549 26.6009945,45.4693478 28.35,46.27 C28.6003423,46.4509137 28.9265837,46.4890963 29.2119356,46.3708791 C29.4972876,46.2526619 29.7009442,45.9949501 29.75,45.69 C30.07,44.75 30.4,43.39 30.49,43.11 C30.58,42.83 30.89,42.49 30.2,41.63 C29.51,40.77 27.45,38.18 28.2,33.21 C29.0866001,27.7176997 33.1156429,23.2579527 38.49,21.82 C44.15,20.35 48.96,21.91 51.58,24.2 C54.2,26.49 55.58,29.38 55.07,35.49 C54.56,41.6 52.16,45.38 49.29,47.49 C47.1837385,49.026344 44.3051061,48.9440973 42.29,47.29 C41.2215899,46.2216664 40.7082898,44.7186941 40.9,43.22 C41.23,41.87 42.9,36.57 43.32,34.64 C43.8124534,33.1231417 43.7593955,31.4818847 43.17,30 C42.4191955,28.4271117 40.7200678,27.5388387 39,27.82 C37,28.02 34.89,30.4 34.32,32.41 C33.6854471,34.9888479 33.8707099,37.7013759 34.85,40.17 C34.32,42.8 31.65,53.92 31.24,55.65 C30.8974582,56.9614564 30.6666329,58.2995743 30.55,59.65 C30.5,60.55 30.49,62.8 30.55,64.01 C30.61,65.22 30.89,67.41 30.92,67.77 C30.9467877,67.934474 31.0704594,68.066373 31.23287,68.1036835 C31.3952806,68.1409941 31.5641172,68.076293 31.66,67.94 C33.0714371,65.9801028 34.3734244,63.9436611 35.56,61.84 C36.4006278,60.3276799 37.0043139,58.6953667 37.35,57 C37.8,55.31 39.14,49.94 39.14,49.94 Z" id="Path" fill="#FFFFFF"></path>
        </g>
    </g>
</svg>