<?xml version="1.0" encoding="UTF-8"?>
<svg width="84px" height="84px" viewBox="0 0 84 84" version="1.1" xmlns="http://www.w3.org/2000/svg" xmlns:xlink="http://www.w3.org/1999/xlink">
    <!-- Generator: Sketch 64 (93537) - https://sketch.com -->
    <title>icon/email</title>
    <desc>Created with Sketch.</desc>
    <g id="icon/email" stroke="none" stroke-width="1" fill="none" fill-rule="evenodd">
        <g id="emailIcon" fill-rule="nonzero">
            <path d="M84.0007198,41.9993856 C84.0007198,58.9874864 73.7667839,74.3026362 58.0714272,80.8027405 C42.3760706,87.3028448 24.3105798,83.7076718 12.2996482,71.6938008 C0.288716655,59.6799298 -3.30203556,41.6135601 3.20190943,25.9197947 C9.70585441,10.2260294 25.0235082,-0.00415661475 42.0116088,-1.26218362e-06 C53.1495938,-1.26218362e-06 63.8312458,4.42525017 71.7060268,12.3019584 C79.5808079,20.1786666 84.0034444,30.8614011 84.0007198,41.9993856 Z" id="Path" fill="#85ACD0"></path>
            <path d="M64.7021687,20.0370732 L18.0366265,20.0370732 C15.2889572,20.0427088 13.0629171,22.2958957 13.0573494,25.0770732 L13.0573494,58.6565854 C13.0629308,61.4360992 15.2905951,63.6863415 18.0366265,63.6863415 L64.7021687,63.6863415 C67.4459018,63.680731 69.6703206,61.4337615 69.6814458,58.6565854 L69.6814458,25.0770732 C69.6814458,23.7403821 69.1568449,22.4584383 68.2230493,21.513255 C67.2892537,20.5680716 66.0227551,20.0370732 64.7021687,20.0370732 Z M64.0139759,23.3970732 L41.5060241,46.2102439 L18.7450602,23.3970732 L64.0139759,23.3970732 Z M16.3768675,57.96 L16.3768675,25.7531707 L32.3975904,41.784878 L16.3768675,57.96 Z M18.7248193,60.3263415 L34.7151807,44.1512195 L40.3118072,49.775122 C40.958891,50.42487 42.0025548,50.42487 42.6496386,49.775122 L48.1146988,44.2434146 L64.0139759,60.3263415 L18.7248193,60.3263415 Z M66.3619277,57.96 L50.4626506,41.8668293 L66.3619277,25.7634146 L66.3619277,57.96 Z" id="Shape" fill="#FFFFFF"></path>
        </g>
    </g>
</svg>