<?xml version="1.0" encoding="UTF-8"?>
<svg width="84px" height="84px" viewBox="0 0 84 84" version="1.1" xmlns="http://www.w3.org/2000/svg" xmlns:xlink="http://www.w3.org/1999/xlink">
    <!-- Generator: Sketch 64 (93537) - https://sketch.com -->
    <title>icon/facebook</title>
    <desc>Created with Sketch.</desc>
    <g id="icon/facebook" stroke="none" stroke-width="1" fill="none" fill-rule="evenodd">
        <g id="facebookicon">
            <path d="M84,42 C84,65.1936457 65.1956255,84 42,84 C18.8043745,84 0,65.1936457 0,42 C0,18.8063543 18.8043745,0 42,0 C65.1956255,0 84,18.8063543 84,42" id="Fill-32" fill="#415991"></path>
            <path d="M50.7747308,23.7814302 C50.7747308,23.7814302 46.8704372,23.1502442 46.2239032,23.1502442 C45.2550671,23.1502442 42.9371943,23.5305 42.9371943,25.8101047 L42.9371943,31.7668023 L51.0275546,31.7668023 L50.2710133,39.1171279 L42.9371943,39.2445233 L42.9371943,63.3183837 L33.0751377,63.3183837 L33.0751377,39.2445233 L28.1460393,39.1171279 L28.2714862,31.6413372 L33.2025145,31.6413372 C33.2025145,28.6842209 32.3263162,20.3456163 36.3232475,17.446407 C41.9683582,13.3504535 52.0388496,16.1801744 52.0388496,16.1801744 L50.7747308,23.7814302 Z" id="Fill-34" fill="#FFFFFF"></path>
        </g>
    </g>
</svg>