<?xml version="1.0" encoding="UTF-8"?>
<svg width="84px" height="84px" viewBox="0 0 84 84" version="1.1" xmlns="http://www.w3.org/2000/svg" xmlns:xlink="http://www.w3.org/1999/xlink">
    <!-- Generator: Sketch 64 (93537) - https://sketch.com -->
    <title>icon/google</title>
    <desc>Created with Sketch.</desc>
    <g id="icon/google" stroke="none" stroke-width="1" fill="none" fill-rule="evenodd">
        <g id="googleIcon" fill-rule="nonzero">
            <circle id="Oval" fill="#FFFFFF" cx="42" cy="42" r="42"></circle>
            <path d="M13.88,26.0945455 C15.4336672,22.8443964 17.6439415,19.9295135 20.38,17.5224242 C27.7937551,10.5570943 38.2391118,7.52567998 48.38,9.39636364 C53.9446955,10.3126189 59.1299477,12.7325713 63.34,16.3781818 C63.82,16.7854545 64,17.0763636 63.34,17.6387879 C60.66,20.1406061 58.04,22.7006061 55.44,25.28 C54.88,25.8424242 54.62,25.5515152 54.2,25.28 C48.3705001,20.472122 40.0432877,19.7642093 33.44,23.5151515 C29.5564669,25.5154037 26.5304167,28.7864843 24.9,32.7466667 C24.74,33.1345455 24.56,33.5224242 24.38,33.929697 C24.1245174,33.8879601 23.8877225,33.7731505 23.7,33.6 L13.88,26.0945455 Z" id="Path" fill="#DC402D"></path>
            <path d="M64,63.4472727 C60.0832229,67.1826143 55.0772667,69.6605214 49.66,70.5454545 C39.3522971,72.778556 28.571046,69.9582934 20.82,63.0012121 C17.8754085,60.4999839 15.5043941,57.4278231 13.86,53.9830303 L24.3,46.2254545 C25.2778379,48.6559511 26.6781177,50.9059104 28.44,52.8775758 C34.6722409,59.5354708 44.8660491,61.0412794 52.86,56.4848485 L53.9,55.9030303 C53.9771774,56.1749958 54.1461898,56.4140033 54.38,56.5818182 C56.58,58.230303 58.7,59.9951515 60.94,61.5466667 C62,62.3030303 62.7,63.2533333 64,63.4472727 Z" id="Path" fill="#2D9D4D"></path>
            <path d="M64,63.4472727 C62.7,63.2533333 62,62.2060606 60.94,61.5078788 C58.7,59.9563636 56.58,58.1915152 54.38,56.5430303 C54.1461898,56.3752154 53.9771774,56.1362079 53.9,55.8642424 C55.8828653,54.4273174 57.5092247,52.5785605 58.66,50.4533333 C59.1095782,49.5128675 59.4840124,48.5403111 59.78,47.5442424 C60.08,46.6521212 59.88,46.3612121 58.88,46.3612121 C53.86,46.3612121 48.88,46.3612121 43.82,46.3612121 C42.72,46.3612121 42.48,46.0509091 42.5,45.0424242 C42.5,41.7454545 42.5,38.4678788 42.5,35.1709091 C42.5,34.3757576 42.72,34.1430303 43.56,34.1430303 L71.86,34.1430303 C72.5,34.1430303 72.88,34.1430303 72.98,34.9575758 C74.2104064,42.0987525 73.1127503,49.4342565 69.84,55.9418182 C68.4550714,58.8115763 66.4657042,61.3682723 64,63.4472727 Z" id="Path" fill="#3C7BE7"></path>
            <path d="M24.3,46.1866667 L13.86,53.9442424 C12.2508624,51.127855 11.2058141,48.0416519 10.78,44.8484848 C9.79740916,38.9315845 10.6176314,32.8652261 13.14,27.3939394 C13.34,26.9478788 13.64,26.5212121 13.88,26.0945455 L23.7,33.5224242 C23.8877225,33.6955747 24.1245174,33.8103843 24.38,33.8521212 C23.2703552,37.1315473 23.0703223,40.6364095 23.8,44.0145455 C24,44.8484848 24.14,45.4690909 24.3,46.1866667 Z" id="Path" fill="#EBB106"></path>
        </g>
    </g>
</svg>