<?xml version="1.0" encoding="UTF-8"?>
<svg width="84px" height="84px" viewBox="0 0 84 84" version="1.1" xmlns="http://www.w3.org/2000/svg" xmlns:xlink="http://www.w3.org/1999/xlink">
    <!-- Generator: Sketch 64 (93537) - https://sketch.com -->
    <title>icon/instagram</title>
    <desc>Created with Sketch.</desc>
    <defs>
        <linearGradient x1="15.4811511%" y1="85.3525686%" x2="84.533852%" y2="14.6459701%" id="linearGradient-1">
            <stop stop-color="#F3CA5F" offset="0%"></stop>
            <stop stop-color="#F88827" offset="22%"></stop>
            <stop stop-color="#DC2D5C" offset="43%"></stop>
            <stop stop-color="#A44882" offset="71%"></stop>
            <stop stop-color="#46469B" offset="100%"></stop>
        </linearGradient>
        <linearGradient x1="78.3048436%" y1="90.9807651%" x2="25.6449482%" y2="11.1586049%" id="linearGradient-2">
            <stop stop-color="#000000" offset="0%"></stop>
            <stop stop-color="#060502" offset="10%"></stop>
            <stop stop-color="#151208" offset="23%"></stop>
            <stop stop-color="#302813" offset="37%"></stop>
            <stop stop-color="#544621" offset="52%"></stop>
            <stop stop-color="#836D33" offset="69%"></stop>
            <stop stop-color="#BB9C49" offset="85%"></stop>
            <stop stop-color="#F3CA5F" offset="100%"></stop>
        </linearGradient>
    </defs>
    <g id="icon/instagram" stroke="none" stroke-width="1" fill="none" fill-rule="evenodd">
        <g id="instaIcon" fill-rule="nonzero">
            <path d="M83.5638658,41.9993859 C83.5638658,58.9870831 73.4508049,74.3019525 57.9406379,80.8023171 C42.4304708,87.3026818 24.5778591,83.7083223 12.7078873,71.6953714 C0.837915556,59.6824205 -2.71167524,41.6167783 3.71437099,25.9228705 C10.1404172,10.2289627 25.2765178,-0.00236169809 42.0643597,-4.08384995e-07 C53.0717128,-4.08384995e-07 63.628149,4.42510882 71.4109818,12.3016894 C79.1938147,20.17827 83.5653959,30.8609931 83.5638658,41.9993859 Z" id="Path" fill="url(#linearGradient-1)"></path>
            <path d="M53.5335919,66.4125 L27.9767367,66.4125 C22.141775,66.4028564 17.4147708,61.4662766 17.4086166,55.3758333 L17.4086166,28.7116667 C17.4116912,22.6189457 22.1395953,17.6788164 27.9767367,17.6691667 L53.5335919,17.6691667 C59.3652843,17.6947554 64.0858668,22.6246275 64.1073006,28.7116667 L64.1073006,55.3758333 C64.10114,61.4685505 59.3707363,66.4060697 53.5335919,66.4125 L53.5335919,66.4125 Z M27.9767367,22.5225 C24.7053975,22.528929 22.0558518,25.297091 22.0527773,28.7116667 L22.0527773,55.3758333 C22.0558518,58.790409 24.7053975,61.558571 27.9767367,61.565 L53.5335919,61.565 C56.804025,61.5585653 59.4519627,58.7894648 59.4519627,55.3758333 L59.4519627,28.7116667 C59.4519627,25.2980352 56.804025,22.5289347 53.5335919,22.5225 L27.9767367,22.5225 Z M40.7579586,54.786668 C35.8749991,54.7890263 31.4715902,51.7206313 29.6013958,47.0125213 C27.7312015,42.3044112 28.7626048,36.8839701 32.2145795,33.2791857 C35.6665541,29.6744013 40.8591444,28.5953292 45.3706277,30.5452275 C49.882111,32.4951258 52.8238345,37.0899117 52.8238345,42.1866667 C52.8176779,49.1405141 47.4201077,54.7770204 40.7579586,54.786668 Z M40.7579586,34.44 C36.6590585,34.44 33.3362434,37.9083008 33.3362434,42.1866667 C33.3362434,46.4650325 36.6590585,49.9333333 40.7579586,49.9333333 C44.8568588,49.9333333 48.1796928,46.4650325 48.1796928,42.1866667 C48.1841254,40.1285558 47.4043409,38.1530634 46.0121775,36.6955687 C44.620014,35.2380741 42.7297418,34.41821 40.7579586,34.4166667 L40.7579586,34.44 Z M53.2876917,26.4891613 C51.5931916,26.4891613 50.2195278,27.9229748 50.2195278,29.6916667 C50.2195278,31.4603586 51.5931916,32.8941667 53.2876917,32.8941667 C54.9821918,32.8941667 56.3558607,31.4603586 56.3558607,29.6916667 C56.3573427,28.841836 56.0345682,28.0263654 55.4588532,27.4254433 C54.8831381,26.8245213 54.1018743,26.4876145 53.2876917,26.4891613 L53.2876917,26.4891613 Z" id="Shape" fill="#FFFFFF"></path>
            <path d="M41.7461939,0.999984251 C33.8415285,0.992837976 26.1117616,3.42852283 19.531346,8 C19.6263529,33.0483333 39.6001558,53.3308364 64.2404738,53.3308364 C70.1225305,53.3330571 75.9491651,52.144442 81.3976016,49.8308333 C83.3400247,37.6674598 80.0551589,25.2282231 72.4166114,15.8213279 C64.778064,6.41443272 53.5601242,0.993418675 41.7461939,0.999984251 Z" id="Path" fill="url(#linearGradient-2)" opacity="0.3" style="mix-blend-mode: screen;"></path>
        </g>
    </g>
</svg>