<?xml version="1.0" encoding="UTF-8"?>
<svg width="84px" height="84px" viewBox="0 0 84 84" version="1.1" xmlns="http://www.w3.org/2000/svg" xmlns:xlink="http://www.w3.org/1999/xlink">
    <!-- Generator: Sketch 64 (93537) - https://sketch.com -->
    <title>icon/pinterest</title>
    <desc>Created with Sketch.</desc>
    <g id="icon/pinterest" stroke="none" stroke-width="1" fill="none" fill-rule="evenodd">
        <g id="pintrestIcon" fill-rule="nonzero">
            <circle id="Oval" fill="#D12D30" transform="translate(41.978147, 41.975164) rotate(-89.250000) translate(-41.978147, -41.975164) " cx="41.978147" cy="41.9751636" r="41.0232558"></circle>
            <path d="M37.3195349,47.6172093 C38.2119044,49.2161622 39.7336504,50.3678473 41.5148837,50.7923256 C44.7567442,51.745814 50.1630233,51.3739535 54.7016279,46.4444186 C59.2402326,41.5148837 60.5274419,32.3518605 58.7730233,26.8406977 C57.0186047,21.3295349 51.822093,17.0960465 45.424186,15.7611628 C38.8927907,14.3881395 27.6988372,16.8576744 23.3509302,25.2960465 C19.0030233,33.7344186 22.3974419,39.4362791 22.9981395,40.5518605 C23.9600874,42.1134407 25.363739,43.3544944 27.0313953,44.117907 C27.2700938,44.2904061 27.5811612,44.3268128 27.853241,44.214094 C28.1253207,44.1013753 28.3195049,43.8556501 28.3662791,43.5648837 C28.6713953,42.6686047 28.9860465,41.3718605 29.0718605,41.1048837 C29.1576744,40.837907 29.4532558,40.5137209 28.7953488,39.6937209 C28.1374419,38.8737209 26.1732558,36.404186 26.8883721,31.6653488 C27.733735,26.4285044 31.5753805,22.1761874 36.6997674,20.8051163 C42.0965116,19.4034884 46.6827907,20.8909302 49.1809302,23.0744186 C51.6790698,25.257907 52.9948837,28.0134884 52.5086047,33.8393023 C52.0223256,39.6651163 49.7339535,43.2693023 46.9974419,45.2811628 C44.989146,46.7460489 42.2444035,46.6676277 40.3230233,45.0904651 C39.3043066,44.0718214 38.8148809,42.6387549 38.9976744,41.2097674 C39.3123256,39.9225581 40.9046512,34.8690698 41.3051163,33.0288372 C41.7746649,31.5825304 41.7240748,30.017611 41.162093,28.6046512 C40.4462097,27.1049204 38.8261112,26.2579625 37.1860465,26.5260465 C35.2790698,26.7167442 33.2672093,28.9860465 32.7237209,30.9025581 C32.1186821,33.3614597 32.2953281,35.9478235 33.2290698,38.3016279 C32.7237209,40.8093023 30.177907,51.412093 29.7869767,53.0616279 C29.4603672,54.3120864 29.2402779,55.5879662 29.1290698,56.8755814 C29.0813953,57.7337209 29.0718605,59.8790698 29.1290698,61.0327907 C29.1862791,62.1865116 29.4532558,64.2746512 29.4818605,64.617907 C29.5074022,64.7747311 29.6253217,64.9004952 29.7801784,64.9360703 C29.935035,64.9716455 30.0960187,64.9099538 30.1874419,64.78 C31.5332307,62.9112608 32.7746605,60.9695373 33.9060465,58.9637209 C34.7075753,57.5217413 35.283183,55.9653496 35.6127907,54.3488372 C36.0418605,52.7374419 37.3195349,47.6172093 37.3195349,47.6172093 Z" id="Path" fill="#FFFFFF"></path>
        </g>
    </g>
</svg>