<?xml version="1.0" encoding="UTF-8"?>
<svg width="84px" height="84px" viewBox="0 0 84 84" version="1.1" xmlns="http://www.w3.org/2000/svg" xmlns:xlink="http://www.w3.org/1999/xlink">
    <!-- Generator: Sketch 64 (93537) - https://sketch.com -->
    <title>icon/twitter</title>
    <desc>Created with Sketch.</desc>
    <g id="icon/twitter" stroke="none" stroke-width="1" fill="none" fill-rule="evenodd">
        <g id="twitterIcon" fill-rule="nonzero">
            <path d="M84.0007188,41.9891104 C84.0048742,58.9772112 73.7746882,74.2948652 58.0809228,80.7988103 C42.3871575,87.3027554 24.3207877,83.7120031 12.3069167,71.7010714 C0.293045747,59.6901396 -3.3021273,41.6246486 3.19797702,25.9292917 C9.69808134,10.2339348 25.0132311,0 42.0013319,0 C65.1929395,0 83.9950431,18.7975029 84.0007188,41.9891104 Z" id="Path" fill="#4C9EEA"></path>
            <path d="M18.9171084,58.0521951 C21.4460935,60.0885397 24.4442384,61.4419982 27.6308434,61.9858537 C31.2438554,62.7336585 36.4761446,63.4814634 44.3903614,59.1380488 C52.3045783,54.7946341 55.3812048,50.7278049 57.9214458,44.4790244 C59.4535069,40.7874311 60.0081361,36.7552879 59.5306024,32.7804878 C60.4322882,32.3250607 61.2866683,31.7794135 62.0809639,31.1517073 C62.7540093,30.5093555 63.339411,29.7790147 63.8216867,28.98 C63.8216867,28.98 62.0809639,29.3897561 61.0081928,29.5229268 C60.3311885,29.6065287 59.6447119,29.5613636 58.9840964,29.3897561 C59.5979007,29.0412503 60.1833597,28.6439009 60.7349398,28.2014634 C61.3716327,27.6058054 61.9143246,26.9148494 62.3440964,26.1526829 C62.5831102,25.6891698 62.7211529,25.1791691 62.7489157,24.6570732 C61.70839,25.1856249 60.6330637,25.640853 59.5306024,26.0195122 C58.7053283,26.2685136 57.8512206,26.4062863 56.9903614,26.4292683 C56.9903614,26.4292683 54.0351807,22.0858537 47.740241,23.8478049 C40.3118072,25.8965854 40.8987952,35.382439 40.8987952,35.382439 C40.8987952,35.382439 34.1990361,34.9726829 29.5031325,32.3912195 C26.4321937,30.484535 23.6361376,28.1576725 21.1942169,25.4765854 C21.1942169,25.4765854 19.5850602,27.6585366 20.1214458,31.8585366 C20.515532,34.435644 21.9916822,36.7142258 24.1696386,38.1073171 C23.3697727,38.2527279 22.5507092,38.2527279 21.7508434,38.1073171 C21.1005033,37.9002122 20.4730689,37.6255804 19.8785542,37.2878049 C19.6641688,39.4631314 20.4519153,41.6171189 22.0139759,43.1268293 C23.5726629,44.7291373 25.4490392,45.9790173 27.5195181,46.7941463 L23.36,47.1936585 C24.0807539,48.9945567 25.3499011,50.5160116 26.9831325,51.5370732 C28.4698152,52.4773914 30.096432,53.1691786 31.8004819,53.5858537 C29.890014,54.9130805 27.8563054,56.0486918 25.7281928,56.9765854 C23.5020077,57.5789172 21.2187634,57.9394883 18.9171084,58.0521951 Z" id="Path" fill="#FFFFFF"></path>
        </g>
    </g>
</svg>