<?xml version="1.0" encoding="UTF-8"?>
<svg width="43px" height="43px" viewBox="0 0 43 43" version="1.1" xmlns="http://www.w3.org/2000/svg" xmlns:xlink="http://www.w3.org/1999/xlink">
    <!-- Generator: Sketch 64 (93537) - https://sketch.com -->
    <title>Group</title>
    <desc>Created with Sketch.</desc>
    <defs>
        <polygon id="path-1" points="0.735596 0.929 1919.2596 0.929 1919.2596 584.479 0.735596 584.479"></polygon>
        <polygon id="path-3" points="0 825 1920 825 1920 0.77 0 0.77"></polygon>
        <polyline id="path-5" points="0 825 1920 825 1920 0.77 0 0.77"></polyline>
        <polygon id="path-7" points="0 825 1920 825 1920 0.77 0 0.77"></polygon>
    </defs>
    <g id="Page-1" stroke="none" stroke-width="1" fill="none" fill-rule="evenodd">
        <g id="Group-309" transform="translate(-978.000000, -271.000000)">
            <g id="Group-65" transform="translate(0.000000, 0.230000)">
                <g id="Group-3" transform="translate(0.000000, 45.000000)">
                    <mask id="mask-2" fill="white">
                        <use xlink:href="#path-1"></use>
                    </mask>
                    <g id="Clip-2"></g>
                    <polygon id="Fill-1" fill-opacity="0.1" fill="#000000" mask="url(#mask-2)" points="0.735 584.479 1919.264 584.479 1919.264 0.929 0.735 0.929"></polygon>
                </g>
                <mask id="mask-4" fill="white">
                    <use xlink:href="#path-3"></use>
                </mask>
                <g id="Clip-5"></g>
                <polygon id="Fill-4" fill="#FFFFFF" mask="url(#mask-4)" points="0.913 629.479 1919.573 629.479 1919.573 122.024 0.913 122.024"></polygon>
            </g>
            <g id="Group-264" transform="translate(0.000000, 0.230000)">
                <mask id="mask-6" fill="white">
                    <use xlink:href="#path-5"></use>
                </mask>
                <g id="Clip-70"></g>
                <polygon id="Fill-148" fill="#C7C7C7" mask="url(#mask-6)" points="965.71 321.573 1179.866 321.573 1179.866 263.046 965.71 263.046"></polygon>
            </g>
            <g id="Group-308" transform="translate(0.000000, 0.230000)">
                <mask id="mask-8" fill="white">
                    <use xlink:href="#path-7"></use>
                </mask>
                <g id="Clip-271"></g>
                <g id="Group" mask="url(#mask-8)">
                    <g transform="translate(978.710400, 271.470300)">
                        <path d="M41.6776,20.839 C41.6776,32.348 32.3476,41.678 20.839,41.678 C9.329,41.678 0,32.348 0,20.839 C0,9.33 9.329,-5.68434189e-14 20.839,-5.68434189e-14 C32.3476,-5.68434189e-14 41.6776,9.33 41.6776,20.839" id="Fill-303" fill="#FFFFFF"></path>
                        <path d="M6.9429,13.3297 C7.7149,11.6287 8.8269,10.1637 10.1859,8.9047 C14.1659,5.2167 18.8659,3.8357 24.2086,4.7177 C27.0386,5.1837 29.5156,6.4457 31.6846,8.3157 C31.9276,8.5257 32.0216,8.6787 31.7246,8.9677 C30.3906,10.2637 29.0746,11.5777 27.7806,12.9127 C27.4976,13.2037 27.3666,13.0507 27.1556,12.8827 C23.8796,10.2927 20.3689,10.0717 16.7189,11.9587 C14.7189,12.9927 13.3409,14.6547 12.4529,16.7207 C12.3649,16.9227 12.2759,17.1237 12.1869,17.3247 C12.0569,17.3057 11.9509,17.2457 11.8449,17.1627 C10.2129,15.8827 8.5779,14.6067 6.9429,13.3297" id="Fill-304" fill="#DC402D"></path>
                        <path d="M31.9986,32.5934 C30.0046,34.5854 27.5616,35.7304 24.8316,36.2474 C19.4103,37.2734 14.5533,36.0824 10.4073,32.3624 C8.9433,31.0494 7.7503,29.5134 6.9313,27.7084 C8.6703,26.3704 10.4103,25.0324 12.1493,23.6944 C12.6863,24.9274 13.2873,26.1184 14.2163,27.1214 C17.3983,30.5604 22.3636,31.3284 26.4286,28.9934 C26.6036,28.8934 26.7786,28.7924 26.9546,28.6914 C26.9906,28.8374 27.0666,28.9434 27.1926,29.0414 C28.2876,29.8944 29.3466,30.7964 30.4746,31.6014 C30.9636,31.9494 31.3486,32.4854 31.9986,32.5934" id="Fill-305" fill="#2D9D4D"></path>
                        <path d="M31.9986,32.5934 C31.3486,32.4854 30.9636,31.9494 30.4746,31.6014 C29.3466,30.7964 28.2876,29.8944 27.1926,29.0414 C27.0666,28.9434 26.9906,28.8374 26.9546,28.6914 C27.9186,27.9064 28.7746,27.0324 29.3296,25.8964 C29.5666,25.4124 29.7296,24.9084 29.8926,24.3994 C30.0406,23.9354 29.9396,23.7864 29.4356,23.7914 C26.9276,23.8114 24.4196,23.7844 21.9116,23.8144 C21.3636,23.8214 21.2343,23.6524 21.2443,23.1274 C21.2763,21.4314 21.2653,19.7354 21.2443,18.0384 C21.2393,17.6324 21.3526,17.5054 21.7726,17.5063941 C26.4936,17.5214 31.2136,17.5184 35.9346,17.5124 C36.2476,17.5114 36.4346,17.5484 36.4886,17.9314 C37.0106,21.6934 36.6546,25.3264 34.9186,28.7534 C34.1826,30.2054 33.2726,31.5424 31.9986,32.5934" id="Fill-306" fill="#3C7BE7"></path>
                        <path d="M12.1493,23.694 C10.4103,25.032 8.6703,26.37 6.9313,27.709 C6.0763,26.258 5.6483,24.665 5.3893,23.021 C4.8993,19.901 5.2993,16.893 6.5693,14.002 C6.6723,13.768 6.8173,13.553 6.9433,13.33 C8.5773,14.607 10.2133,15.882 11.8453,17.163 C11.9503,17.246 12.0563,17.305 12.1873,17.325 C11.6683,19.051 11.5033,20.797 11.8993,22.573 C11.9833,22.946 12.0663,23.32 12.1493,23.694" id="Fill-307" fill="#EBB106"></path>
                    </g>
                </g>
            </g>
        </g>
    </g>
</svg>